<svg width="50" height="50" viewBox="0 0 50 50" fill="none" xmlns="http://www.w3.org/2000/svg">
<g clip-path="url(#clip0_1653_23)">
<path d="M49.5167 34.0854C47.8435 30.9223 42.0341 27.4927 41.7783 27.3427C41.0317 26.9177 40.2526 26.6928 39.5235 26.6928C38.4395 26.6928 37.552 27.1894 37.0146 28.0926C36.1647 29.1092 35.1106 30.2974 34.8548 30.4815C32.8734 31.8239 31.3243 31.6723 29.6095 29.9574L20.0388 20.3867C18.3348 18.6827 18.1782 17.1137 19.513 15.1439C19.6997 14.8856 20.8871 13.8315 21.9036 12.9816C22.5519 12.5958 22.9968 12.0234 23.191 11.3201C23.451 10.3844 23.2593 9.28367 22.6477 8.20961C22.5036 7.96297 19.0739 2.15271 15.9109 0.480382C15.3209 0.167913 14.6568 0.00292969 13.9894 0.00292969C12.8912 0.00292969 11.858 0.43122 11.0814 1.20698L8.96824 3.32093C5.62358 6.66393 4.41203 10.4544 5.36777 14.5848C6.16436 18.0278 8.48579 21.6916 12.2687 25.4745L24.5217 37.7275C28.5996 41.8054 32.5142 44.1652 36.1897 44.7768C35.2939 46.8641 33.2191 48.3298 30.8069 48.3298C28.2013 48.3298 25.9474 46.6524 25.1991 44.1568L24.4459 41.6454C24.2967 41.1496 23.8484 40.8172 23.331 40.8172C22.8135 40.8172 22.3652 41.1496 22.2161 41.6463L20.8304 46.2633L19.4455 41.6463C19.2964 41.1505 18.8481 40.818 18.3306 40.818C17.8132 40.818 17.3649 41.1505 17.2158 41.6471L15.8309 46.2633L14.446 41.6463C14.2969 41.1505 13.8486 40.818 13.3311 40.818C12.8137 40.818 12.3654 41.1505 12.2162 41.6471L10.8314 46.2633L9.44653 41.6463C9.29738 41.1505 8.84909 40.818 8.33164 40.818C7.81419 40.818 7.3659 41.1505 7.21675 41.6471L5.83189 46.2633L4.44703 41.6463C4.29788 41.1513 3.84959 40.818 3.33214 40.818C2.81469 40.818 2.3664 41.1505 2.21725 41.6471L0.0341353 48.9239C-0.0975182 49.3638 0.152457 49.8288 0.593246 49.9613C0.673238 49.9854 0.754063 49.9971 0.832389 49.9971C1.19152 49.9971 1.52232 49.7646 1.63064 49.403L3.33214 43.7311L4.717 48.3481C4.86615 48.8439 5.31444 49.1763 5.83189 49.1763C6.34934 49.1763 6.79763 48.8439 6.94678 48.3473L8.33164 43.7311L9.7165 48.3481C9.86565 48.8439 10.3139 49.1763 10.8314 49.1763C11.3488 49.1763 11.7971 48.8439 11.9463 48.3473L13.3311 43.7311L14.716 48.3481C14.8652 48.8439 15.3134 49.1763 15.8309 49.1763C16.3483 49.1763 16.7966 48.8439 16.9458 48.3473L18.3306 43.7311L19.7155 48.3481C19.8647 48.8439 20.3129 49.1763 20.8304 49.1763C21.3478 49.1763 21.7961 48.8439 21.9453 48.3473L23.3301 43.7302L23.6018 44.636C24.5633 47.8431 27.4589 49.9971 30.8061 49.9971C34.0907 49.9971 36.8829 47.8773 37.9062 44.9376C37.9662 44.9384 38.0278 44.9443 38.0878 44.9443C38.0887 44.9443 38.0878 44.9443 38.0887 44.9443C41.1892 44.9443 44.0781 43.6269 46.6761 41.0288L48.7901 38.9157C50.0741 37.63 50.3666 35.6894 49.5167 34.0854Z" fill="#EEAF1C"/>
</g>
<defs>
<clipPath id="clip0_1653_23">
<rect width="50" height="50" fill="white"/>
</clipPath>
</defs>
</svg>
