<svg width="60" height="59" viewBox="0 0 60 59" fill="none" xmlns="http://www.w3.org/2000/svg">
<g clip-path="url(#clip0_1636_41)">
<path d="M49.5146 51.922C50.1613 53.055 51.1768 54.2699 52.5416 55.3613C53.2263 55.9042 53.9971 56.4163 54.8704 56.8539C55.3081 57.0724 55.7734 57.2705 56.2703 57.4315L56.4904 57.4975L56.8304 57.5891C57.0581 57.6432 57.2863 57.6887 57.5116 57.72C57.9576 57.7786 58.3814 57.8094 58.8443 57.8537L58.8455 57.8441C58.8853 57.3985 58.9327 56.9968 58.959 56.5677C58.9672 56.3503 58.9602 56.1261 58.9385 55.9002C58.9251 55.7858 58.9157 55.6749 58.8987 55.5594L58.8712 55.3886L58.8519 55.2817C58.746 54.761 58.5768 54.2773 58.3819 53.8238C57.9851 52.9184 57.4648 52.1405 56.9112 51.4605C55.7945 50.1039 54.5262 49.1428 53.3832 48.4998C52.2378 47.8556 51.2113 47.5421 50.5055 47.397C49.7932 47.2541 49.3952 47.2576 49.3964 47.2524C49.3777 47.265 50.9666 47.6969 52.8266 49.2714C53.7484 50.047 54.7393 51.0958 55.582 52.3875C55.9999 53.0311 56.3827 53.7384 56.6572 54.4833C56.7924 54.856 56.903 55.2401 56.9662 55.6191L56.9755 55.6811L56.9744 55.6783C56.9732 55.6771 56.9726 55.6789 56.972 55.6789L56.9685 55.6794C56.9674 55.6794 56.9662 55.6783 56.9662 55.6783C56.9662 55.6783 56.9668 55.6794 56.9668 55.6811L56.9656 55.684L56.9644 55.6857L56.8485 55.6538C56.45 55.536 56.0549 55.3909 55.671 55.2265C54.8996 54.8953 54.1768 54.4975 53.5102 54.0781C52.1805 53.2337 51.0925 52.2902 50.3129 51.3871C49.5298 50.4886 49.0774 49.618 48.8825 48.9704C48.6818 48.324 48.6923 47.9245 48.6829 47.9268C48.6941 47.9268 48.5571 48.3018 48.5834 49.0199C48.6045 49.7363 48.8568 50.7868 49.5146 51.922Z" fill="#EEAF1C"/>
<path d="M47.8302 47.3251C48.7725 47.3251 48.7725 45.9036 47.8302 45.9036C46.8873 45.9036 46.8873 47.3251 47.8302 47.3251Z" fill="#EEAF1C"/>
<path d="M52.9894 50.5459C51.6702 50.5459 51.6702 52.5366 52.9894 52.5366C54.3086 52.5366 54.308 50.5459 52.9894 50.5459Z" fill="#EEAF1C"/>
<path d="M42.0944 42.4431C42.1049 42.5023 42.1178 42.5831 42.1266 42.6064C42.143 42.6758 42.1599 42.7476 42.1798 42.8181C42.2179 42.957 42.2671 43.093 42.3197 43.2245C42.4292 43.4874 42.5714 43.7344 42.7511 43.9432C42.9272 44.1527 43.1444 44.3166 43.3633 44.4139C43.8081 44.612 44.1803 44.5459 44.3974 44.4936C44.621 44.4321 44.7269 44.3712 44.7287 44.3729C44.7293 44.3712 44.6028 44.3547 44.3974 44.3001C44.1949 44.2454 43.9128 44.1328 43.7214 43.9063C43.5242 43.6849 43.4101 43.3554 43.3469 42.9376C43.3322 42.8324 43.3205 42.7237 43.3112 42.6093L43.2983 42.4345C43.2948 42.3941 43.2995 42.4084 43.3006 42.401L43.3071 42.3964C43.3229 42.3867 43.3346 42.3987 43.3357 42.3998C43.3352 42.4004 43.3264 42.3867 43.3416 42.3748C43.3194 42.3628 43.4212 42.3919 43.4733 42.4055L43.6477 42.4567C43.7624 42.4898 43.8713 42.5239 43.9743 42.5586C44.384 42.7043 44.6813 42.8785 44.8791 43.1226C45.0792 43.365 45.1682 43.6564 45.2191 43.8562C45.2665 44.0616 45.28 44.1851 45.2817 44.1846C45.28 44.1834 45.3455 44.0793 45.4164 43.8653C45.4842 43.657 45.5738 43.3184 45.4614 42.8705C45.4041 42.6502 45.2876 42.4112 45.1149 42.1961C44.9405 41.9827 44.7199 41.7926 44.4753 41.6355C44.3529 41.5553 44.2253 41.4819 44.0948 41.4181C44.0287 41.3851 43.9631 41.3521 43.8958 41.3225C43.8186 41.2901 43.7917 41.2736 43.6389 41.2172C43.1338 41.0363 42.5813 40.8553 42.0224 40.6737L41.9785 40.6606C41.9978 41.2076 41.9996 41.7271 42.0669 42.2524L42.0944 42.4431Z" fill="#EEAF1C"/>
<path d="M42.4342 46.9217C42.4799 46.9428 42.5448 46.9724 42.5647 46.9792C42.625 47.0059 42.6829 47.0276 42.7444 47.048C42.8626 47.0884 42.9838 47.126 43.1026 47.1533C43.3449 47.2079 43.5924 47.2358 43.8295 47.2142C44.0665 47.1977 44.2918 47.1328 44.4709 47.0321C44.832 46.8261 44.969 46.5422 45.0357 46.3669C45.1036 46.1871 45.1106 46.0841 45.1124 46.0847C45.1118 46.0829 45.038 46.1632 44.8976 46.2747C44.7589 46.3823 44.5382 46.5205 44.2807 46.5393C44.0261 46.5627 43.7352 46.4767 43.404 46.3134C43.3209 46.2724 43.2389 46.2263 43.1517 46.178L43.0212 46.1C42.9902 46.0829 43.0025 46.0869 42.9984 46.0818L42.9978 46.075C42.9984 46.059 43.0136 46.0568 43.0136 46.0568C43.0142 46.0579 43.0007 46.0568 42.999 46.0403C42.9791 46.0499 43.0493 45.9942 43.0833 45.9674L43.2062 45.8724C43.2875 45.8132 43.3665 45.7546 43.4414 45.7045C43.7481 45.4957 44.0203 45.379 44.2918 45.3671C44.5634 45.3512 44.8156 45.432 44.986 45.4974C45.1557 45.5668 45.2517 45.6169 45.2517 45.6152C45.2499 45.6158 45.2084 45.5202 45.0913 45.3671C44.9731 45.2191 44.7735 44.9921 44.3984 44.8481C44.2146 44.7764 43.9857 44.7394 43.7464 44.7508C43.5064 44.7616 43.2606 44.8185 43.0271 44.9073C42.91 44.9528 42.7953 45.0035 42.6835 45.0581C42.6285 45.0877 42.5723 45.1173 42.5191 45.1463C42.4559 45.181 42.4313 45.1941 42.316 45.2692C41.9367 45.5213 41.537 45.8087 41.1279 46.0983L41.0986 46.1199C41.499 46.3777 41.8729 46.6361 42.2832 46.8449L42.4342 46.9217Z" fill="#EEAF1C"/>
<path d="M46.2312 43.7991C46.381 43.9181 46.4747 43.9613 46.4741 43.9625C46.4758 43.9625 46.4267 43.8674 46.3599 43.7013C46.2944 43.5368 46.2183 43.2892 46.2347 43.0246C46.2493 42.7617 46.3646 42.5016 46.5712 42.2142C46.6216 42.1413 46.6795 42.0662 46.738 41.9922L46.8317 41.8761C46.858 41.8414 46.9124 41.776 46.9013 41.7942C46.9206 41.7959 46.9206 41.809 46.9206 41.809C46.9206 41.8084 46.923 41.7942 46.9382 41.7936L46.9452 41.7942C46.9493 41.7987 46.9458 41.7868 46.9628 41.817L47.0359 41.9456C47.0857 42.0315 47.129 42.1152 47.1705 42.1948C47.3297 42.5215 47.4123 42.8089 47.3847 43.0548C47.3648 43.3035 47.2302 43.51 47.1214 43.6426C47.0113 43.7764 46.9347 43.8424 46.9364 43.843C46.9353 43.8407 47.0353 43.8373 47.2144 43.7804C47.3847 43.7189 47.6668 43.5954 47.8688 43.2517C47.9688 43.0849 48.0367 42.8687 48.0537 42.6393C48.073 42.4105 48.0508 42.1698 47.9952 41.933C47.9688 41.8141 47.9361 41.6963 47.8957 41.5796C47.8734 41.5222 47.8524 41.4624 47.8295 41.4061C47.8225 41.3867 47.7944 41.323 47.771 41.2774L47.6996 41.1266C47.493 40.7237 47.2443 40.3532 46.9926 39.9565L46.971 39.9844C46.6842 40.3691 46.3992 40.747 46.1498 41.1061C46.0749 41.2154 46.0644 41.2393 46.0275 41.2991C45.9977 41.3497 45.9696 41.4038 45.9421 41.4556C45.8847 41.5626 45.835 41.6713 45.7893 41.7834C45.7039 42.007 45.6436 42.2438 45.6313 42.4748C45.619 42.7065 45.6547 42.9296 45.7244 43.11C45.8642 43.4793 46.086 43.6796 46.2312 43.7991Z" fill="#EEAF1C"/>
<path d="M37.5622 53.8819L37.7184 54.0287L37.8466 54.1465C38.3166 54.5585 38.8088 54.9141 39.308 55.206C40.3047 55.7973 41.3342 56.1245 42.2074 56.2172C43.0847 56.3162 43.7853 56.1967 44.2371 56.0733C44.6889 55.9486 44.9148 55.8246 44.916 55.8314C44.9166 55.8252 44.6579 55.8382 44.2125 55.7887C43.7666 55.7432 43.1362 55.6254 42.4392 55.3312C41.741 55.0439 40.9842 54.5772 40.2392 53.9439C39.8658 53.6269 39.4947 53.2696 39.1295 52.8809C39.0991 52.8491 39.1014 52.8491 39.1026 52.8479V52.8411C39.1032 52.8354 39.1043 52.8303 39.1049 52.828C39.1073 52.8217 39.1108 52.8178 39.1143 52.8161C39.1225 52.8115 39.1313 52.8132 39.1359 52.8143L39.1383 52.8149C39.1383 52.8149 39.1324 52.8121 39.1313 52.8052C39.1307 52.8018 39.1313 52.7973 39.1342 52.7922C39.1166 52.7876 39.3221 52.7734 39.4391 52.7665C39.9705 52.7358 40.4803 52.7552 40.9538 52.8257C41.9031 52.9674 42.6967 53.3464 43.289 53.825C43.8848 54.3007 44.2804 54.835 44.5356 55.2146C44.7896 55.601 44.9137 55.8337 44.916 55.8314C44.9125 55.832 44.9084 55.5714 44.8153 55.1042C44.7194 54.6444 44.5327 53.9536 44.0129 53.1967C43.5061 52.4456 42.5767 51.6694 41.3576 51.2848C40.7536 51.0896 40.0958 50.9814 39.4192 50.9632C39.2343 50.9598 39.1336 50.9553 38.8099 50.9718C38.5056 50.9888 38.203 51.0224 37.9057 51.0708C37.6119 51.1169 37.3216 51.1778 37.0542 51.2489L36.2758 51.4811L35.7461 51.6438C36.0709 52.0922 36.3577 52.5082 36.6989 52.9407C36.8762 53.1569 37.0641 53.3709 37.2619 53.5786C37.3608 53.6821 37.4621 53.7817 37.5622 53.8819Z" fill="#EEAF1C"/>
<path d="M42.141 53.5173C41.2186 53.7103 41.5265 55.0988 42.4459 54.9087C43.3677 54.7163 43.0604 53.3272 42.141 53.5173Z" fill="#EEAF1C"/>
<path d="M34.3971 56.0412C35.3371 56.0412 35.3371 54.6196 34.3971 54.6196C33.4549 54.6196 33.4549 56.0412 34.3971 56.0412Z" fill="#EEAF1C"/>
<path d="M32.0341 50.1899C30.7178 50.1899 30.7178 52.1807 32.0341 52.1807C33.3533 52.1812 33.3533 50.1899 32.0341 50.1899Z" fill="#EEAF1C"/>
<path d="M27.869 52.776C27.8579 52.7749 27.9568 53.9175 28.1212 54.4627C28.4338 55.3356 28.8505 56.2552 29.4475 56.95C29.6862 57.1998 29.9449 57.4222 30.2247 57.6049C30.9182 58.0738 31.7031 58.29 32.4065 58.3196C33.113 58.3537 33.7556 58.2467 34.3098 58.0351C34.8606 57.8251 35.3007 57.4957 35.5997 57.1423C36.2073 56.4122 36.264 55.6725 36.2529 55.236C36.2318 54.7842 36.1511 54.565 36.1575 54.5645C36.1511 54.5639 36.2026 54.7995 36.1698 55.2519C36.1294 55.6877 35.9708 56.3957 35.3317 56.9813C34.7119 57.5685 33.5935 57.8883 32.3632 57.6767C31.7581 57.5702 31.1471 57.3084 30.6391 56.8583C30.5495 56.7797 30.4693 56.6921 30.3862 56.6033C30.395 56.6005 29.0735 55.075 29.2321 52.9724C29.2338 52.9337 29.0489 51.4688 30.165 50.4651C30.9978 49.7139 32.3662 47.9272 37.2876 48.0387C37.3497 48.1338 37.4117 48.2293 37.4831 48.3215C37.5405 48.3966 37.6054 48.4746 37.6704 48.548C37.7266 48.6061 37.7752 48.655 37.8296 48.7085C37.695 48.7119 37.5616 48.7187 37.4299 48.73C36.789 48.7932 36.2353 48.9981 35.7402 49.2701C35.2498 49.5421 34.8266 49.896 34.5352 50.3108C34.2343 50.72 34.112 51.2355 34.1582 51.5627C34.1951 51.8888 34.2893 52.0186 34.2829 52.0215C34.2876 52.0249 34.2689 51.8427 34.3362 51.5986C34.4058 51.3539 34.6399 51.1713 34.8998 50.9352C35.5412 50.3525 36.7024 49.961 38.4529 49.9263L40.4083 50.068C40.499 50.085 40.5903 50.1021 40.6763 50.1123C41.436 50.1971 42.6557 50.3729 42.6528 50.3769C42.6528 50.374 41.4354 49.8078 40.801 49.3714C40.372 49.0777 39.8412 48.6869 39.2922 48.2248C40.1941 48.4001 41.0673 48.7135 41.8948 49.1238C42.4122 49.3844 43.0525 49.5512 43.5827 49.8465C41.8767 48.4865 40.0232 47.6364 38.2065 47.2079C38.1339 47.1249 38.0643 47.0338 37.9952 46.9394C37.8425 46.7265 37.7032 46.5006 37.5826 46.2798C37.3421 45.8297 37.1841 45.3898 37.1519 45.0177C37.1121 44.6455 37.2192 44.3245 37.3339 44.127C37.4463 43.9256 37.5399 43.8294 37.537 43.8271C37.5381 43.8317 37.4211 43.8289 37.2221 43.9301C37.0278 44.0246 36.7129 44.2927 36.5795 44.8703C36.4455 45.4359 36.5145 46.1586 36.7305 46.8358C36.7428 46.8779 36.7574 46.9176 36.7709 46.9563C36.4993 46.9256 36.2289 46.9017 35.9579 46.8892C29.2128 46.5534 27.8737 51.7677 27.869 52.776Z" fill="#EEAF1C"/>
<path d="M21.43 55.8357C19.5841 55.3474 17.4274 55.1249 15.2133 55.3719C14.9517 55.3981 14.6966 55.4311 14.4443 55.4703C14.6275 55.352 14.8212 55.2382 15.0454 55.1352C15.6283 54.862 16.3499 54.66 17.1822 54.5564C18.8402 54.3487 20.9407 54.5121 23.218 55.1466C23.7898 55.303 24.3353 55.5079 24.9697 55.7361C25.5948 55.9574 26.2491 56.172 26.9485 56.3598C27.5607 56.5162 28.1968 56.6648 28.9226 56.7194C28.5544 56.1623 28.2519 55.5756 28.0271 54.9639C27.7684 54.9292 27.5092 54.8888 27.2546 54.8393C26.5944 54.7124 25.9518 54.5536 25.3267 54.3846C24.7122 54.2156 24.0403 54.0358 23.4205 53.9254C20.9179 53.4667 18.705 53.5293 16.9762 53.9481C16.1135 54.1593 15.3766 54.4654 14.8019 54.8296C14.4326 55.0618 14.1406 55.3133 13.9018 55.5591C12.1992 55.859 10.6348 56.3376 9.2103 56.7069C8.31309 56.9402 7.46328 57.1274 6.65972 57.2384C5.85439 57.351 5.09765 57.3863 4.40704 57.355C3.01879 57.2987 1.90855 57.0056 1.15707 56.7769C0.405588 56.5413 0.00117053 56.3706 0 56.374C0.00175579 56.3706 0.373984 56.5999 1.09854 56.9305C1.82193 57.2509 2.91286 57.6799 4.35729 57.8774C5.07716 57.9724 5.8819 58.0071 6.73639 57.9491C7.59087 57.8967 8.49218 57.7562 9.41807 57.5644C10.5991 57.3226 11.8223 57.0096 13.0924 56.7587C13.0871 56.7723 13.0812 56.7877 13.0754 56.8019C13.0994 56.7951 13.1263 56.7899 13.1497 56.7814C13.1573 56.7689 13.1643 56.7569 13.1725 56.7444C13.8772 56.6067 14.593 56.4872 15.3275 56.4098C17.4216 56.1794 19.4278 56.3239 21.2211 56.6949C23.0202 57.0597 24.632 57.5775 26.0355 57.8768C27.4342 58.1881 28.6036 58.2774 29.4025 58.2638C30.2043 58.2513 30.6368 58.1773 30.6374 58.1813C30.6468 58.1631 28.8418 58.2518 26.1771 57.3698C24.8404 56.9561 23.2818 56.3154 21.43 55.8357Z" fill="#EEAF1C"/>
<path d="M20.4907 52.9507C20.7781 52.8068 21.1638 52.7015 21.6302 52.6793C22.0961 52.656 22.6369 52.7083 23.2409 52.8261C24.4571 53.0515 25.8845 53.5647 27.676 53.9983C27.6906 54.0018 27.7059 54.0046 27.7211 54.008C27.6707 53.8134 27.6304 53.6125 27.5999 53.4065C27.5993 53.4025 27.597 53.4003 27.5964 53.3963C27.5947 53.3804 27.5958 53.3639 27.5941 53.3485C27.5701 53.1527 27.5566 52.9536 27.5566 52.7521C27.5566 52.7464 27.5584 52.7425 27.5595 52.7373C25.9366 52.5217 24.4816 52.2297 23.2561 52.1893C22.61 52.1637 22.0247 52.1967 21.5307 52.3083C21.0362 52.4158 20.6429 52.6082 20.3737 52.8102C20.1003 53.0156 19.9464 53.2199 19.8528 53.3565C19.7632 53.4953 19.7258 53.5727 19.7246 53.5721C19.7258 53.5727 19.7796 53.501 19.8973 53.3809C20.0155 53.262 20.2039 53.0947 20.4907 52.9507Z" fill="#EEAF1C"/>
<path d="M32.6146 53.2061C32.8657 52.917 33.0524 52.6012 33.1917 52.2739C32.9739 52.67 32.566 52.9643 31.962 52.9643C31.4786 52.9643 31.1204 52.7753 30.8851 52.4982C30.7476 52.5875 30.5878 52.6615 30.4 52.7161C30.1553 52.7907 29.8814 52.8282 29.5987 52.8493C29.4723 53.5169 29.7363 54.3785 29.7363 54.3785C30.5299 54.1844 32.1353 53.7656 32.6146 53.2061Z" fill="#EEAF1C"/>
<path d="M30.8273 56.405C31.1398 56.2235 31.3938 55.9406 31.5343 55.6066C31.608 55.4381 31.6467 55.2588 31.6648 55.0744C31.6876 54.8866 31.6806 54.5372 32.0341 54.2134L29.7773 54.8388C29.785 54.8883 30.3287 56.0903 30.7196 56.4659C30.7565 56.4471 30.791 56.4278 30.8273 56.405Z" fill="#EEAF1C"/>
<path d="M24.7582 48.0494C24.7652 48.0489 24.7523 48.0443 24.7892 48.0483L24.9455 48.0659C25.0473 48.0768 25.1427 48.0893 25.2369 48.1041C25.6109 48.1644 25.9047 48.2697 26.0973 48.4426C26.2969 48.6105 26.3899 48.8535 26.4362 49.0271C26.4806 49.2006 26.49 49.3093 26.4918 49.3082C26.49 49.307 26.5503 49.2177 26.6076 49.0316C26.6626 48.8484 26.7276 48.5331 26.5626 48.1496C26.4795 47.9629 26.3372 47.774 26.1558 47.6204C25.972 47.4616 25.7531 47.3353 25.519 47.238C25.4026 47.1879 25.2832 47.1452 25.1574 47.1099C25.0965 47.0889 25.0327 47.0724 24.9707 47.0576C24.9502 47.0508 24.8776 47.0388 24.8267 47.0286L24.6529 47.0007C24.1876 46.929 23.7205 46.9159 23.2295 46.8892L23.24 46.9244C23.3899 47.4053 23.5373 47.877 23.6901 48.3112C23.7369 48.4427 23.7504 48.466 23.7779 48.5297C23.803 48.5889 23.8317 48.6441 23.8592 48.7021C23.9142 48.8148 23.9775 48.9252 24.0436 49.031C24.1794 49.2399 24.3456 49.4351 24.5329 49.5859C24.7219 49.7401 24.9344 49.8425 25.1287 49.8966C25.5284 50.0024 25.8327 49.933 26.0241 49.8835C26.2155 49.8254 26.3103 49.7742 26.3115 49.7765C26.3121 49.7748 26.2015 49.7606 26.0183 49.7133C25.8392 49.6684 25.5817 49.583 25.3686 49.41C25.1533 49.2353 25.0034 48.9781 24.8846 48.6259C24.8554 48.5405 24.8273 48.4472 24.8009 48.3482L24.7582 48.1985C24.7465 48.1536 24.7231 48.0688 24.7336 48.0881C24.7453 48.0756 24.7564 48.083 24.7564 48.083C24.7559 48.0824 24.7453 48.0722 24.7541 48.0563L24.7582 48.0494Z" fill="#EEAF1C"/>
<path d="M28.1936 49.498C28.09 49.6124 28.0192 49.6738 28.0204 49.6744C28.0198 49.6727 28.1105 49.6687 28.2761 49.6164C28.4324 49.5623 28.6905 49.4525 28.8848 49.1514C28.9802 49.0017 29.0422 48.8139 29.0633 48.6119C29.0844 48.4104 29.0686 48.2021 29.0247 47.9938C29.003 47.8897 28.9744 47.7861 28.9381 47.6837C28.9211 47.6336 28.903 47.5841 28.8831 47.5317C28.8772 47.5152 28.8497 47.4583 28.8316 47.4196L28.7683 47.2887C28.5869 46.9359 28.3686 46.612 28.1462 46.2649L28.1263 46.2922C27.8536 46.632 27.589 46.9632 27.3532 47.2807C27.2835 47.3775 27.2736 47.398 27.2379 47.4481C27.2104 47.4959 27.1834 47.5408 27.1571 47.5892C27.1027 47.6808 27.0553 47.777 27.0137 47.876C26.9283 48.0729 26.8686 48.279 26.8539 48.4821C26.8381 48.6853 26.8662 48.8788 26.9271 49.0399C27.0477 49.3597 27.2449 49.5355 27.3778 49.6397C27.513 49.7433 27.5955 49.7803 27.5949 49.782C27.5961 49.7808 27.5533 49.6989 27.4971 49.5532C27.4404 49.4092 27.3725 49.1918 27.3953 48.9607C27.4135 48.7297 27.5235 48.5003 27.716 48.2465C27.7652 48.1839 27.8173 48.1179 27.8752 48.0502L27.9607 47.95C27.9882 47.9193 28.0373 47.8618 28.0286 47.8777C28.0432 47.8794 28.0432 47.8908 28.0432 47.8908C28.0432 47.8908 28.045 47.8777 28.0596 47.8772L28.0654 47.8777C28.0695 47.8817 28.0666 47.8709 28.0812 47.8977L28.148 48.0103C28.1895 48.0855 28.2276 48.1566 28.2644 48.2289C28.4043 48.5117 28.4716 48.7616 28.4453 48.9784C28.4225 49.1975 28.2954 49.383 28.1936 49.498Z" fill="#EEAF1C"/>
<path d="M22.4834 51.1293C22.8346 51.3524 23.1588 51.5732 23.5158 51.7553L23.6487 51.8225C23.689 51.8407 23.7458 51.8663 23.7628 51.8731C23.8155 51.8959 23.8658 51.9152 23.9173 51.9334C24.0215 51.9693 24.1262 52.0006 24.2328 52.0285C24.4446 52.0786 24.6577 52.103 24.8643 52.0922C25.0714 52.082 25.264 52.0319 25.4191 51.9505C25.7304 51.7866 25.8475 51.5504 25.9066 51.407C25.9622 51.2551 25.9681 51.172 25.9698 51.172C25.9692 51.1708 25.9084 51.234 25.7866 51.3251C25.6661 51.415 25.4747 51.5225 25.2505 51.5362C25.0287 51.5516 24.7747 51.4747 24.4873 51.3319C24.4142 51.2966 24.3428 51.2556 24.2667 51.2135L24.1526 51.1458C24.1256 51.1304 24.1362 51.1338 24.1321 51.1304V51.1247C24.1333 51.1117 24.1455 51.1105 24.1461 51.1105C24.1461 51.1105 24.1344 51.1099 24.1333 51.0963C24.1163 51.1037 24.176 51.0604 24.2082 51.0365L24.3147 50.9614C24.3826 50.9102 24.4511 50.8647 24.516 50.8248C24.7788 50.6547 25.0152 50.5619 25.2523 50.5562C25.4881 50.5477 25.7094 50.6211 25.8551 50.678C26.0032 50.7389 26.0869 50.7833 26.0869 50.7816C26.0863 50.7821 26.0488 50.7042 25.9452 50.5721C25.8416 50.4452 25.6684 50.254 25.3401 50.1271C25.1797 50.0639 24.9795 50.0281 24.7712 50.0332C24.5652 50.0383 24.3516 50.0821 24.1485 50.1527C24.0466 50.1869 23.9501 50.229 23.8529 50.2728C23.8032 50.2944 23.7563 50.3178 23.7101 50.3445C23.6551 50.3718 23.634 50.3804 23.5339 50.4412C23.208 50.6467 22.8615 50.8777 22.5091 51.1134L22.4834 51.1293Z" fill="#EEAF1C"/>
<path d="M27.0942 50.0725C26.1548 50.0725 26.1548 51.4946 27.0942 51.4946C28.037 51.4946 28.037 50.0725 27.0942 50.0725Z" fill="#EEAF1C"/>
<path d="M53.0316 57.9526C52.1461 57.8587 51.1224 57.5992 50.1374 57.0546C49.6868 56.8094 49.2473 56.5009 48.8305 56.1441C48.501 55.8636 48.1885 55.5484 47.893 55.2052C47.7396 55.0294 47.5915 54.8461 47.4505 54.6555C47.0689 54.136 46.7458 53.5931 46.4907 53.0446C46.2349 52.5028 46.0505 51.9417 45.906 51.3892C45.621 50.2898 45.5162 49.2536 45.5478 48.3852C45.5806 47.5174 45.7567 46.8192 45.9434 46.3554C46.1249 45.8888 46.294 45.6532 46.287 45.6504C46.2928 45.6549 46.0623 45.8319 45.7526 46.257C45.4454 46.6798 45.0808 47.3729 44.8683 48.2982C44.6547 49.2194 44.5874 50.3621 44.7694 51.606C44.863 52.2251 45.0152 52.8835 45.2786 53.5379C45.5384 54.1906 45.8908 54.8302 46.335 55.4323C46.3695 55.4823 46.4076 55.5256 46.445 55.5717C46.7254 55.9387 47.0326 56.2784 47.3627 56.5869C48.0545 57.2293 48.8311 57.7341 49.6259 58.0652C50.848 58.5859 52.0559 58.6906 53.0199 58.6223C53.9908 58.5512 54.7335 58.3281 55.2298 58.1586C55.7261 57.9827 55.9836 57.8518 55.9848 57.8547C55.9842 57.8518 55.698 57.9031 55.183 57.9543C54.6697 58.0026 53.9206 58.051 53.0316 57.9526Z" fill="#EEAF1C"/>
<path d="M46.0702 55.8755C45.4533 56.0883 44.8493 56.3484 44.2459 56.6295C43.9427 56.7707 43.6501 56.9164 43.3633 57.0604C43.2094 57.1366 43.0929 57.1969 42.9665 57.2527C42.8407 57.3113 42.7125 57.3608 42.5838 57.4092C42.0687 57.5953 41.5361 57.7023 41.0217 57.7416C39.9864 57.8201 39.0312 57.6209 38.3277 57.2607C37.6143 56.9073 37.1642 56.3934 36.9272 55.9984C36.6884 55.6006 36.6211 55.3348 36.6152 55.3377C36.6223 55.3365 36.6012 55.6063 36.7317 56.0804C36.8599 56.5476 37.2011 57.2391 37.9485 57.8173C38.6789 58.3955 39.7762 58.8269 41.0381 58.8684C41.6661 58.89 42.3333 58.82 43.0016 58.622C43.1667 58.573 43.3323 58.5156 43.4985 58.4484C43.6624 58.3852 43.8298 58.305 43.9685 58.243L44.8411 57.8326C45.4264 57.5589 45.9958 57.2926 46.5396 57.0678C46.7368 56.9852 46.9317 56.9141 47.1231 56.8441C46.7953 56.5362 46.4863 56.1987 46.2054 55.8322C46.1591 55.8476 46.1135 55.8601 46.0702 55.8755Z" fill="#EEAF1C"/>
<path d="M49.1724 56.0461L49.5171 55.9568C49.7488 55.8965 49.9777 55.8618 50.2053 55.8436C50.6613 55.8037 51.099 55.8447 51.4871 55.9301C52.269 56.1036 52.8402 56.4832 53.1691 56.807C53.5033 57.1319 53.6274 57.3788 53.6321 57.372C53.625 57.376 53.5911 57.108 53.3406 56.6806C53.0936 56.2567 52.5774 55.678 51.7118 55.2996C51.2816 55.1112 50.7748 54.9701 50.21 54.9291C49.9297 54.9092 49.6347 54.9109 49.331 54.945C49.0383 54.9809 48.7761 55.0179 48.4771 55.0651C48.3992 55.0771 48.3155 55.0936 48.2324 55.1078C48.5303 55.4515 48.8428 55.7656 49.1724 56.0461Z" fill="#EEAF1C"/>
<path d="M54.7753 36.6088L54.9298 36.7545L55.0539 36.8768C55.4846 37.3252 55.8604 37.7958 56.1741 38.2755C56.8032 39.2321 57.162 40.2268 57.2773 41.0747C57.3979 41.926 57.2902 42.61 57.1737 43.0521C57.0555 43.4948 56.9361 43.7167 56.9402 43.7179C56.9355 43.7185 56.9413 43.4664 56.884 43.0316C56.8243 42.6009 56.6897 41.9908 56.3725 41.3188C56.0617 40.6462 55.566 39.9195 54.8958 39.2082C54.5658 38.852 54.19 38.4997 53.7798 38.1538C53.7464 38.1225 53.7464 38.1247 53.7452 38.1259L53.7388 38.1265C53.7347 38.1276 53.7306 38.1282 53.7277 38.1287C53.7218 38.131 53.7177 38.1344 53.7154 38.1378C53.7107 38.1481 53.7124 38.1572 53.7136 38.1617L53.7148 38.164C53.7148 38.164 53.7119 38.1589 53.7048 38.1577C53.7013 38.1572 53.6966 38.1583 53.692 38.1612C53.6867 38.1412 53.675 38.3416 53.6697 38.4554C53.6498 38.9743 53.6832 39.4722 53.7663 39.9286C53.9319 40.8493 54.3387 41.6153 54.8432 42.1792C55.3447 42.7488 55.906 43.121 56.3011 43.3611C56.7008 43.6001 56.9431 43.715 56.9408 43.7179C56.9413 43.715 56.6751 43.7162 56.1934 43.6359C55.717 43.5529 55.0024 43.3867 54.2169 42.8968C53.4344 42.4205 52.6145 41.5356 52.1925 40.3577C51.9789 39.7744 51.8531 39.1371 51.8162 38.477C51.8086 38.2983 51.8016 38.2004 51.8115 37.8829C51.8238 37.5887 51.8531 37.2911 51.8934 37.0032C51.9338 36.7158 51.9906 36.4324 52.0579 36.1706L52.2791 35.4076L52.4319 34.8857C52.9019 35.1953 53.3361 35.4622 53.7879 35.7877C54.0133 35.9521 54.2374 36.1337 54.4551 36.3192C54.564 36.4148 54.6711 36.5104 54.7753 36.6088Z" fill="#EEAF1C"/>
<path d="M54.503 41.0698C54.6809 40.168 56.1136 40.4356 55.9381 41.3357C55.7631 42.2374 54.328 41.9698 54.503 41.0698Z" fill="#EEAF1C"/>
<path d="M56.9209 33.4777C56.942 34.3949 55.4812 34.4262 55.4607 33.5113C55.4402 32.5936 56.9005 32.5623 56.9209 33.4777Z" fill="#EEAF1C"/>
<path d="M50.8607 31.3113C50.8291 30.0308 52.874 29.9841 52.9021 31.2675C52.9313 32.5519 50.8893 32.5952 50.8607 31.3113Z" fill="#EEAF1C"/>
<path d="M53.4185 27.2003C53.4174 27.1912 54.5949 27.2594 55.1597 27.4074C56.0633 27.6919 57.0167 28.0766 57.7436 28.6434C58.0064 28.8698 58.2405 29.1168 58.4337 29.382C58.9305 30.0495 59.1693 30.8052 59.2185 31.492C59.2659 32.1788 59.1705 32.8071 58.968 33.3477C58.7637 33.8911 58.4354 34.3258 58.0772 34.6252C57.3427 35.2323 56.5842 35.304 56.1365 35.3023C55.6712 35.2915 55.4447 35.2181 55.4441 35.2244C55.4435 35.2181 55.6864 35.2631 56.1505 35.221C56.5971 35.172 57.3205 35.0024 57.9075 34.3674C58.4974 33.7517 58.7983 32.6563 58.5542 31.4635C58.4313 30.8774 58.1492 30.2885 57.6757 29.8036C57.5932 29.7183 57.5013 29.6398 57.4083 29.5635C57.4059 29.572 55.8105 28.3196 53.6503 28.5199C53.6134 28.5227 52.1046 28.3776 51.0985 29.4856C50.3447 30.3124 48.5421 31.6826 48.768 36.4689C48.8646 36.5275 48.9635 36.5861 49.0601 36.6527C49.1414 36.7073 49.2198 36.7682 49.2971 36.8325C49.358 36.8837 49.4118 36.9298 49.4651 36.9816C49.4657 36.853 49.4697 36.7232 49.4785 36.5952C49.5294 35.9675 49.7273 35.4241 49.9965 34.9364C50.2651 34.4533 50.6186 34.0339 51.0388 33.7409C51.4497 33.4393 51.9799 33.309 52.3141 33.3442C52.6501 33.3755 52.7853 33.4615 52.7876 33.4552C52.7911 33.4598 52.6068 33.445 52.3574 33.5189C52.1075 33.5895 51.9226 33.8211 51.6856 34.0789C51.1032 34.7191 50.7298 35.8571 50.7327 37.5614L50.9212 39.4609C50.9405 39.5485 50.9569 39.6379 50.9692 39.721C51.0751 40.4584 51.2823 41.6415 51.2876 41.6386C51.2841 41.6386 50.676 40.467 50.2136 39.8587C49.9034 39.4478 49.4873 38.9402 49.001 38.4173C49.2035 39.2902 49.5447 40.1324 49.9848 40.929C50.2634 41.427 50.4489 42.0461 50.7661 42.5559C49.3287 40.9268 48.4145 39.1434 47.9352 37.3828C47.8456 37.3167 47.7502 37.2485 47.6548 37.1836C47.433 37.039 47.1978 36.9082 46.9654 36.7961C46.4984 36.5724 46.0424 36.4307 45.6603 36.4074C45.2769 36.3772 44.9521 36.4882 44.749 36.6049C44.5448 36.721 44.4482 36.8114 44.4458 36.8086C44.4505 36.8097 44.4447 36.6965 44.5442 36.4996C44.6366 36.309 44.9059 35.9977 45.4958 35.8543C46.0746 35.7109 46.8179 35.7627 47.5179 35.955C47.5618 35.9664 47.6022 35.9795 47.6431 35.992C47.6057 35.728 47.5752 35.4656 47.5559 35.2056C47.0596 28.6479 52.3832 27.2259 53.4185 27.2003Z" fill="#EEAF1C"/>
<path d="M56.4179 20.8663C55.876 19.0812 55.5974 16.9843 55.8022 14.8247C55.8239 14.5732 55.852 14.324 55.8859 14.0776C55.7701 14.258 55.6565 14.4492 55.5559 14.67C55.2907 15.243 55.097 15.9503 55.008 16.7623C54.8336 18.3796 55.0484 20.4207 55.7496 22.6224C55.9257 23.1755 56.1476 23.7018 56.3963 24.3141C56.6374 24.9173 56.8744 25.5495 57.0799 26.2261C57.2572 26.8185 57.4211 27.4342 57.4954 28.1387C56.9148 27.7933 56.3062 27.511 55.6729 27.3056C55.629 27.0547 55.5816 26.8031 55.5278 26.5567C55.3797 25.9171 55.2029 25.2957 55.0157 24.6908C54.8284 24.0968 54.6265 23.4498 54.4994 22.846C53.9739 20.4207 53.9891 18.2663 54.3783 16.5746C54.5767 15.7301 54.8752 15.0063 55.2357 14.4395C55.4663 14.0753 55.718 13.7857 55.9661 13.5478C56.2336 11.8851 56.6913 10.3521 57.0389 8.95506C57.259 8.07986 57.4328 7.24792 57.5288 6.4615C57.6265 5.67793 57.6435 4.94158 57.5967 4.26727C57.5077 2.92034 57.1829 1.84655 56.9306 1.12045C56.6731 0.392641 56.487 0.000569045 56.4905 0C56.487 0.00170713 56.7305 0.358498 57.0857 1.05615C57.4334 1.75323 57.8981 2.80824 58.1322 4.20695C58.2486 4.90516 58.299 5.68703 58.2609 6.52011C58.2258 7.35319 58.1006 8.23351 57.9244 9.14113C57.702 10.2929 57.41 11.4896 57.18 12.7341C57.1934 12.7278 57.2069 12.7221 57.2209 12.7164C57.2145 12.7392 57.2098 12.7631 57.2051 12.7864C57.1922 12.7944 57.1805 12.8012 57.1671 12.8098C57.0412 13.4989 56.9341 14.2005 56.8739 14.9169C56.6825 16.9564 56.875 18.9088 57.2953 20.6455C57.7102 22.3879 58.2797 23.9448 58.6185 25.3014C58.972 26.6546 59.0891 27.7933 59.0926 28.5689C59.0973 29.3496 59.0306 29.7718 59.0352 29.7724C59.0165 29.7827 59.0657 28.026 58.1041 25.4499C57.6464 24.1571 56.9523 22.6576 56.4179 20.8663Z" fill="#EEAF1C"/>
<path d="M53.4365 20.0176C53.2925 20.2982 53.1954 20.676 53.1813 21.1301C53.1661 21.5842 53.2346 22.1095 53.3692 22.695C53.6279 23.8735 54.1856 25.254 54.6737 26.9845C54.6773 26.9987 54.6808 27.0135 54.6843 27.0288C54.4806 26.9833 54.2728 26.948 54.0639 26.9259C54.0598 26.9247 54.0575 26.923 54.0534 26.923C54.0341 26.9219 54.0177 26.923 54.0013 26.9213C53.8023 26.9002 53.598 26.8906 53.3879 26.8951C53.3821 26.8951 53.3774 26.8974 53.3727 26.898C53.1164 25.3234 52.7839 23.9145 52.7154 22.7229C52.6721 22.0947 52.6961 21.5245 52.7974 21.0414C52.8975 20.5577 53.0865 20.1713 53.2878 19.9044C53.4933 19.6364 53.6987 19.4793 53.8374 19.3883C53.9773 19.2955 54.0569 19.258 54.0557 19.2568C54.0563 19.2574 53.9837 19.3115 53.8626 19.4287C53.7426 19.5465 53.5758 19.7326 53.4365 20.0176Z" fill="#EEAF1C"/>
<path d="M53.968 31.8098C53.6789 32.0614 53.3564 32.2475 53.0234 32.3903C53.4255 32.1706 53.7187 31.7666 53.7052 31.1787C53.6947 30.7086 53.4934 30.3637 53.2037 30.1435C53.292 30.0052 53.3646 29.8481 53.4167 29.6666C53.4881 29.427 53.5209 29.1567 53.5332 28.8818C54.2191 28.744 55.1099 28.9819 55.1099 28.9819C54.9273 29.7576 54.5345 31.3301 53.968 31.8098Z" fill="#EEAF1C"/>
<path d="M57.214 29.9955C57.0343 30.3063 56.7516 30.5601 56.4093 30.7035C56.2378 30.7786 56.0546 30.8207 55.8655 30.8424C55.673 30.868 55.3136 30.8697 54.9888 31.2237L55.5817 29.011C55.6308 29.0172 56.8798 29.5175 57.2737 29.8903C57.2561 29.9278 57.2362 29.9625 57.214 29.9955Z" fill="#EEAF1C"/>
<path d="M48.4962 24.2785C48.4956 24.2859 48.4909 24.2728 48.4956 24.311L48.5173 24.4606C48.5301 24.5602 48.5453 24.6553 48.5629 24.7435C48.6361 25.106 48.7467 25.39 48.9293 25.5727C49.106 25.7633 49.3571 25.8504 49.5368 25.8902C49.7165 25.9295 49.8277 25.9363 49.8271 25.9375C49.8265 25.9358 49.7364 25.9961 49.5456 26.0564C49.3577 26.1145 49.0381 26.1845 48.6407 26.0319C48.4453 25.9557 48.248 25.8208 48.0853 25.6478C47.9215 25.4719 47.7868 25.2648 47.6792 25.0394C47.6247 24.9267 47.5785 24.8095 47.5393 24.6894C47.5165 24.6285 47.4983 24.5693 47.4819 24.5067C47.4749 24.4874 47.4603 24.4191 47.4486 24.3673L47.4164 24.2017C47.3321 23.7475 47.3087 23.2934 47.2671 22.8159L47.3063 22.8256C47.8038 22.961 48.2919 23.0971 48.7385 23.2342C48.8749 23.2752 48.9012 23.2883 48.9679 23.3133C49.0294 23.3389 49.0867 23.3634 49.147 23.3884C49.2641 23.4391 49.3788 23.4983 49.4859 23.5609C49.7059 23.6912 49.9102 23.8454 50.0694 24.0247C50.2297 24.2057 50.3415 24.4094 50.4012 24.5978C50.5189 24.9819 50.4545 25.2824 50.4071 25.4668C50.355 25.6569 50.3011 25.7502 50.3035 25.7514C50.3023 25.7519 50.2848 25.6444 50.2333 25.4668C50.1817 25.2949 50.0887 25.0462 49.9061 24.8419C49.7217 24.6359 49.4543 24.4959 49.0896 24.3872C48.9983 24.361 48.9047 24.336 48.8029 24.3121L48.6478 24.274C48.6015 24.2637 48.5132 24.2427 48.5342 24.2523C48.5214 24.2637 48.5295 24.274 48.5295 24.274C48.529 24.2734 48.5184 24.2637 48.502 24.2723L48.4962 24.2785Z" fill="#EEAF1C"/>
<path d="M50.0592 27.5898C50.1774 27.4862 50.2389 27.4162 50.2395 27.4173C50.2377 27.4168 50.2342 27.5061 50.1839 27.6678C50.1336 27.8214 50.0259 28.0747 49.7186 28.2704C49.5694 28.3661 49.378 28.4315 49.1708 28.456C48.9648 28.4839 48.7465 28.4725 48.5352 28.4326C48.4281 28.4139 48.321 28.3888 48.2151 28.3575C48.163 28.3393 48.1091 28.3228 48.0576 28.3046C48.0406 28.2995 47.9815 28.2761 47.9412 28.2602L47.8054 28.1987C47.4396 28.0326 47.1019 27.8243 46.7402 27.6154L46.7648 27.5955C47.1077 27.3252 47.4448 27.0605 47.7632 26.8243C47.861 26.7515 47.882 26.7413 47.9353 26.7082C47.9809 26.6798 48.0295 26.6502 48.0758 26.6234C48.1712 26.5711 48.2683 26.5199 48.3666 26.4783C48.5674 26.3907 48.7804 26.3309 48.9864 26.3093C49.1954 26.2894 49.3973 26.3144 49.5612 26.3679C49.8953 26.4789 50.0768 26.6661 50.1868 26.7936C50.2963 26.9228 50.3361 27.0025 50.3378 27.0013C50.3372 27.0025 50.2541 26.9626 50.1002 26.9091C49.9509 26.8591 49.7268 26.8004 49.4898 26.8255C49.2557 26.8477 49.0227 26.9604 48.7658 27.1533C48.7002 27.2022 48.6364 27.2546 48.568 27.3126L48.4644 27.4008C48.4363 27.4253 48.3754 27.4737 48.3941 27.4652C48.3959 27.4794 48.4076 27.4794 48.4082 27.4794C48.407 27.4788 48.3941 27.4811 48.3941 27.4959L48.3947 27.501C48.3994 27.5056 48.3883 27.5021 48.4164 27.5192L48.5334 27.579C48.6089 27.6177 48.6856 27.6558 48.7593 27.6877C49.0549 27.818 49.3124 27.8806 49.5348 27.847C49.7584 27.8191 49.9428 27.6917 50.0592 27.5898Z" fill="#EEAF1C"/>
<path d="M51.6091 21.9941C51.8461 22.3311 52.0797 22.6446 52.2746 22.9884L52.3465 23.1164C52.3664 23.1545 52.394 23.2098 52.401 23.2263C52.4232 23.2746 52.4455 23.323 52.4665 23.3754C52.5063 23.4761 52.5403 23.5774 52.5707 23.6776C52.6269 23.8824 52.6567 24.0924 52.6497 24.2928C52.6444 24.4919 52.597 24.6832 52.5169 24.8334C52.3547 25.143 52.1154 25.2619 51.9696 25.3206C51.8145 25.3798 51.7285 25.3877 51.7291 25.3889C51.7279 25.3889 51.7917 25.3251 51.8824 25.2045C51.972 25.0861 52.0802 24.9 52.0879 24.6815C52.099 24.4652 52.0141 24.2199 51.8614 23.9439C51.8204 23.8733 51.7794 23.8016 51.7349 23.7311L51.663 23.6212C51.6466 23.5956 51.6507 23.6059 51.6466 23.6019H51.6407C51.6273 23.603 51.6261 23.6155 51.6267 23.6161C51.6267 23.6161 51.6261 23.6041 51.6115 23.6036C51.6191 23.5876 51.5734 23.6463 51.5512 23.6758L51.4763 23.7811C51.4259 23.8511 51.3803 23.916 51.3399 23.9826C51.1707 24.2421 51.0812 24.4743 51.0806 24.7054C51.0777 24.9347 51.1573 25.1487 51.2217 25.2893C51.2855 25.4321 51.3335 25.5129 51.3311 25.5129C51.3317 25.5124 51.2498 25.4748 51.114 25.3803C50.9817 25.2819 50.7792 25.1151 50.6411 24.801C50.5726 24.6462 50.5311 24.4527 50.5328 24.2495C50.5328 24.0463 50.5732 23.8398 50.6405 23.6406C50.6733 23.541 50.7119 23.4431 50.7581 23.3498C50.7792 23.3002 50.8026 23.2547 50.8254 23.2086C50.8559 23.1551 50.8641 23.1346 50.9244 23.0356C51.1274 22.7112 51.3574 22.3686 51.5927 22.0237L51.6091 21.9941Z" fill="#EEAF1C"/>
<path d="M50.6267 26.5081C50.6057 25.591 52.0636 25.5591 52.087 26.4768C52.1075 27.3911 50.6472 27.4252 50.6267 26.5081Z" fill="#EEAF1C"/>
<path d="M59.3028 51.5691C59.184 50.7093 58.8978 49.7157 58.3143 48.7694C58.0527 48.3392 57.729 47.9181 57.351 47.5209C57.056 47.2062 56.7253 46.9092 56.366 46.6303C56.1822 46.4835 55.9902 46.3436 55.7912 46.211C55.2493 45.8513 54.6845 45.5492 54.1156 45.313C53.5538 45.0769 52.9732 44.9107 52.4026 44.7821C51.2671 44.5289 50.1979 44.4498 49.3088 44.5021C48.4181 44.5494 47.7052 44.74 47.2329 44.9289C46.7577 45.1184 46.5195 45.2868 46.5166 45.2811C46.5207 45.2863 46.698 45.0558 47.1276 44.748C47.5554 44.4367 48.2565 44.0668 49.2035 43.8403C50.1475 43.6121 51.3163 43.5211 52.6015 43.6713C53.2395 43.7464 53.916 43.8813 54.5967 44.1237C55.2733 44.3621 55.9381 44.6888 56.5655 45.1076C56.6147 45.1406 56.6633 45.1759 56.7113 45.2123C57.094 45.4769 57.4505 45.7682 57.7741 46.0829C58.4489 46.7396 58.9879 47.4862 59.3444 48.2499C59.9033 49.4272 60.0397 50.604 59.9905 51.5429C59.9419 52.4892 59.7289 53.2165 59.5633 53.7036C59.3935 54.1895 59.2665 54.4433 59.2689 54.4445C59.2665 54.4445 59.3104 54.1651 59.3543 53.6603C59.39 53.159 59.4228 52.4306 59.3028 51.5691Z" fill="#EEAF1C"/>
<path d="M57.0134 44.8402C57.2159 44.2336 57.4699 43.6401 57.7479 43.0489C57.886 42.7513 58.0265 42.4628 58.1681 42.1782C58.2442 42.0297 58.3022 41.9148 58.3595 41.7901C58.4139 41.6667 58.4654 41.5409 58.5093 41.4151C58.689 40.9093 58.7868 40.3863 58.8143 39.885C58.874 38.8789 58.6451 37.9531 58.2618 37.2748C57.8814 36.5902 57.3435 36.164 56.9326 35.9426C56.5183 35.7184 56.2438 35.6587 56.2491 35.6536C56.2473 35.661 56.5218 35.6319 57.0128 35.748C57.4957 35.863 58.2138 36.1822 58.823 36.8947C59.4329 37.5946 59.9005 38.653 59.9737 39.877C60.0094 40.4882 59.9526 41.142 59.7636 41.793C59.7173 41.9552 59.6617 42.1202 59.5991 42.2807C59.5353 42.4417 59.4592 42.609 59.3954 42.7422L58.9957 43.6003C58.7271 44.179 58.4666 44.7389 58.2471 45.2727C58.167 45.4667 58.0967 45.6545 58.03 45.8446C57.7064 45.5299 57.3505 45.2391 56.9678 44.9739C56.9841 44.9279 56.9988 44.884 57.0134 44.8402Z" fill="#EEAF1C"/>
<path d="M57.2599 47.8565L57.1727 48.194C57.1183 48.4182 57.0849 48.6441 57.0715 48.8666C57.0434 49.3116 57.0919 49.7361 57.1914 50.1117C57.3869 50.8685 57.789 51.4165 58.129 51.7295C58.4726 52.0475 58.7277 52.1625 58.7225 52.1676C58.726 52.1602 58.4474 52.1329 58.0026 51.899C57.5619 51.668 56.9562 51.1786 56.5488 50.3444C56.344 49.9301 56.1895 49.4402 56.135 48.8911C56.1052 48.6185 56.1011 48.3317 56.1298 48.0352C56.1625 47.7496 56.1924 47.4941 56.2339 47.2021C56.2451 47.1259 56.2626 47.0439 56.2755 46.9631C56.6348 47.2442 56.962 47.5419 57.2599 47.8565Z" fill="#EEAF1C"/>
</g>
<defs>
<clipPath id="clip0_1636_41">
<rect width="60" height="59" fill="white"/>
</clipPath>
</defs>
</svg>
