<svg width="60" height="59" viewBox="0 0 60 59" fill="none" xmlns="http://www.w3.org/2000/svg">
<g clip-path="url(#clip0_1636_2)">
<path d="M7.08321 48.5855C5.92849 49.2205 4.689 50.2164 3.57781 51.5559C3.02454 52.2271 2.50146 52.9838 2.05559 53.8403C1.83324 54.27 1.63178 54.7266 1.4669 55.2136L1.39724 55.4293L1.30609 55.7638C1.25094 55.9875 1.20449 56.2112 1.17256 56.4321C1.11276 56.8692 1.08199 57.2857 1.03613 57.7395L1.046 57.7406C1.5 57.7802 1.90929 57.8267 2.34645 57.8525C2.56822 57.86 2.79638 57.8537 3.02686 57.8319C3.14297 57.8187 3.25676 57.8101 3.37403 57.7928L3.5482 57.7665L3.65677 57.7475C4.18739 57.6437 4.68029 57.4773 5.14241 57.2869C6.0655 56.8979 6.85796 56.3868 7.55114 55.8441C8.93345 54.7484 9.91285 53.5035 10.5689 52.3826C11.2249 51.2593 11.5448 50.2508 11.6922 49.559C11.8374 48.8603 11.8345 48.4702 11.8397 48.4708C11.8269 48.4501 11.384 50.0116 9.78222 51.837C8.99092 52.7411 7.9227 53.7135 6.606 54.5413C5.94997 54.9509 5.22891 55.3267 4.46955 55.5957C4.08928 55.7288 3.69799 55.8372 3.31191 55.8986L3.25038 55.9066L3.2527 55.9049C3.25386 55.9038 3.25212 55.9038 3.25212 55.9026L3.25154 55.8997C3.25154 55.898 3.25328 55.8969 3.25328 55.8969C3.25328 55.8969 3.25212 55.8974 3.25038 55.8974L3.24747 55.8963L3.24573 55.8952L3.27766 55.7816C3.39726 55.3903 3.5453 55.0031 3.71308 54.6262C4.05038 53.869 4.45619 53.1599 4.88348 52.5059C5.74445 51.2014 6.70527 50.1309 7.62603 49.3685C8.54215 48.5998 9.42924 48.1564 10.0893 47.9625C10.7477 47.768 11.1541 47.7789 11.1506 47.7697C11.1506 47.7801 10.7703 47.6464 10.0376 47.6716C9.31081 47.6929 8.24026 47.9395 7.08321 48.5855Z" fill="#EEAF1C"/>
<path d="M11.769 46.9326C11.769 47.8572 13.2146 47.8572 13.2146 46.9326C13.2146 46.0068 11.769 46.0068 11.769 46.9326Z" fill="#EEAF1C"/>
<path d="M8.48509 51.9944C8.48509 50.6995 6.45605 50.6995 6.45605 51.9944C6.45605 53.2887 8.48509 53.2887 8.48509 51.9944Z" fill="#EEAF1C"/>
<path d="M16.7417 41.3035C16.6837 41.3139 16.6012 41.3265 16.578 41.3328C16.5048 41.3489 16.4346 41.3684 16.3626 41.3873C16.2209 41.4252 16.0828 41.4728 15.9487 41.525C15.681 41.6323 15.4296 41.7723 15.2166 41.9467C15.0029 42.1211 14.8363 42.3351 14.737 42.5468C14.5356 42.9863 14.6018 43.3512 14.6563 43.564C14.719 43.7832 14.7812 43.8876 14.7794 43.8893C14.7812 43.8899 14.7951 43.766 14.8537 43.564C14.9089 43.3655 15.0238 43.089 15.2555 42.8979C15.4813 42.7069 15.8169 42.5956 16.2424 42.5336C16.3493 42.5193 16.4607 42.5078 16.5768 42.498L16.7527 42.486C16.7969 42.4826 16.7818 42.4866 16.7899 42.4883L16.7945 42.4946C16.8044 42.5107 16.7916 42.5216 16.7911 42.5221C16.7911 42.5221 16.8044 42.513 16.8166 42.5285C16.8288 42.5061 16.7992 42.6065 16.7852 42.6547L16.7324 42.8285C16.6987 42.941 16.6645 43.0477 16.6256 43.1458C16.4799 43.5508 16.3022 43.8423 16.0537 44.0368C15.8064 44.2307 15.5092 44.3208 15.306 44.3707C15.0964 44.4172 14.971 44.4298 14.9716 44.4315C14.9728 44.4298 15.0784 44.4946 15.2944 44.5635C15.5092 44.63 15.854 44.7144 16.3104 44.6076C16.5356 44.5514 16.7789 44.4372 16.9948 44.268C17.2149 44.0965 17.4088 43.8796 17.5684 43.6398C17.6503 43.5181 17.7217 43.3942 17.7902 43.264C17.8233 43.2014 17.8552 43.1355 17.8877 43.0712C17.9208 42.9949 17.9371 42.9685 17.9951 42.8193C18.1797 42.3236 18.3638 41.782 18.5484 41.2324L18.5618 41.1899C18.0044 41.2066 17.4726 41.2083 16.9397 41.2766L16.7417 41.3035Z" fill="#EEAF1C"/>
<path d="M12.1791 41.6376C12.1576 41.6829 12.1251 41.7466 12.1181 41.7655C12.0937 41.8223 12.0711 41.8814 12.0508 41.9388C12.0095 42.0558 11.9712 42.1746 11.9434 42.2933C11.8876 42.5309 11.8598 42.7741 11.8783 43.0071C11.8987 43.2394 11.9643 43.4609 12.067 43.6353C12.2772 43.9876 12.5663 44.1252 12.7451 44.1901C12.928 44.2566 13.0336 44.2641 13.0331 44.2658C13.0342 44.2652 12.9529 44.193 12.8392 44.0541C12.7277 43.9187 12.5889 43.7018 12.5698 43.4494C12.546 43.1993 12.6331 42.9135 12.8003 42.5888C12.8409 42.5068 12.8891 42.4236 12.9384 42.341L13.018 42.213C13.0354 42.1792 13.0319 42.1941 13.0365 42.1895L13.0429 42.1889C13.0598 42.1906 13.0615 42.205 13.0609 42.2056C13.0609 42.2056 13.0609 42.1924 13.0783 42.1912C13.0685 42.1694 13.1254 42.2406 13.1527 42.2738L13.2496 42.3937C13.31 42.4735 13.3698 42.5486 13.4209 42.6244C13.6339 42.925 13.7518 43.1924 13.7646 43.4591C13.7808 43.7254 13.6978 43.9732 13.6316 44.1402C13.5614 44.3071 13.5103 44.4006 13.5114 44.4012C13.5109 44.4001 13.6084 44.3582 13.7646 44.244C13.9155 44.1281 14.1466 43.9325 14.2935 43.5636C14.366 43.3806 14.4043 43.1585 14.3927 42.9239C14.3817 42.6886 14.3231 42.4477 14.2337 42.2176C14.1866 42.1029 14.1355 41.9904 14.0781 41.8808C14.049 41.8246 14.02 41.7724 13.9898 41.7196C13.9515 41.6576 13.9411 41.6335 13.8644 41.5199C13.6072 41.1482 13.3146 40.7557 13.0191 40.3541L12.9971 40.3254C12.7318 40.7184 12.4717 41.0851 12.2586 41.4884L12.1791 41.6376Z" fill="#EEAF1C"/>
<path d="M15.3624 45.3632C15.2411 45.5101 15.197 45.6024 15.1958 45.6007C15.1964 45.6024 15.2893 45.552 15.4617 45.4883C15.6295 45.424 15.8814 45.3494 16.1502 45.3661C16.4196 45.3799 16.6843 45.4929 16.9775 45.6965C17.0518 45.7458 17.1279 45.7992 17.2039 45.8606L17.3224 45.9524C17.3555 45.9782 17.4246 46.0292 17.4054 46.0206C17.4037 46.0367 17.3903 46.0367 17.3903 46.0367C17.3909 46.0367 17.4054 46.039 17.406 46.0568L17.4054 46.0637C17.4013 46.0677 17.4135 46.0642 17.3822 46.0809L17.251 46.1526C17.1633 46.2013 17.078 46.2438 16.9944 46.2834C16.6646 46.4411 16.372 46.5197 16.1206 46.4951C15.8675 46.4756 15.6544 46.343 15.5203 46.2369C15.3856 46.1291 15.3177 46.0533 15.3171 46.0551C15.3189 46.0545 15.3229 46.152 15.381 46.3281C15.4437 46.4951 15.5697 46.7716 15.9203 46.9706C16.0899 47.0687 16.3105 47.1336 16.5444 47.1525C16.7778 47.1708 17.0234 47.149 17.2643 47.0945C17.3851 47.0687 17.5053 47.0366 17.6249 46.9947C17.6829 46.9752 17.7439 46.9546 17.8013 46.9322C17.8211 46.9253 17.8861 46.8972 17.9325 46.8748L18.0847 46.8048C18.4974 46.6023 18.8748 46.358 19.2794 46.1113L19.251 46.0906C18.8591 45.809 18.4736 45.5296 18.1073 45.2846C17.9958 45.2112 17.9691 45.1986 17.9111 45.1647C17.8577 45.1355 17.8042 45.1079 17.7514 45.0793C17.6428 45.0248 17.5314 44.9754 17.417 44.9312C17.1889 44.8469 16.9479 44.7878 16.7122 44.7758C16.4759 44.7637 16.2489 44.7987 16.0649 44.867C15.6881 45.0024 15.4838 45.2204 15.3624 45.3632Z" fill="#EEAF1C"/>
<path d="M5.08529 36.8569L4.93318 37.0077L4.81417 37.1362C4.39501 37.5946 4.03274 38.077 3.73549 38.5675C3.13287 39.5485 2.79963 40.5582 2.70442 41.4158C2.60341 42.2763 2.72532 42.9635 2.8513 43.407C2.97787 43.851 3.10211 44.0713 3.09746 44.073C3.10152 44.073 3.09049 43.82 3.141 43.38C3.18745 42.9446 3.30762 42.3268 3.60777 41.6424C3.90095 40.958 4.37585 40.2151 5.02201 39.4837C5.3448 39.1171 5.70939 38.7528 6.10475 38.3949C6.13726 38.365 6.13726 38.3673 6.13842 38.3685L6.14539 38.369C6.14945 38.369 6.15467 38.3702 6.15932 38.3713C6.16571 38.3736 6.16977 38.3771 6.17209 38.3811C6.17674 38.3885 6.17499 38.3977 6.17383 38.4017L6.17267 38.404C6.17267 38.404 6.17557 38.3983 6.18254 38.3972C6.18602 38.3966 6.19067 38.3972 6.19589 38.4C6.20054 38.3822 6.21563 38.5836 6.22202 38.6966C6.25279 39.2209 6.23363 39.7206 6.16164 40.1858C6.01766 41.1169 5.63159 41.8954 5.14334 42.4771C4.65858 43.0622 4.11402 43.4494 3.72737 43.7001C3.33375 43.9491 3.0963 44.0707 3.09804 44.073C3.09746 44.0696 3.36394 44.0656 3.83825 43.9749C4.30792 43.8803 5.01214 43.6978 5.7808 43.1873C6.54887 42.6899 7.34017 41.7783 7.72915 40.5822C7.9306 39.9891 8.04091 39.3437 8.06006 38.6788C8.06355 38.4981 8.06877 38.3994 8.05136 38.0793C8.03394 37.7833 7.99969 37.4833 7.95092 37.1942C7.90389 36.9062 7.84177 36.6211 7.7692 36.3589L7.53234 35.5954L7.36572 35.0728C6.9094 35.3946 6.48501 35.6722 6.04437 36.0096C5.82434 36.1834 5.60605 36.3681 5.39414 36.5626C5.28848 36.6601 5.18689 36.7559 5.08529 36.8569Z" fill="#EEAF1C"/>
<path d="M5.45682 41.3484C5.26002 40.4451 3.84578 40.7464 4.0391 41.6486C4.23533 42.5519 5.65015 42.2529 5.45682 41.3484Z" fill="#EEAF1C"/>
<path d="M2.88428 33.7496C2.88428 34.6748 4.33335 34.6748 4.33335 33.7496C4.33335 32.8279 2.88428 32.8279 2.88428 33.7496Z" fill="#EEAF1C"/>
<path d="M8.84741 31.4336C8.84741 30.1393 6.81836 30.1393 6.81836 31.4336C6.81894 32.7285 8.84741 32.7285 8.84741 31.4336Z" fill="#EEAF1C"/>
<path d="M6.21301 27.3456C6.21417 27.3364 5.04783 27.4328 4.49398 27.5917C3.60515 27.9009 2.66697 28.3088 1.95927 28.8956C1.7044 29.1297 1.47799 29.3838 1.29163 29.6552C0.81383 30.3384 0.593219 31.1071 0.56303 31.7984C0.528196 32.4914 0.637341 33.1224 0.852728 33.6662C1.06753 34.2066 1.40193 34.638 1.76246 34.9317C2.50731 35.5278 3.26088 35.584 3.705 35.5725C4.16597 35.549 4.3889 35.4733 4.39006 35.479C4.39006 35.4733 4.15029 35.5238 3.68933 35.4911C3.2452 35.4521 2.52415 35.296 1.92734 34.669C1.32878 34.0609 1.00309 32.9623 1.21848 31.7559C1.32704 31.1622 1.5941 30.5621 2.05274 30.0642C2.13053 29.9758 2.22226 29.8955 2.31225 29.8164C2.31515 29.825 3.86988 28.5279 6.01272 28.6811C6.0522 28.6828 7.54481 28.5038 8.56833 29.5989C9.33409 30.4164 11.1547 31.7588 11.0409 36.5879C10.9434 36.6464 10.847 36.7095 10.7524 36.7795C10.6757 36.8357 10.5968 36.8988 10.5219 36.9631C10.4627 37.0182 10.4098 37.0664 10.3582 37.1168C10.3547 36.9872 10.3477 36.857 10.3361 36.7279C10.2717 36.0992 10.0632 35.553 9.78576 35.0677C9.50883 34.5864 9.14831 34.1734 8.72508 33.8877C8.30824 33.5922 7.78226 33.4723 7.44902 33.5177C7.11636 33.5544 6.98399 33.6473 6.98167 33.6381C6.97818 33.645 7.16396 33.6238 7.41244 33.6932C7.6615 33.7609 7.84786 33.9881 8.08821 34.2456C8.6827 34.875 9.08038 36.0143 9.11696 37.7289L8.97298 39.6479C8.95324 39.7396 8.93873 39.8291 8.9277 39.9129C8.84119 40.6581 8.66238 41.8553 8.65774 41.8525C8.66122 41.8525 9.23829 40.6581 9.6801 40.0351C9.98141 39.614 10.3796 39.0937 10.8511 38.5533C10.6722 39.4402 10.3529 40.2967 9.9338 41.1067C9.66907 41.6173 9.49954 42.2449 9.19591 42.7652C10.5852 41.0895 11.4514 39.2727 11.8879 37.4874C11.9727 37.4192 12.0656 37.3486 12.1614 37.2832C12.3785 37.1329 12.6061 36.9935 12.8337 36.8759C13.2923 36.6396 13.7411 36.4875 14.1196 36.456C14.4993 36.4175 14.8267 36.5191 15.0276 36.6321C15.2331 36.7451 15.3306 36.8369 15.333 36.834C15.3289 36.8352 15.3312 36.7204 15.2285 36.522C15.1327 36.3344 14.8586 36.024 14.2705 35.8944C13.6935 35.7624 12.9573 35.8307 12.2676 36.0395C12.2241 36.0544 12.1846 36.0688 12.144 36.0825C12.1759 35.8158 12.1997 35.5479 12.213 35.2851C12.5544 28.665 7.23944 27.349 6.21301 27.3456Z" fill="#EEAF1C"/>
<path d="M3.09394 21.0295C3.58916 19.2184 3.8179 17.0987 3.56651 14.9274C3.53923 14.6733 3.50614 14.4231 3.4655 14.1753C3.58567 14.3526 3.70236 14.5459 3.80745 14.765C4.08553 15.337 4.29105 16.0426 4.39729 16.8589C4.60861 18.4881 4.44141 20.5499 3.79583 22.7809C3.63676 23.3448 3.42776 23.8783 3.19496 24.503C2.96912 25.1163 2.75083 25.7582 2.55925 26.4449C2.39959 27.045 2.24807 27.6697 2.19292 28.3816C2.76128 28.0202 3.35809 27.7207 3.98161 27.5027C4.01703 27.2463 4.05825 26.9916 4.10934 26.7415C4.23822 26.0961 4.39961 25.4662 4.57204 24.853C4.74505 24.2501 4.92792 23.5909 5.04055 22.9822C5.5079 20.5264 5.44404 18.355 5.01733 16.6593C4.80136 15.8097 4.4896 15.0874 4.11921 14.5264C3.88234 14.1638 3.62631 13.8747 3.37551 13.6401C3.07014 11.973 2.58189 10.4373 2.20569 9.03698C1.96766 8.15984 1.77666 7.32515 1.66403 6.53636C1.54908 5.747 1.51308 5.00467 1.54501 4.3243C1.60365 2.96528 1.90206 1.87589 2.13486 1.13873C2.37289 0.40042 2.5488 0.000573667 2.54473 0C2.54822 0.00114733 2.31483 0.367147 1.97811 1.07735C1.65184 1.78755 1.2141 2.86088 1.01322 4.27783C0.916267 4.98459 0.880853 5.77109 0.94007 6.60922C0.993481 7.44792 1.13688 8.33251 1.33195 9.24407C1.57869 10.4029 1.89741 11.6024 2.15344 12.849C2.1395 12.8433 2.12325 12.8381 2.10932 12.8324C2.11628 12.8553 2.12093 12.8788 2.12731 12.9023C2.14241 12.9104 2.1546 12.9167 2.16795 12.9276C2.30787 13.616 2.42978 14.321 2.50874 15.0415C2.74328 17.0941 2.5964 19.0652 2.21846 20.8247C1.84632 22.5899 1.3186 24.1709 1.0138 25.5454C0.696816 26.9199 0.605088 28.0672 0.619021 28.8514C0.631794 29.6351 0.707266 30.063 0.703202 30.063C0.72178 30.0722 0.631213 28.3007 1.52992 25.6842C1.95257 24.3757 2.60453 22.8463 3.09394 21.0295Z" fill="#EEAF1C"/>
<path d="M6.03339 20.107C6.18085 20.3869 6.28825 20.7678 6.31089 21.2227C6.33528 21.68 6.28128 22.2135 6.16169 22.8061C5.93121 23.997 5.40871 25.4002 4.9669 27.1573C4.96342 27.1717 4.9611 27.1866 4.95703 27.2015C5.15558 27.1527 5.36052 27.1097 5.5701 27.0828C5.57417 27.0822 5.57707 27.0799 5.58113 27.0799C5.59739 27.0776 5.61364 27.0787 5.6299 27.0776C5.82961 27.0541 6.0299 27.0403 6.23774 27.0403C6.24355 27.0403 6.24761 27.0426 6.25342 27.0437C6.47229 25.4484 6.77069 24.024 6.81133 22.8216C6.83746 22.1848 6.80379 21.6134 6.69 21.1287C6.57969 20.6439 6.38404 20.255 6.17853 19.9911C5.96894 19.7255 5.76111 19.574 5.62177 19.4828C5.4807 19.3916 5.40174 19.3583 5.40232 19.3572C5.40116 19.3583 5.47489 19.4082 5.59739 19.5241C5.71756 19.6377 5.88767 19.8259 6.03339 20.107Z" fill="#EEAF1C"/>
<path d="M5.77447 32.0047C6.06939 32.2508 6.39102 32.431 6.72426 32.571C6.32077 32.3575 6.02121 31.9553 6.02121 31.3638C6.02121 30.8905 6.21337 30.5388 6.4961 30.3076C6.40496 30.1728 6.32948 30.0127 6.27085 29.8314C6.1977 29.591 6.15938 29.3225 6.1379 29.0425C5.45749 28.9186 4.5791 29.1785 4.5791 29.1785C4.77707 29.9588 5.20436 31.5337 5.77447 32.0047Z" fill="#EEAF1C"/>
<path d="M2.51427 30.2472C2.69946 30.5564 2.98684 30.806 3.32763 30.9437C3.49947 31.0154 3.68177 31.0544 3.86987 31.0716C4.06145 31.0911 4.41791 31.0843 4.74767 31.4342L4.11022 29.2202C4.05971 29.2277 2.83415 29.7589 2.45215 30.1439C2.4713 30.1801 2.49104 30.2145 2.51427 30.2472Z" fill="#EEAF1C"/>
<path d="M11.0267 24.2949C11.0278 24.3018 11.0342 24.2892 11.0284 24.3253L11.0127 24.4768C11.0017 24.5772 10.9889 24.673 10.9738 24.7654C10.9123 25.1326 10.8055 25.4177 10.629 25.6093C10.4583 25.8027 10.2104 25.8962 10.0333 25.9421C9.85622 25.9857 9.74534 25.9949 9.7465 25.996C9.74766 25.9949 9.83823 26.0534 10.0287 26.1096C10.2156 26.1613 10.5349 26.2278 10.928 26.0654C11.1178 25.984 11.31 25.8446 11.4673 25.6638C11.6258 25.4854 11.7553 25.2703 11.8563 25.0413C11.908 24.9266 11.9509 24.8078 11.9875 24.6856C12.009 24.626 12.0258 24.5634 12.0409 24.5032C12.0473 24.4808 12.0601 24.4114 12.0699 24.3603L12.099 24.1916C12.1721 23.7321 12.1849 23.2737 12.2133 22.7917L12.1768 22.8049C11.6868 22.9524 11.2055 23.097 10.7631 23.2456C10.629 23.2932 10.6058 23.3064 10.5378 23.3333C10.4804 23.358 10.4235 23.3833 10.3648 23.4131C10.2499 23.4665 10.1373 23.5284 10.0293 23.5938C9.81617 23.7269 9.61761 23.8899 9.46377 24.074C9.30644 24.2599 9.20136 24.4659 9.14736 24.6592C9.03938 25.0494 9.11021 25.35 9.1613 25.5353C9.22051 25.7258 9.27218 25.8187 9.27044 25.8199C9.27218 25.8199 9.2867 25.712 9.33488 25.5313C9.38075 25.3569 9.46783 25.1039 9.64432 24.895C9.82255 24.6833 10.0844 24.5365 10.4432 24.4194C10.5309 24.3907 10.6261 24.3632 10.7265 24.3345L10.8792 24.2955C10.9251 24.2846 11.011 24.2616 10.9913 24.2714C11.004 24.2829 10.9959 24.2938 10.9959 24.2938C10.9965 24.2932 11.0063 24.2829 11.0209 24.2921L11.0267 24.2949Z" fill="#EEAF1C"/>
<path d="M9.55319 27.6658C9.43418 27.5643 9.3738 27.4937 9.3738 27.4954C9.37554 27.4949 9.37902 27.5844 9.43127 27.7467C9.48759 27.9005 9.59963 28.1535 9.90617 28.3428C10.0595 28.4346 10.2505 28.4983 10.456 28.519C10.6586 28.5402 10.874 28.5241 11.0865 28.4811C11.1921 28.4593 11.2978 28.4295 11.4029 28.3962C11.454 28.3795 11.5039 28.3612 11.5573 28.3388C11.5741 28.3331 11.6293 28.3084 11.6717 28.2912L11.8052 28.2292C12.1646 28.0514 12.4938 27.8345 12.8456 27.6159L12.8206 27.5964C12.4746 27.3319 12.1373 27.072 11.8133 26.8408C11.7146 26.7708 11.6932 26.7599 11.6421 26.7278C11.5945 26.7008 11.5486 26.6744 11.4993 26.6463C11.4058 26.5947 11.3077 26.5482 11.2072 26.5057C11.0064 26.4243 10.7968 26.3663 10.5895 26.3514C10.3817 26.3359 10.1855 26.3635 10.0212 26.4231C9.69485 26.5413 9.51603 26.7347 9.40979 26.8632C9.30413 26.9951 9.26639 27.0789 9.26465 27.0783C9.26523 27.0795 9.34941 27.037 9.49804 26.9796C9.64492 26.9263 9.86611 26.8597 10.1013 26.8792C10.3364 26.8999 10.5704 27.0055 10.8287 27.1965C10.892 27.243 10.9593 27.2963 11.0261 27.3503L11.1312 27.4363C11.1625 27.461 11.2212 27.5115 11.2055 27.5029C11.2038 27.5172 11.1916 27.5178 11.1916 27.5178C11.1921 27.5172 11.2043 27.5201 11.2055 27.5339V27.5396C11.2009 27.5436 11.2119 27.5408 11.1846 27.5551L11.0696 27.6211C10.9924 27.6618 10.9204 27.6985 10.8467 27.7341C10.5582 27.8729 10.3039 27.9389 10.0833 27.9131C9.85972 27.8907 9.67046 27.7657 9.55319 27.6658Z" fill="#EEAF1C"/>
<path d="M7.89069 22.0598C7.66311 22.4046 7.43901 22.7253 7.25149 23.0759L7.18415 23.2056C7.16557 23.2446 7.13945 23.3014 7.1319 23.3174C7.10926 23.3668 7.08952 23.419 7.07094 23.4695C7.03437 23.5716 6.99953 23.6754 6.97399 23.7793C6.9229 23.9847 6.89793 24.197 6.90955 24.3989C6.92 24.5991 6.97109 24.7913 7.05352 24.9405C7.22072 25.2492 7.46108 25.3639 7.6068 25.4196C7.76238 25.4764 7.84715 25.4821 7.84715 25.4838C7.84831 25.4827 7.78386 25.4207 7.69098 25.3014C7.59925 25.1832 7.4872 24.9985 7.47559 24.7781C7.45991 24.5601 7.53829 24.3111 7.68343 24.0294C7.72 23.9577 7.7618 23.8871 7.80418 23.8126L7.87269 23.7007C7.88837 23.6743 7.8843 23.6852 7.88837 23.6812L7.89417 23.6806C7.90752 23.6812 7.90869 23.6938 7.9081 23.6944C7.9081 23.6944 7.90869 23.6829 7.9232 23.6812C7.91565 23.6651 7.95919 23.7236 7.98358 23.7529L8.06079 23.8573C8.11304 23.9267 8.15832 23.9916 8.20012 24.057C8.37371 24.3151 8.46544 24.5475 8.47415 24.7799C8.48286 25.0111 8.40796 25.2285 8.34875 25.372C8.28779 25.5165 8.24309 25.5992 8.24425 25.5997C8.24367 25.5986 8.3232 25.559 8.45615 25.4603C8.58445 25.3588 8.78184 25.1855 8.91189 24.8671C8.97633 24.7064 9.0129 24.5137 9.0071 24.3088C9.00187 24.1034 8.95659 23.8969 8.88634 23.6978C8.85209 23.598 8.80855 23.4999 8.76385 23.4069C8.74178 23.3582 8.71798 23.3123 8.69128 23.2641C8.66283 23.213 8.6547 23.1924 8.59084 23.0942C8.38358 22.7712 8.14787 22.4316 7.90752 22.0885L7.89069 22.0598Z" fill="#EEAF1C"/>
<path d="M8.96811 26.5875C8.96811 25.6629 7.51904 25.6629 7.51904 26.5875C7.51962 27.5126 8.96811 27.5126 8.96811 26.5875Z" fill="#EEAF1C"/>
<path d="M0.936794 52.0356C1.03317 51.1671 1.29732 50.162 1.85175 49.196C2.10139 48.7537 2.41605 48.3223 2.78006 47.9138C3.0657 47.5908 3.38675 47.2839 3.73682 46.9925C3.91621 46.8433 4.10257 46.6982 4.29706 46.56C4.82711 46.1859 5.3798 45.8693 5.93887 45.6186C6.49098 45.3673 7.06283 45.186 7.62597 45.0449C8.74703 44.7655 9.80248 44.6623 10.6873 44.6932C11.572 44.7231 12.2838 44.898 12.7564 45.081C13.2318 45.2594 13.4716 45.4247 13.4745 45.4184C13.4693 45.4241 13.2899 45.1952 12.8539 44.894C12.4254 44.59 11.7195 44.232 10.7749 44.0266C9.83674 43.8173 8.67214 43.7484 7.40478 43.9297C6.77371 44.0215 6.10259 44.1706 5.43611 44.4288C4.77021 44.6835 4.11883 45.0294 3.50518 45.466C3.45467 45.4998 3.40997 45.5365 3.36294 45.5738C2.98906 45.8486 2.64305 46.1498 2.32839 46.4745C1.6741 47.1531 1.15799 47.915 0.822424 48.694C0.291214 49.8907 0.184392 51.0793 0.254639 52.0247C0.326628 52.977 0.554207 53.7061 0.727213 54.1932C0.906024 54.6796 1.04071 54.9321 1.03665 54.9332C1.04013 54.9332 0.987302 54.6521 0.935052 54.1467C0.885705 53.643 0.836358 52.9076 0.936794 52.0356Z" fill="#EEAF1C"/>
<path d="M3.05353 45.2026C2.83641 44.5991 2.57167 44.0071 2.28488 43.4151C2.14148 43.1173 1.99286 42.8305 1.84597 42.5471C1.76818 42.3985 1.70664 42.2838 1.65033 42.1599C1.58995 42.0365 1.53944 41.9109 1.49067 41.7847C1.30083 41.2793 1.19227 40.7567 1.15105 40.249C1.07209 39.2365 1.27529 38.2991 1.64104 37.6061C2.00214 36.9085 2.52639 36.4674 2.92929 36.235C3.3351 35.9998 3.60622 35.9339 3.60216 35.9287C3.60332 35.935 3.32872 35.9115 2.84511 36.04C2.36906 36.1674 1.66484 36.5035 1.07558 37.2344C0.48631 37.9532 0.0462475 39.03 0.00386681 40.2685C-0.0181943 40.8846 0.0526336 41.5397 0.255248 42.1943C0.305757 42.3566 0.363232 42.519 0.431737 42.6825C0.496179 42.8431 0.578038 43.0072 0.641319 43.1409L1.05932 43.9973C1.33915 44.5744 1.60969 45.1326 1.83901 45.6667C1.92319 45.8606 1.99576 46.0511 2.06717 46.2387C2.38125 45.9151 2.72494 45.6139 3.09824 45.338C3.08198 45.2921 3.06921 45.2474 3.05353 45.2026Z" fill="#EEAF1C"/>
<path d="M2.87942 48.2499L2.97056 48.5878C3.0321 48.8127 3.06752 49.0399 3.08609 49.2636C3.12673 49.7111 3.08493 50.1396 2.99843 50.5211C2.82136 51.2881 2.43471 51.8491 2.10437 52.1715C1.77345 52.4996 1.52149 52.6213 1.52846 52.6259C1.5244 52.619 1.79784 52.5851 2.23384 52.3402C2.66577 52.0981 3.25562 51.5915 3.64053 50.7391C3.83153 50.3203 3.97667 49.8223 4.01789 49.2688C4.03879 48.994 4.03647 48.7043 4.00221 48.406C3.96564 48.1191 3.9279 47.8615 3.87972 47.5684C3.86694 47.4915 3.85069 47.4095 3.83327 47.3286C3.4861 47.6195 3.16505 47.9264 2.87942 48.2499Z" fill="#EEAF1C"/>
<path d="M22.6903 53.7452L22.5417 53.8995L22.4175 54.0211C21.9606 54.4439 21.4805 54.8127 20.9916 55.1202C20.0169 55.7375 19.0026 56.0897 18.1382 56.2027C17.2703 56.3209 16.573 56.2159 16.1225 56.1012C15.6714 55.9848 15.445 55.8677 15.4438 55.8723C15.4432 55.8677 15.6999 55.8735 16.1405 55.8167C16.5823 55.7582 17.2047 55.6262 17.8891 55.3147C18.5724 55.0095 19.3127 54.5236 20.0372 53.8656C20.4006 53.5409 20.7611 53.1726 21.1147 52.7705C21.1443 52.7372 21.1414 52.7378 21.1403 52.7366V52.7298C21.1397 52.7257 21.1385 52.7223 21.1379 52.7189C21.1356 52.7131 21.1321 52.7091 21.1281 52.7068C21.1205 52.7022 21.1112 52.7039 21.1066 52.7057L21.1043 52.7068C21.1043 52.7068 21.1101 52.704 21.1112 52.6971C21.1112 52.6936 21.1106 52.689 21.1077 52.6844C21.1252 52.6793 20.9243 52.6661 20.8082 52.6621C20.277 52.6431 19.7719 52.6753 19.3045 52.7573C18.3687 52.9196 17.5878 53.3189 17.0137 53.814C16.4325 54.3068 16.0534 54.8569 15.8084 55.2441C15.5652 55.636 15.4473 55.874 15.445 55.8723C15.4479 55.8723 15.4467 55.6119 15.5257 55.1392C15.6133 54.6711 15.78 53.9706 16.2822 53.1996C16.7675 52.4292 17.6691 51.6272 18.8697 51.213C19.4642 51.0036 20.1144 50.8803 20.7861 50.8441C20.969 50.8367 21.0688 50.8298 21.3905 50.8395C21.6924 50.851 21.9931 50.8803 22.2892 50.9198C22.5818 50.9594 22.8715 51.0145 23.1374 51.081L23.9153 51.2985L24.4471 51.4488C24.1319 51.9094 23.8596 52.3357 23.5287 52.7785C23.3603 53 23.1763 53.2202 22.9864 53.4342C22.8883 53.5404 22.7908 53.6453 22.6903 53.7452Z" fill="#EEAF1C"/>
<path d="M18.1439 53.4794C19.0601 53.6545 18.7895 55.06 17.8734 54.8884C16.9544 54.7145 17.2249 53.3072 18.1439 53.4794Z" fill="#EEAF1C"/>
<path d="M25.879 55.8534C24.9472 55.8741 24.913 54.4405 25.8471 54.4204C26.7824 54.4003 26.8143 55.8334 25.879 55.8534Z" fill="#EEAF1C"/>
<path d="M28.0865 49.9056C29.3945 49.8741 29.4421 51.881 28.1341 51.9091C26.8255 51.9378 26.7814 49.9338 28.0865 49.9056Z" fill="#EEAF1C"/>
<path d="M32.2793 52.4159C32.2885 52.4148 32.2166 53.5701 32.0685 54.1243C31.7782 55.0112 31.384 55.9468 30.8087 56.6599C30.5776 56.9175 30.3257 57.1469 30.0557 57.3368C29.3759 57.8244 28.6049 58.0591 27.9053 58.1072C27.2052 58.1537 26.5654 58.0602 26.011 57.8617C25.4606 57.6615 25.0171 57.3391 24.7117 56.9874C24.0928 56.2669 24.0203 55.5229 24.0214 55.0812C24.0324 54.6262 24.1073 54.4037 24.1009 54.4031C24.1073 54.4025 24.0586 54.6406 24.1044 55.0961C24.1538 55.5344 24.3268 56.244 24.9735 56.8199C25.6011 57.3988 26.7181 57.6942 27.9332 57.4538C28.5312 57.3339 29.1309 57.0569 29.6249 56.5922C29.712 56.5107 29.7892 56.4207 29.8694 56.3295C29.8607 56.3272 31.1344 54.7616 30.9329 52.6419C30.9306 52.6064 31.0781 51.1257 29.9495 50.1361C29.1065 49.3984 27.7074 47.6298 22.8289 47.8484C22.7721 47.9465 22.7099 48.0434 22.6443 48.1381C22.5863 48.2178 22.5271 48.2947 22.4609 48.371C22.4092 48.4301 22.3593 48.484 22.3088 48.5356C22.44 48.5362 22.5718 48.5402 22.703 48.5488C23.3404 48.5987 23.8966 48.7932 24.393 49.0542C24.8859 49.3204 25.3132 49.6675 25.6116 50.0799C25.9193 50.4826 26.0522 51.003 26.0127 51.3305C25.9837 51.6609 25.8931 51.7929 25.9013 51.7958C25.8949 51.7992 25.9134 51.6179 25.8374 51.3735C25.7631 51.1286 25.5268 50.9467 25.2638 50.715C24.6142 50.1436 23.4513 49.7742 21.7172 49.777L19.781 49.9646C19.6916 49.983 19.6016 49.999 19.5163 50.0122C18.765 50.1166 17.5592 50.3197 17.5616 50.3243C17.5616 50.3209 18.7563 49.7243 19.3758 49.2705C19.7921 48.9664 20.3122 48.558 20.8452 48.0807C19.9552 48.2792 19.0965 48.6136 18.2849 49.0456C17.7775 49.3192 17.1465 49.5011 16.6245 49.8126C18.2878 48.4019 20.1056 47.5059 21.8995 47.0349C21.9668 46.9471 22.0365 46.8536 22.1003 46.7572C22.2501 46.5421 22.3837 46.3109 22.498 46.0832C22.7233 45.6254 22.8702 45.1774 22.894 44.8028C22.9247 44.4259 22.8115 44.1046 22.6931 43.9084C22.5747 43.7076 22.4795 43.6124 22.4824 43.6101C22.4818 43.6147 22.5967 43.6095 22.7999 43.7071C22.995 43.7977 23.3108 44.0616 23.4554 44.6404C23.604 45.2078 23.5512 45.9375 23.3555 46.6242C23.3433 46.6672 23.3276 46.7073 23.3155 46.7469C23.5854 46.7102 23.8542 46.6804 24.1195 46.6614C30.8041 46.1767 32.2531 51.4005 32.2793 52.4159Z" fill="#EEAF1C"/>
<path d="M38.7346 55.3583C40.5541 54.826 42.6888 54.5535 44.8897 54.7542C45.1469 54.7755 45.4006 54.803 45.6543 54.8346C45.4702 54.7221 45.2723 54.6108 45.0505 54.5122C44.4665 54.2517 43.746 54.0613 42.9181 53.9741C41.2693 53.8037 39.188 54.0142 36.9453 54.7015C36.3787 54.8741 35.8446 55.0921 35.2211 55.3359C34.6063 55.5729 33.9619 55.8046 33.2727 56.0071C32.669 56.181 32.0414 56.3416 31.3232 56.415C31.6756 55.8454 31.963 55.2482 32.1726 54.6269C32.428 54.5839 32.6846 54.5374 32.936 54.484C33.588 54.3395 34.2214 54.1657 34.8379 53.9821C35.4434 53.7979 36.103 53.6 36.7149 53.4755C39.188 52.9598 41.3849 52.9747 43.1097 53.3568C43.9701 53.5513 44.708 53.8444 45.2856 54.1984C45.6572 54.4244 45.9521 54.6711 46.1942 54.9149C47.8894 55.1776 49.4517 55.6262 50.8723 55.9676C51.7675 56.1838 52.6152 56.3542 53.414 56.4489C54.2152 56.5452 54.9664 56.5613 55.6526 56.5154C57.0257 56.4282 58.1206 56.1092 58.8602 55.8626C59.601 55.6096 59.9987 55.426 59.9993 55.4295C59.9975 55.4266 59.6335 55.6658 58.9223 56.014C58.2146 56.3554 57.14 56.8114 55.7113 57.0415C54.9995 57.1556 54.2053 57.2044 53.3565 57.1677C52.5078 57.1332 51.6079 57.0093 50.6854 56.8378C49.5086 56.6192 48.2883 56.333 47.0232 56.107C47.029 56.1207 47.0348 56.1339 47.0412 56.1477C47.0174 56.1414 46.9936 56.1368 46.9669 56.1316C46.9588 56.119 46.9524 56.107 46.9431 56.0943C46.2418 55.971 45.5283 55.866 44.7985 55.8046C42.7172 55.6176 40.7306 55.8069 38.9605 56.2194C37.1845 56.6261 35.5973 57.1854 34.215 57.5176C32.8327 57.8641 31.675 57.9788 30.882 57.9828C30.0895 57.9869 29.6559 57.922 29.6553 57.9266C29.646 57.9083 31.4382 57.9559 34.0606 57.0128C35.3778 56.5636 36.9088 55.8827 38.7346 55.3583Z" fill="#EEAF1C"/>
<path d="M39.6002 52.432C39.314 52.292 38.9262 52.1962 38.4664 52.1813C38.0037 52.1675 37.4655 52.2352 36.8699 52.3666C35.6716 52.6208 34.2643 53.1681 32.5006 53.6466C32.4849 53.6501 32.4681 53.6535 32.4536 53.6569C32.5018 53.4567 32.5378 53.2536 32.5598 53.0482C32.5604 53.0442 32.5622 53.0413 32.5627 53.0373C32.5639 53.0178 32.5627 53.0023 32.5639 52.9863C32.5831 52.7912 32.5923 52.5904 32.5883 52.3844C32.5883 52.3787 32.586 52.3747 32.5848 52.3695C34.1912 52.1176 35.6258 51.7918 36.8403 51.7246C37.4812 51.6822 38.0618 51.7028 38.5541 51.8049C39.0464 51.9031 39.4435 52.0889 39.7152 52.2863C39.9886 52.4877 40.146 52.6896 40.2412 52.8256C40.3358 52.9627 40.3718 53.0402 40.373 53.0402C40.3718 53.0408 40.3201 52.969 40.2005 52.8509C40.0804 52.7338 39.8876 52.5697 39.6002 52.432Z" fill="#EEAF1C"/>
<path d="M27.5807 52.9547C27.3252 52.6679 27.136 52.354 26.9873 52.0276C27.212 52.4223 27.626 52.7098 28.2251 52.6971C28.7012 52.6868 29.0524 52.4889 29.28 52.2043C29.4181 52.2909 29.5813 52.3621 29.7659 52.4137C30.0103 52.4837 30.2832 52.5158 30.5659 52.5279C30.7058 53.2009 30.4637 54.0752 30.4637 54.0752C29.6695 53.8957 28.0689 53.509 27.5807 52.9547Z" fill="#EEAF1C"/>
<path d="M29.4275 56.1403C29.1134 55.9636 28.8557 55.6859 28.7088 55.3509C28.6321 55.1828 28.5892 55.0026 28.5642 54.8173C28.541 54.628 28.5398 54.2757 28.1787 53.9573L30.4342 54.539C30.4278 54.5867 29.9152 55.8127 29.5355 56.1988C29.4995 56.181 29.4641 56.1615 29.4275 56.1403Z" fill="#EEAF1C"/>
<path d="M35.2545 47.5857C35.2481 47.5851 35.2603 47.5804 35.2243 47.585L35.0716 47.6035C34.97 47.619 34.8736 47.6339 34.7802 47.6511C34.4109 47.7194 34.1247 47.8318 33.9349 48.0103C33.7433 48.1835 33.6545 48.4301 33.6144 48.6063C33.572 48.7824 33.5651 48.892 33.5633 48.8914C33.5651 48.8903 33.5064 48.8014 33.4426 48.615C33.3863 48.4314 33.3119 48.1169 33.4704 47.7244C33.5453 47.5351 33.6823 47.3419 33.8617 47.1824C34.0382 47.0217 34.2524 46.8868 34.4818 46.7841C34.5967 46.7307 34.7157 46.6861 34.8382 46.6436C34.898 46.6241 34.9607 46.6063 35.0217 46.5903C35.0432 46.5834 35.1134 46.5691 35.1645 46.5582L35.3352 46.5237C35.7979 46.4434 36.2583 46.4205 36.7448 46.3792L36.7349 46.4175C36.5967 46.9052 36.4609 47.3843 36.321 47.8227C36.2792 47.9558 36.2658 47.9827 36.2374 48.0476C36.2136 48.1078 36.1892 48.1639 36.1636 48.223C36.1091 48.3366 36.0516 48.4486 35.9848 48.5559C35.8548 48.7722 35.6975 48.9724 35.5123 49.1285C35.3305 49.2857 35.1227 49.3952 34.9311 49.4538C34.5363 49.5697 34.2333 49.5065 34.0429 49.46C33.8519 49.4055 33.7567 49.3562 33.7555 49.358C33.7549 49.3562 33.8646 49.3395 34.0423 49.2879C34.2211 49.2391 34.4742 49.1467 34.6821 48.9683C34.8893 48.787 35.0321 48.5249 35.1424 48.1669C35.172 48.0774 35.1976 47.985 35.222 47.8852L35.2586 47.7332C35.2684 47.6878 35.2928 47.5994 35.2806 47.6217C35.269 47.6068 35.258 47.6178 35.258 47.6178C35.2586 47.6167 35.269 47.6041 35.2597 47.5909L35.2545 47.5857Z" fill="#EEAF1C"/>
<path d="M31.8827 49.1194C31.9849 49.2359 32.0592 49.2933 32.0581 49.2939C32.0581 49.2921 31.9658 49.2904 31.8032 49.2422C31.6465 49.1929 31.3864 49.0873 31.189 48.7855C31.0914 48.6392 31.0247 48.4493 30.9974 48.2485C30.9713 48.0454 30.9829 47.832 31.0229 47.6249C31.0433 47.5199 31.0688 47.4143 31.1002 47.3105C31.1158 47.26 31.1327 47.2066 31.1541 47.1561C31.1594 47.1395 31.1832 47.0816 31.1994 47.042L31.2598 46.9083C31.4311 46.5491 31.6436 46.2181 31.8537 45.8635L31.8764 45.8876C32.1521 46.2244 32.4215 46.5549 32.6624 46.867C32.7367 46.9634 32.7472 46.9846 32.7803 47.0362C32.8087 47.081 32.8366 47.1257 32.8662 47.1739C32.9196 47.268 32.9707 47.361 33.0148 47.4596C33.1037 47.6564 33.1646 47.8658 33.1844 48.0678C33.2047 48.2726 33.1809 48.4706 33.1275 48.6318C33.0148 48.9594 32.8203 49.1378 32.6932 49.2457C32.562 49.353 32.4778 49.392 32.479 49.3931C32.4767 49.3931 32.5208 49.3116 32.573 49.1602C32.6264 49.0144 32.6862 48.7941 32.6607 48.5618C32.6381 48.3294 32.5237 48.1034 32.324 47.8492C32.2764 47.7872 32.2206 47.7218 32.1643 47.657L32.0743 47.5555C32.0494 47.5279 31.9994 47.4682 32.0087 47.4837C31.9919 47.4855 31.9919 47.5004 31.9919 47.5004C31.9925 47.4998 31.9896 47.4843 31.9751 47.4843L31.9693 47.4855C31.9652 47.4923 31.9681 47.4786 31.9542 47.5084L31.8932 47.6237C31.8514 47.6977 31.8154 47.7729 31.7829 47.8435C31.6505 48.1343 31.5867 48.3874 31.618 48.6054C31.6488 48.824 31.7788 49.0053 31.8827 49.1194Z" fill="#EEAF1C"/>
<path d="M37.5826 50.641C37.2419 50.8734 36.9225 51.1006 36.5719 51.294L36.4418 51.3645C36.4029 51.384 36.3466 51.411 36.3298 51.4179C36.281 51.4397 36.2282 51.4603 36.1783 51.4821C36.0755 51.5206 35.9722 51.5538 35.8677 51.5825C35.6616 51.6393 35.4474 51.6686 35.243 51.6617C35.0375 51.6565 34.8447 51.6101 34.692 51.5315C34.3768 51.3726 34.2555 51.1379 34.1962 50.9945C34.1353 50.8424 34.1277 50.7581 34.126 50.7581C34.1266 50.7575 34.1887 50.8195 34.3135 50.9084C34.4343 50.9962 34.6247 51.1018 34.8471 51.1098C35.0677 51.1207 35.3179 51.0375 35.5989 50.8872C35.6703 50.8476 35.7411 50.8069 35.8154 50.7632L35.9275 50.6933C35.9536 50.6772 35.9431 50.6812 35.9472 50.6772V50.6715C35.946 50.6583 35.9333 50.6571 35.9327 50.6577C35.9327 50.6577 35.9443 50.6565 35.9455 50.6428C35.9623 50.6502 35.9019 50.6055 35.8694 50.5842L35.7626 50.5108C35.6941 50.4609 35.625 50.4173 35.56 50.3748C35.2952 50.2113 35.059 50.1235 34.8233 50.1224C34.5893 50.1195 34.3716 50.1976 34.2282 50.2584C34.083 50.3232 34 50.3691 34 50.368C34.0012 50.3685 34.036 50.2888 34.1353 50.1551C34.2357 50.0249 34.4029 49.8269 34.7257 49.691C34.8836 49.6238 35.081 49.5837 35.286 49.5842C35.4921 49.5848 35.7051 49.6238 35.9083 49.691C36.007 49.7231 36.1063 49.7615 36.2044 49.8063C36.252 49.8269 36.3014 49.8499 36.3478 49.8722C36.4029 49.9021 36.4244 49.9101 36.5249 49.9692C36.8529 50.1689 37.2018 50.3943 37.5565 50.625L37.5826 50.641Z" fill="#EEAF1C"/>
<path d="M32.9858 49.6773C33.9176 49.6549 33.9524 51.0874 33.0177 51.1109C32.0824 51.131 32.0511 49.6973 32.9858 49.6773Z" fill="#EEAF1C"/>
<path d="M7.44265 58.1892C8.31871 58.0728 9.3312 57.7917 10.2932 57.2198C10.735 56.9627 11.164 56.6444 11.5686 56.2738C11.8891 55.9846 12.1922 55.6605 12.4761 55.3077C12.6253 55.127 12.7687 54.9389 12.9033 54.7438C13.2703 54.212 13.5751 53.6578 13.8166 53.0997C14.0575 52.5467 14.2288 51.9782 14.3594 51.4188C14.6177 50.3048 14.6978 49.2555 14.645 48.3836C14.5963 47.5093 14.4029 46.8094 14.2096 46.3459C14.0169 45.8801 13.8444 45.646 13.8502 45.6426C13.845 45.6472 14.079 45.8204 14.3931 46.2421C14.71 46.662 15.0874 47.3498 15.3179 48.2786C15.5501 49.205 15.643 50.3518 15.4897 51.6127C15.4108 52.2392 15.2743 52.9029 15.0282 53.5707C14.7855 54.2321 14.4529 54.8866 14.0261 55.5028C13.9925 55.551 13.9553 55.5986 13.9193 55.6456C13.6494 56.0214 13.3527 56.3701 13.0322 56.688C12.3605 57.35 11.6017 57.8789 10.8238 58.2294C9.6238 58.7778 8.42437 58.9115 7.46761 58.8633C6.5033 58.8157 5.76135 58.6069 5.26556 58.444C4.76976 58.2776 4.51141 58.1531 4.51025 58.1554C4.51025 58.1531 4.79531 58.1961 5.30968 58.2397C5.82231 58.2742 6.56426 58.3068 7.44265 58.1892Z" fill="#EEAF1C"/>
<path d="M14.3008 55.9429C14.9173 56.1419 15.5217 56.3909 16.1266 56.6635C16.4302 56.7989 16.7234 56.9377 17.0137 57.076C17.1652 57.1511 17.2819 57.2079 17.4091 57.2642C17.535 57.3175 17.6633 57.3674 17.7916 57.411C18.3066 57.5877 18.8401 57.6836 19.3516 57.7099C20.3769 57.7685 21.3197 57.5441 22.0123 57.1678C22.7095 56.7948 23.1438 56.267 23.3702 55.8637C23.5984 55.4569 23.6593 55.1878 23.6646 55.1907C23.6576 55.1895 23.6849 55.4609 23.5659 55.9423C23.4492 56.4162 23.1264 57.1196 22.4007 57.7185C21.6866 58.3175 20.6085 58.7759 19.3603 58.8471C18.738 58.8832 18.0715 58.8264 17.4079 58.6411C17.2395 58.5958 17.0747 58.5413 16.9109 58.4799C16.7443 58.4174 16.5765 58.3428 16.4407 58.2802L15.5658 57.8884C14.9759 57.625 14.4058 57.3686 13.8607 57.154C13.6633 57.0748 13.4706 57.0066 13.2778 56.9406C13.5989 56.6233 13.8949 56.2739 14.1655 55.8987C14.2119 55.9136 14.2566 55.9279 14.3008 55.9429Z" fill="#EEAF1C"/>
<path d="M11.2266 56.1842L10.883 56.0988C10.6519 56.0437 10.4232 56.0133 10.1973 55.9995C9.7445 55.972 9.3114 56.0196 8.92882 56.1171C8.15726 56.3087 7.59876 56.7034 7.28004 57.0373C6.9555 57.374 6.83881 57.6241 6.83301 57.6196C6.84055 57.623 6.86842 57.3494 7.10645 56.9134C7.34157 56.4814 7.84085 55.8865 8.69079 55.4872C9.11285 55.2859 9.61213 55.1344 10.1689 55.0799C10.4493 55.053 10.7419 55.0478 11.0438 55.0759C11.3352 55.1086 11.5959 55.1373 11.8931 55.1786C11.9709 55.1895 12.0545 55.2067 12.137 55.2193C11.8502 55.571 11.5471 55.8922 11.2266 56.1842Z" fill="#EEAF1C"/>
</g>
<defs>
<clipPath id="clip0_1636_2">
<rect width="60" height="59" fill="white"/>
</clipPath>
</defs>
</svg>
