<svg width="463" height="303" viewBox="0 0 463 303" fill="none" xmlns="http://www.w3.org/2000/svg">
<path d="M455.5 256H378.606L305.834 183.228C305.254 182.648 304.667 182.078 304.077 181.515C307.279 174.072 309.497 166.945 310.532 160.733C312.386 149.611 308.472 142.197 304.863 137.937C301.236 133.656 296.145 130.562 290.478 129.048C290.365 108.492 276.217 97.9229 275.546 97.4349C272.196 94.9979 267.474 95.7159 265.038 99.0659C262.602 102.416 263.311 107.084 266.661 109.52C267.055 109.82 275.219 116.2 275.469 128.814C264.245 131.382 255.253 139.966 252.54 151.456C252.364 152.202 252.133 153.294 251.888 154.471C218.656 147.951 182.861 157.535 157.167 183.23L154.838 185.559C147.461 178.719 137.218 176.04 127.407 178.251C122.185 166.768 126.789 157.495 126.982 157.115C128.951 153.471 127.593 148.921 123.949 146.951C120.304 144.981 115.754 146.339 113.785 149.984C113.39 150.715 105.194 166.357 113.97 184.946C109.512 188.759 106.257 193.748 104.835 199.176C103.42 204.578 103.092 212.954 109.567 222.185C110.64 223.714 111.911 225.345 113.354 227.043L84.394 256H7.5C3.358 256 0 259.358 0 263.5C0 267.642 3.358 271 7.5 271H67.75L82.3 290.399C88.217 298.289 97.638 303 107.5 303H355.5C365.362 303 374.783 298.29 380.7 290.4L395.25 271H455.5C459.642 271 463 267.642 463 263.5C463 259.358 459.642 256 455.5 256ZM266.489 157.92C266.734 156.745 266.964 155.636 267.137 154.902C268.765 148.006 275.224 143.001 282.496 143C282.5 143 282.504 143.001 282.507 143.001C282.509 143.001 282.511 143.001 282.512 143.001C286.821 143.005 290.998 144.778 293.416 147.633C295.684 150.31 296.464 153.888 295.734 158.268C295.086 162.156 293.762 166.722 291.927 171.536C283.936 165.917 275.333 161.538 266.386 158.406C266.422 158.243 266.456 158.08 266.489 157.92ZM167.773 193.835C202.912 158.695 260.088 158.695 295.228 193.834L357.394 256H259.487C261.77 254.61 264.032 253.128 266.271 251.547C269.133 249.525 270.214 245.79 268.873 242.552C267.532 239.314 264.128 237.437 260.673 238.03C260.145 238.121 209.997 246.044 164.791 196.817L167.773 193.835ZM119.344 202.977C120.292 199.358 123.295 195.954 127.181 194.089C127.185 194.087 127.19 194.084 127.194 194.082C129.392 193.029 131.749 192.524 134.081 192.524C138.707 192.524 143.23 194.516 146.186 198.184C173.408 231.955 203.528 245.037 224.002 250.065C227.077 250.82 230.033 251.422 232.845 251.899C224.682 254.557 216.252 255.923 207.593 256.001H206.39C201.339 255.976 196.212 255.521 191.013 254.618C157.519 248.799 130.812 226.352 121.846 213.57C119.296 209.936 118.454 206.372 119.344 202.977ZM123.912 237.695C131.041 243.998 139.976 250.459 150.311 256H105.607L123.912 237.695ZM368.7 281.4C365.6 285.533 360.666 288 355.5 288H107.5C102.334 288 97.4 285.533 94.3 281.4L86.5 271H376.5L368.7 281.4Z" fill="#4E3909"/>
<path d="M219.5 207C225.841 207 231 201.841 231 195.5C231 189.159 225.841 184 219.5 184C213.159 184 208 189.159 208 195.5C208 201.841 213.159 207 219.5 207Z" fill="#4E3909"/>
<path d="M299.5 247C305.841 247 311 241.841 311 235.5C311 229.159 305.841 224 299.5 224C293.159 224 288 229.159 288 235.5C288 241.841 293.159 247 299.5 247Z" fill="#4E3909"/>
<path d="M247.46 223.08C251.602 223.08 255 219.682 255 215.54C255 211.398 251.602 208 247.46 208C243.318 208 239.92 211.398 239.92 215.54C239.92 219.682 243.318 223.08 247.46 223.08Z" fill="#4E3909"/>
<path d="M271.46 207.08C275.602 207.08 279 203.682 279 199.54C279 195.398 275.602 192 271.46 192C267.318 192 263.92 195.398 263.92 199.54C263.92 203.682 267.318 207.08 271.46 207.08Z" fill="#4E3909"/>
<path d="M200 87.535C200 100.16 205.348 106.84 209.646 112.207C213.335 116.815 216 120.144 216 127.504C216 131.646 219.358 135.004 223.5 135.004C227.642 135.004 231 131.646 231 127.504C231 114.879 225.652 108.2 221.355 102.832C217.666 98.224 215 94.894 215 87.535C215 80.165 217.667 76.831 221.357 72.218C225.653 66.847 231 60.163 231 47.531C231 34.894 225.654 28.206 221.358 22.832C217.667 18.215 215 14.879 215 7.5C215 3.358 211.642 0 207.5 0C203.358 0 200 3.358 200 7.5C200 20.137 205.346 26.825 209.642 32.199C213.333 36.817 216 40.153 216 47.532C216 54.902 213.333 58.236 209.643 62.849C205.347 68.219 200 74.904 200 87.535Z" fill="#4E3909"/>
<path d="M240.484 95.027C242.865 95.027 244.988 93.916 246.363 92.185C251.775 85.419 262.999 71.362 262.999 47.531C262.999 37.851 261.138 28.726 257.467 20.408C255.795 16.619 251.368 14.903 247.577 16.575C243.787 18.247 242.072 22.675 243.744 26.465C246.567 32.862 247.999 39.95 247.999 47.531C247.999 66.045 239.704 76.495 234.696 82.757C233.626 84.053 232.983 85.715 232.983 87.528C232.984 91.669 236.342 95.027 240.484 95.027Z" fill="#4E3909"/>
<path d="M180.325 118.952C181.329 118.952 182.35 118.749 183.329 118.32C187.123 116.659 188.852 112.236 187.191 108.442C184.41 102.09 183 95.056 183 87.535C183 68.945 191.368 58.484 196.369 52.231C196.504 52.062 196.632 51.887 196.752 51.707C198.432 49.188 198.424 45.855 196.744 43.336C194.447 39.89 189.789 38.959 186.344 41.256C185.456 41.848 184.736 42.596 184.194 43.44C178.636 50.405 168 64.342 168 87.535C168 97.139 169.834 106.198 173.451 114.459C174.684 117.274 177.437 118.952 180.325 118.952Z" fill="#4E3909"/>
</svg>
