<svg width="18" height="842" viewBox="0 0 18 842" fill="none" xmlns="http://www.w3.org/2000/svg">
<g clip-path="url(#clip0_1632_2)">
<path d="M-0.0998047 285.8C-0.0998047 285.4 -0.0998047 285.1 -0.0998047 284.7C0.100195 284.8 0.200195 284.9 0.400195 285C3.0002 282.4 5.6002 279.8 8.1002 277.3C6.9002 276.1 5.8002 275 4.6002 273.8C3.3002 275.1 1.8002 276.6 0.400195 278C0.200195 277.9 0.100195 277.8 -0.0998047 277.7C-0.0998047 277.3 -0.0998047 276.9 -0.0998047 276.5C0.100195 276.6 0.200195 276.8 0.400195 276.8C1.6002 275.6 2.8002 274.4 4.0002 273.2C2.9002 272.1 1.7002 270.9 0.500195 269.7C0.300195 269.9 0.200195 270 0.000195324 270.2C0.000195324 269.5 0.000195324 268.8 0.000195324 268.1C0.100195 268.2 0.200195 268.2 0.400195 268.3C0.400195 268 0.400195 267.9 0.400195 267.7C0.400195 265.7 0.400195 263.6 0.400195 261.6C0.400195 261.3 0.300195 261.1 0.000195324 260.9C0.000195324 260.5 0.000195324 260.2 0.000195324 259.8C0.100195 259.8 0.200195 259.9 0.400195 260C0.400195 259.8 0.400195 259.6 0.400195 259.5C0.400195 257.5 0.400195 255.5 0.400195 253.5C0.400195 253.2 0.400195 252.9 0.000195324 252.7C0.000195324 252.3 0.000195324 252 0.000195324 251.6C0.100195 251.6 0.200195 251.7 0.400195 251.8C0.400195 251.6 0.400195 251.4 0.400195 251.2C0.400195 249.2 0.400195 247.2 0.400195 245.2C0.400195 244.9 0.400195 244.5 0.000195324 244.4C0.000195324 244 0.000195324 243.7 0.000195324 243.3C0.100195 243.3 0.200195 243.4 0.300195 243.5C0.300195 241.3 0.300195 239.1 0.300195 236.9C0.100195 236.9 0.100195 237 0.000195324 237.1C0.000195324 236.4 0.000195324 235.8 0.000195324 235.1C0.200195 235.3 0.400195 235.5 0.600195 235.6C1.8002 234.4 3.0002 233.2 4.1002 232.1C2.8002 230.8 1.4002 229.4 0.100195 227.9C0.100195 227.5 0.100195 227.2 0.100195 226.8C0.200195 226.9 0.400195 227 0.500195 227.1C1.8002 228.4 3.2002 229.8 4.5002 231.1C4.6002 231.2 4.7002 231.3 4.8002 231.4C6.0002 230.2 7.2002 229 8.4002 227.8C8.1002 227.5 7.7002 227.2 7.4002 226.9C5.0002 224.5 2.5002 222 0.100195 219.6C0.100195 219.2 0.100195 218.9 0.100195 218.5C0.300195 218.6 0.400195 218.7 0.500195 218.8C3.2002 221.5 5.9002 224.2 8.7002 227C8.8002 227.1 8.9002 227.2 9.0002 227.3C10.2002 226.1 11.4002 224.9 12.6002 223.8C8.4002 219.6 4.3002 215.5 0.100195 211.3C0.100195 210.9 0.100195 210.6 0.100195 210.2C0.300195 210.3 0.400195 210.4 0.600195 210.6C4.7002 214.7 8.8002 218.8 12.9002 222.9C13.0002 223 13.2002 223.1 13.2002 223.2C14.4002 222 15.6002 220.8 16.7002 219.7C11.4002 214.4 6.0002 209 0.600195 203.6C0.500195 203.7 0.300195 203.8 0.200195 203.9C0.200195 203.5 0.200195 203.2 0.200195 202.8C0.200195 202.7 0.300195 202.5 0.300195 202.4C0.300195 200.2 0.300195 198 0.300195 195.9C0.300195 195.8 0.300195 195.6 0.200195 195.5C0.200195 194.8 0.200195 194.1 0.200195 193.4C0.400195 193.6 0.500195 193.7 0.700195 193.8C4.7002 189.8 8.7002 185.8 12.6002 181.9C11.5002 180.7 10.3002 179.6 9.1002 178.4C6.4002 181.1 3.6002 183.9 0.800195 186.8C0.600195 186.6 0.500195 186.5 0.300195 186.4C0.300195 186 0.300195 185.7 0.300195 185.3C0.500195 185.4 0.600195 185.5 0.800195 185.6C3.4002 183 6.0002 180.4 8.5002 177.9C7.3002 176.7 6.2002 175.6 5.0002 174.4C3.7002 175.7 2.2002 177.2 0.800195 178.6C0.600195 178.5 0.500195 178.4 0.300195 178.3C0.300195 177.9 0.300195 177.5 0.300195 177.1C0.500195 177.2 0.600195 177.4 0.800195 177.4C2.0002 176.2 3.2002 175 4.4002 173.8C3.3002 172.7 2.1002 171.5 0.900195 170.3C0.700195 170.5 0.600195 170.6 0.400195 170.8C0.400195 170.1 0.400195 169.4 0.400195 168.7C0.500195 168.8 0.600195 168.8 0.800195 168.9C0.800195 168.6 0.800195 168.5 0.800195 168.3C0.800195 166.3 0.800195 164.2 0.800195 162.2C0.800195 161.9 0.700195 161.7 0.400195 161.5C0.400195 161.1 0.400195 160.8 0.400195 160.4C0.500195 160.4 0.600195 160.5 0.800195 160.6C0.800195 160.4 0.800195 160.2 0.800195 160.1C0.800195 158.1 0.800195 156.1 0.800195 154.1C0.800195 153.8 0.800195 153.5 0.400195 153.3C0.400195 152.9 0.400195 152.6 0.400195 152.2C0.500195 152.2 0.600195 152.3 0.800195 152.4C0.800195 152.2 0.800195 152 0.800195 151.8C0.800195 149.8 0.800195 147.8 0.800195 145.8C0.800195 145.5 0.800195 145.1 0.400195 145C0.400195 144.6 0.400195 144.3 0.400195 143.9C0.500195 143.9 0.600195 144 0.700195 144.1C0.700195 141.9 0.700195 139.7 0.700195 137.5C0.500195 137.5 0.500195 137.6 0.400195 137.7C0.400195 137 0.400195 136.4 0.400195 135.7C0.600195 135.9 0.800195 136.1 1.0002 136.2C2.2002 135 3.4002 133.8 4.5002 132.7C3.2002 131.4 1.8002 130 0.500195 128.5C0.500195 128.1 0.500195 127.8 0.500195 127.4C0.600195 127.5 0.800195 127.6 0.900195 127.7C2.2002 129 3.6002 130.4 4.9002 131.7C5.0002 131.8 5.1002 131.9 5.2002 132C6.4002 130.8 7.6002 129.6 8.8002 128.4C8.5002 128.1 8.1002 127.8 7.8002 127.5C5.4002 125.1 2.9002 122.6 0.500195 120.2C0.500195 119.8 0.500195 119.5 0.500195 119.1C0.700195 119.2 0.800195 119.3 0.900195 119.4C3.6002 122.1 6.3002 124.8 9.1002 127.6C9.2002 127.7 9.3002 127.8 9.4002 127.9C10.6002 126.7 11.8002 125.5 13.0002 124.3C8.8002 120.1 4.6002 115.9 0.400195 111.8C0.400195 111.4 0.400195 111.1 0.400195 110.7C0.600195 110.8 0.700195 110.9 0.900195 111.1C5.0002 115.2 9.1002 119.3 13.2002 123.4C13.3002 123.5 13.5002 123.6 13.5002 123.7C14.7002 122.5 15.9002 121.3 17.0002 120.2C11.6002 114.9 6.3002 109.5 0.900195 104.2C0.800195 104.3 0.600195 104.4 0.500195 104.5C0.500195 104.1 0.500195 103.8 0.500195 103.4C0.500195 103.3 0.600195 103.1 0.600195 103C0.600195 100.8 0.600195 98.6 0.600195 96.5C0.600195 96.4 0.600195 96.2 0.500195 96.1C0.500195 95.4 0.500195 94.7 0.500195 94C0.700195 94.2 0.800195 94.3 1.0002 94.4C5.0002 90.4 9.0002 86.4 12.9002 82.5C11.8002 81.3 10.6002 80.2 9.4002 79C6.7002 81.7 3.9002 84.5 1.1002 87.4C0.900195 87.2 0.800195 87.1 0.600195 87C0.600195 86.6 0.600195 86.3 0.600195 85.9C0.800195 86 0.900195 86.1 1.1002 86.2C3.7002 83.6 6.3002 81 8.8002 78.5C7.6002 77.3 6.5002 76.2 5.3002 75C4.0002 76.3 2.5002 77.8 1.1002 79.2C0.900195 79.1 0.800195 79 0.600195 78.9C0.600195 78.5 0.600195 78.1 0.600195 77.7C0.800195 77.8 0.900195 78 1.1002 78C2.3002 76.8 3.5002 75.6 4.7002 74.4C3.6002 73.3 2.4002 72.1 1.2002 70.9C1.0002 71.1 0.900195 71.2 0.700195 71.4C0.700195 70.7 0.700195 70 0.700195 69.3C0.800195 69.4 0.900195 69.4 1.1002 69.5C1.1002 69.2 1.1002 69.1 1.1002 68.9C1.1002 66.9 1.1002 64.8 1.1002 62.8C1.1002 62.5 1.0002 62.3 0.700195 62.1C0.700195 61.7 0.700195 61.4 0.700195 61C0.800195 61 0.900195 61.1001 1.1002 61.2001C1.1002 61.0001 1.1002 60.8001 1.1002 60.7001C1.1002 58.7001 1.1002 56.7001 1.1002 54.7001C1.1002 54.4001 1.1002 54.1001 0.700195 53.9001C0.700195 53.5001 0.700195 53.2 0.700195 52.8C0.800195 52.8 0.900195 52.9 1.1002 53C1.1002 52.8 1.1002 52.6001 1.1002 52.4001C1.1002 50.4001 1.1002 48.4001 1.1002 46.4001C1.1002 46.1001 1.1002 45.7 0.700195 45.6C0.700195 45.2 0.700195 44.9 0.700195 44.5C0.800195 44.5 0.900195 44.6001 1.0002 44.7001C1.0002 42.5001 1.0002 40.3 1.0002 38.1C0.800195 38.1 0.800195 38.2 0.700195 38.3C0.700195 37.6 0.700195 37 0.700195 36.3C0.900195 36.5 1.1002 36.7 1.3002 36.8C2.5002 35.6 3.7002 34.4 4.8002 33.3C3.5002 32 2.1002 30.6 0.800195 29.1C0.800195 28.7 0.800195 28.4 0.800195 28C0.900195 28.1 1.1002 28.2 1.2002 28.3C2.5002 29.6 3.9002 31 5.2002 32.3C5.3002 32.4 5.4002 32.5 5.5002 32.6C6.7002 31.4 7.9002 30.2 9.1002 29C8.8002 28.7 8.4002 28.4 8.1002 28.1C5.6002 25.6 3.2002 23.2001 0.800195 20.7001C0.800195 20.3001 0.800195 20 0.800195 19.6C0.000195324 18.9 0.200195 19 0.300195 19.1C3.0002 21.8001 5.7002 24.5001 8.5002 27.2001C8.6002 27.3001 8.7002 27.4 8.8002 27.5C10.0002 26.3 11.2002 25.1 12.4002 24C8.2002 19.8 4.0002 15.7 -0.0998047 11.6C-0.0998047 11.2 -0.0998047 10.9 -0.0998047 10.5C0.100195 10.6 0.200195 10.7 0.400195 10.9C4.5002 15 8.6002 19.1001 12.7002 23.2001C12.8002 23.3001 13.0002 23.4 13.0002 23.5C14.2002 22.3 15.4002 21.1 16.5002 20C11.0002 14.6 5.7002 9.20005 0.300195 3.90005C0.200195 3.90005 0.000195332 4.00005 -0.0998047 4.20005C-0.0998047 3.10005 -0.0998047 2.10005 -0.0998047 1.00005C0.200195 1.00005 0.500195 1.00005 0.800195 1.00005C0.800195 1.50005 0.800195 2.10005 0.800195 2.60005C0.800195 2.80005 0.900195 3.10005 1.1002 3.30005C1.9002 4.20005 2.9002 5.10005 3.8002 6.00005C3.8002 6.00005 3.9002 6.10005 4.1002 6.20005C4.1002 4.40005 4.1002 2.70005 4.1002 1.00005C4.4002 1.00005 4.6002 1.00005 4.9002 1.00005C4.9002 2.90005 4.9002 4.90005 4.9002 6.80005C5.0002 7.00005 5.1002 7.20005 5.2002 7.40005C6.1002 8.30005 7.0002 9.20005 8.0002 10.1C8.1002 10.2 8.2002 10.2 8.3002 10.3C8.3002 9.00005 8.3002 7.80005 8.3002 6.70005C8.3002 4.80005 8.3002 2.90005 8.3002 1.00005C8.6002 1.00005 8.8002 1.00005 9.1002 1.00005C9.1002 4.40005 9.1002 7.70005 9.1002 11C9.1002 11.2 9.2002 11.4 9.3002 11.5C10.2002 12.4 11.1002 13.3 12.0002 14.2C12.1002 14.3 12.2002 14.3 12.3002 14.4C12.3002 14.1 12.3002 13.9 12.3002 13.7C12.3002 9.60005 12.3002 5.50005 12.3002 1.40005C12.3002 1.20005 12.3002 1.00005 12.3002 0.800049C12.5002 0.800049 12.8002 0.800049 13.0002 0.800049C13.0002 1.00005 13.0002 1.20005 13.0002 1.50005C13.0002 5.90005 13.0002 10.3 13.0002 14.8C13.0002 15 13.0002 15.3 13.2002 15.5C14.3002 16.6 15.4002 17.7 16.5002 18.8C16.5002 19.5 16.5002 20.2 16.5002 20.9C15.5002 21.9 14.6002 22.9 13.6002 24C14.5002 24.9 15.5002 25.9 16.5002 26.9C16.5002 27.3 16.5002 27.6 16.5002 28C15.8002 27.3 15.1002 26.7 14.4002 26C13.9002 25.5 13.4002 25 13.0002 24.6C11.8002 25.8001 10.6002 27 9.5002 28.1C9.5002 28.1 9.6002 28.2 9.7002 28.3C11.9002 30.5 14.1002 32.7001 16.3002 34.9001C16.4002 35.0001 16.5002 35 16.6002 35.1C16.6002 35.5 16.6002 35.9 16.6002 36.3C16.5002 36.2 16.3002 36.1 16.2002 36C13.9002 33.7 11.6002 31.4 9.3002 29.1C9.1002 28.9 9.1002 28.8001 9.0002 28.7001C7.7002 30.0001 6.6002 31.2 5.4002 32.3C5.4002 32.3 5.5002 32.4 5.6002 32.5C9.2002 36.1 12.8002 39.7001 16.3002 43.2001C16.4002 43.3001 16.5002 43.4001 16.6002 43.4001C16.6002 43.8001 16.6002 44.2 16.6002 44.6C16.4002 44.4 16.3002 44.3001 16.2002 44.2001C12.5002 40.5001 8.9002 36.9001 5.2002 33.2001C5.1002 33.0001 5.0002 32.9 4.9002 32.8C3.7002 34 2.5002 35.2 1.4002 36.3C1.5002 36.4 1.6002 36.5 1.7002 36.6C5.4002 40.3 9.0002 43.9 12.7002 47.6C14.0002 48.9 15.4002 50.3 16.7002 51.6C16.7002 52 16.7002 52.3001 16.7002 52.7001C16.6002 52.6001 16.4002 52.5001 16.3002 52.4001C14.1002 50.2001 12.0002 48.1001 9.8002 45.9001C9.7002 45.8001 9.6002 45.6001 9.6002 45.4001C9.6002 45.4001 9.5002 45.5 9.4002 45.6C9.4002 50.4 9.4002 55.1001 9.4002 59.9001C9.4002 59.9001 9.5002 59.9 9.5002 60C9.6002 59.9 9.7002 59.7 9.8002 59.6C12.0002 57.4 14.1002 55.3001 16.2002 53.2001C16.3002 53.1001 16.5002 53.0001 16.6002 52.9001C16.6002 53.3001 16.6002 53.6 16.6002 54C16.4002 54.2 16.3002 54.3001 16.2002 54.4001C13.7002 56.9001 11.2002 59.4001 8.7002 61.9001C6.3002 64.3001 4.0002 66.6 1.6002 69C1.5002 69.1 1.4002 69.3 1.3002 69.3C2.5002 70.5 3.7002 71.7 4.9002 72.9C5.0002 72.7 5.1002 72.6 5.2002 72.4C8.9002 68.7 12.5002 65.0001 16.2002 61.4001C16.3002 61.3001 16.5002 61.2 16.6002 61.1C16.6002 61.5 16.6002 61.9 16.6002 62.3C16.5002 62.4 16.4002 62.5 16.3002 62.6C12.8002 66.1 9.2002 69.7 5.7002 73.2C5.6002 73.3 5.5002 73.4 5.4002 73.5C6.6002 74.7 7.8002 75.9 8.9002 77C9.0002 76.9 9.1002 76.8 9.3002 76.7C11.6002 74.4 13.9002 72.1 16.2002 69.8C16.3002 69.7 16.5002 69.6 16.6002 69.5C16.6002 69.9 16.6002 70.3 16.6002 70.7C16.5002 70.8 16.4002 70.9 16.3002 70.9C14.1002 73.1 11.9002 75.3 9.7002 77.5C9.6002 77.6 9.5002 77.7 9.5002 77.7C10.7002 78.9 11.9002 80.1 13.0002 81.2C13.8002 80.4 14.8002 79.4 15.7002 78.5C16.0002 78.2 16.2002 78 16.5002 77.8C16.5002 78.2 16.5002 78.5 16.5002 78.9C15.5002 79.9 14.5002 80.9 13.6002 81.8C14.6002 82.8 15.6002 83.8 16.5002 84.8C16.5002 85.2 16.5002 85.5 16.5002 85.9C16.4002 85.8 16.2002 85.7 16.1002 85.6C15.2002 84.7 14.3002 83.8 13.4002 82.9C13.3002 82.8 13.2002 82.7 13.0002 82.6C13.0002 82.9 13.0002 83.1 13.0002 83.3C13.0002 89.2 13.0002 95.1 13.0002 101C13.0002 105.5 13.0002 110 13.0002 114.6C13.0002 114.8 13.0002 115.1 13.2002 115.3C14.3002 116.4 15.4002 117.5 16.5002 118.6C16.5002 119.3 16.5002 120 16.5002 120.7C15.5002 121.7 14.6002 122.7 13.6002 123.8C14.5002 124.7 15.5002 125.7 16.5002 126.7C16.5002 127.1 16.5002 127.4 16.5002 127.8C15.8002 127.1 15.1002 126.5 14.4002 125.8C13.9002 125.3 13.4002 124.8 13.0002 124.4C11.8002 125.6 10.6002 126.8 9.5002 127.9C9.5002 127.9 9.6002 128 9.7002 128.1C11.9002 130.3 14.1002 132.5 16.3002 134.7C16.4002 134.8 16.5002 134.8 16.6002 134.9C16.6002 135.3 16.6002 135.7 16.6002 136.1C16.5002 136 16.3002 135.9 16.2002 135.8C13.9002 133.5 11.6002 131.2 9.3002 128.9C9.1002 128.7 9.1002 128.6 9.0002 128.5C7.7002 129.8 6.6002 131 5.4002 132.1C5.4002 132.1 5.5002 132.2 5.6002 132.3C9.2002 135.9 12.8002 139.5 16.3002 143C16.4002 143.1 16.5002 143.2 16.6002 143.2C16.6002 143.6 16.6002 144 16.6002 144.4C16.4002 144.2 16.3002 144.1 16.2002 144C12.5002 140.3 8.9002 136.7 5.2002 133C5.0002 132.8 4.9002 132.7 4.9002 132.7C3.7002 133.9 2.5002 135.1 1.4002 136.2C1.5002 136.3 1.6002 136.4 1.7002 136.5C5.4002 140.2 9.0002 143.8 12.7002 147.5C14.0002 148.8 15.4002 150.2 16.7002 151.5C16.7002 151.9 16.7002 152.2 16.7002 152.6C16.6002 152.5 16.4002 152.4 16.3002 152.3C14.1002 150.1 12.0002 148 9.8002 145.8C9.7002 145.7 9.6002 145.5 9.6002 145.3C9.6002 145.3 9.5002 145.4 9.4002 145.5C9.4002 150.3 9.4002 155 9.4002 159.8H9.5002C9.6002 159.7 9.7002 159.6 9.8002 159.5C12.0002 157.3 14.1002 155.2 16.2002 153.1C16.3002 153 16.5002 152.9 16.6002 152.8C16.6002 153.2 16.6002 153.5 16.6002 153.9C16.4002 154.1 16.3002 154.2 16.2002 154.3C13.7002 156.8 11.2002 159.3 8.7002 161.8C6.3002 164.2 4.0002 166.5 1.6002 168.9C1.5002 169 1.4002 169.2 1.3002 169.2C2.5002 170.4 3.7002 171.6 4.9002 172.8C5.0002 172.6 5.1002 172.5 5.2002 172.3C8.9002 168.6 12.5002 164.9 16.2002 161.3C16.3002 161.2 16.5002 161.1 16.6002 161C16.6002 161.4 16.6002 161.8 16.6002 162.2C16.5002 162.3 16.4002 162.4 16.3002 162.5C12.8002 166 9.2002 169.6 5.7002 173.1C5.6002 173.2 5.5002 173.3 5.4002 173.4C6.6002 174.6 7.8002 175.8 8.9002 176.9C9.0002 176.8 9.1002 176.7 9.3002 176.6C11.6002 174.3 13.9002 172 16.2002 169.7C16.3002 169.6 16.5002 169.5 16.6002 169.4C16.6002 169.8 16.6002 170.2 16.6002 170.6C16.5002 170.7 16.4002 170.8 16.3002 170.8C14.1002 173 11.9002 175.2 9.7002 177.4C9.6002 177.5 9.5002 177.6 9.5002 177.6C10.7002 178.8 11.9002 180 13.0002 181.1C13.8002 180.3 14.8002 179.3 15.7002 178.4C16.0002 178.1 16.2002 177.9 16.5002 177.7C16.5002 178.1 16.5002 178.4 16.5002 178.8C15.5002 179.8 14.5002 180.8 13.6002 181.7C14.6002 182.7 15.6002 183.7 16.5002 184.7C16.5002 185.1 16.5002 185.4 16.5002 185.8C16.4002 185.7 16.2002 185.6 16.1002 185.5C15.2002 184.6 14.3002 183.7 13.4002 182.8C13.3002 182.7 13.2002 182.6 13.0002 182.5C13.0002 182.8 13.0002 183 13.0002 183.2C13.0002 189.1 13.0002 195 13.0002 200.9C13.0002 205.4 13.0002 209.9 13.0002 214.5C13.0002 214.7 13.0002 215 13.2002 215.2C14.3002 216.3 15.4002 217.4 16.5002 218.5C16.5002 219.2 16.5002 219.9 16.5002 220.6C15.5002 221.6 14.6002 222.6 13.6002 223.7C14.5002 224.6 15.5002 225.6 16.5002 226.6C16.5002 227 16.5002 227.3 16.5002 227.7C15.8002 227 15.1002 226.4 14.4002 225.7C13.9002 225.2 13.4002 224.7 13.0002 224.3C11.8002 225.5 10.6002 226.7 9.5002 227.8C9.5002 227.8 9.6002 227.9 9.7002 228C11.9002 230.2 14.1002 232.4 16.3002 234.6C16.4002 234.7 16.5002 234.7 16.6002 234.8C16.6002 235.2 16.6002 235.6 16.6002 236C16.5002 235.9 16.3002 235.8 16.2002 235.7C13.9002 233.4 11.6002 231.1 9.3002 228.8C9.1002 228.6 9.1002 228.5 9.0002 228.4C7.7002 229.7 6.6002 230.9 5.4002 232C5.4002 232 5.5002 232.1 5.6002 232.2C9.2002 235.8 12.8002 239.4 16.3002 242.9C16.4002 243 16.5002 243.1 16.6002 243.1C16.6002 243.5 16.6002 243.9 16.6002 244.3C16.4002 244.1 16.3002 244 16.2002 243.9C12.5002 240.2 8.9002 236.6 5.2002 232.9C5.0002 232.7 4.9002 232.6 4.9002 232.6C3.7002 233.8 2.5002 235 1.4002 236.1C1.5002 236.2 1.6002 236.3 1.7002 236.4C5.4002 240.1 9.0002 243.7 12.7002 247.4C14.0002 248.7 15.4002 250.1 16.7002 251.4C16.7002 251.8 16.7002 252.1 16.7002 252.5C16.6002 252.4 16.4002 252.3 16.3002 252.2C14.1002 250 12.0002 247.9 9.8002 245.7C9.7002 245.6 9.6002 245.4 9.6002 245.2C9.6002 245.2 9.5002 245.3 9.4002 245.4C9.4002 250.2 9.4002 254.9 9.4002 259.8C9.6002 259.6 9.7002 259.5 9.8002 259.4C12.0002 257.2 14.1002 255.1 16.2002 253C16.3002 252.9 16.5002 252.8 16.6002 252.7C16.6002 253.1 16.6002 253.4 16.6002 253.8C16.4002 254 16.3002 254.1 16.2002 254.2C13.7002 256.7 11.2002 259.2 8.7002 261.7C6.3002 264.1 4.0002 266.4 1.6002 268.8C1.5002 268.9 1.4002 269.1 1.3002 269.1C2.5002 270.3 3.7002 271.5 4.9002 272.7C5.0002 272.5 5.1002 272.4 5.2002 272.2C8.9002 268.5 12.5002 264.8 16.2002 261.2C16.3002 261.1 16.5002 261 16.6002 260.9C16.6002 261.3 16.6002 261.7 16.6002 262.1C16.5002 262.2 16.4002 262.3 16.3002 262.4C12.8002 265.9 9.2002 269.5 5.7002 273C5.6002 273.1 5.5002 273.2 5.4002 273.3C6.6002 274.5 7.8002 275.7 8.9002 276.8C9.0002 276.7 9.1002 276.6 9.3002 276.5C11.6002 274.2 13.9002 271.9 16.2002 269.6C16.3002 269.5 16.5002 269.4 16.6002 269.3C16.6002 269.7 16.6002 270.1 16.6002 270.5C16.5002 270.6 16.4002 270.7 16.3002 270.7C14.1002 272.9 11.9002 275.1 9.7002 277.3C9.6002 277.4 9.5002 277.5 9.5002 277.5C10.7002 278.7 11.9002 279.9 13.0002 281C13.9002 280.1 14.8002 279.2 15.7002 278.3C16.0002 278 16.2002 277.8 16.5002 277.6C16.5002 278 16.5002 278.3 16.5002 278.7C15.5002 279.7 14.5002 280.7 13.6002 281.6C14.6002 282.6 15.6002 283.6 16.5002 284.6C16.5002 285 16.5002 285.3 16.5002 285.7C16.4002 285.6 16.2002 285.5 16.1002 285.4C15.2002 284.5 14.3002 283.6 13.4002 282.7C13.3002 282.6 13.2002 282.5 13.0002 282.4C13.0002 282.7 13.0002 282.9 13.0002 283.1C13.0002 289 13.0002 294.9 13.0002 300.8C13.0002 305.3 13.0002 309.8 13.0002 314.4C13.0002 314.6 13.0002 314.9 13.2002 315.1C14.3002 316.2 15.4002 317.3 16.5002 318.4C16.5002 319.1 16.5002 319.8 16.5002 320.5C15.5002 321.5 14.6002 322.5 13.6002 323.6C14.5002 324.5 15.5002 325.5 16.5002 326.5C16.5002 326.9 16.5002 327.2 16.5002 327.6C15.8002 326.9 15.1002 326.3 14.4002 325.6C13.9002 325.1 13.4002 324.6 13.0002 324.2C11.8002 325.4 10.6002 326.6 9.5002 327.7C9.5002 327.7 9.6002 327.8 9.7002 327.9C11.9002 330.1 14.1002 332.3 16.3002 334.5C16.4002 334.6 16.5002 334.6 16.6002 334.7C16.6002 335.1 16.6002 335.5 16.6002 335.9C16.5002 335.8 16.3002 335.7 16.2002 335.6C13.9002 333.3 11.6002 331 9.3002 328.7C9.1002 328.5 9.1002 328.4 9.0002 328.3C7.7002 329.6 6.6002 330.8 5.4002 331.9C5.4002 331.9 5.5002 332 5.6002 332.1C9.2002 335.7 12.8002 339.3 16.3002 342.8C16.4002 342.9 16.5002 343 16.6002 343C16.6002 343.4 16.6002 343.8 16.6002 344.2C16.4002 344 16.3002 343.9 16.2002 343.8C12.5002 340.1 8.9002 336.5 5.2002 332.8C5.0002 332.6 4.9002 332.5 4.9002 332.5C3.7002 333.7 2.5002 334.9 1.4002 336C1.5002 336.1 1.6002 336.2 1.7002 336.3C5.4002 340 9.0002 343.6 12.7002 347.3C14.0002 348.6 15.4002 350 16.7002 351.3C16.7002 351.7 16.7002 352 16.7002 352.4C16.6002 352.3 16.4002 352.2 16.3002 352.1C14.1002 349.9 12.0002 347.8 9.8002 345.6C9.7002 345.5 9.6002 345.3 9.6002 345.1C9.6002 345.1 9.5002 345.2 9.4002 345.3C9.4002 350.1 9.4002 354.8 9.4002 359.6C9.4002 359.6 9.5002 359.6 9.5002 359.7C9.6002 359.6 9.7002 359.4 9.8002 359.3C12.0002 357.1 14.1002 355 16.2002 352.9C16.3002 352.8 16.5002 352.7 16.6002 352.6C16.6002 353 16.6002 353.3 16.6002 353.7C16.4002 353.9 16.3002 354 16.2002 354.1C13.7002 356.6 11.2002 359.1 8.7002 361.6C6.3002 364 4.0002 366.3 1.6002 368.7C1.5002 368.8 1.4002 369 1.3002 369C2.5002 370.2 3.7002 371.4 4.9002 372.6C5.0002 372.4 5.1002 372.3 5.2002 372.1C8.9002 368.4 12.5002 364.7 16.2002 361.1C16.3002 361 16.5002 360.9 16.6002 360.8C16.6002 361.2 16.6002 361.6 16.6002 362C16.5002 362.1 16.4002 362.2 16.3002 362.3C12.8002 365.8 9.2002 369.4 5.7002 372.9C5.6002 373 5.5002 373.1 5.4002 373.2C6.6002 374.4 7.8002 375.6 8.9002 376.7C9.0002 376.6 9.1002 376.5 9.3002 376.4C11.6002 374.1 13.9002 371.8 16.2002 369.5C16.3002 369.4 16.5002 369.3 16.6002 369.2C16.6002 369.6 16.6002 370 16.6002 370.4C16.5002 370.5 16.4002 370.6 16.3002 370.6C14.1002 372.8 11.9002 375 9.7002 377.2C9.6002 377.3 9.5002 377.4 9.5002 377.4C10.7002 378.6 11.9002 379.8 13.0002 380.9C13.9002 380 14.8002 379.1 15.7002 378.2C16.0002 377.9 16.2002 377.7 16.5002 377.5C16.5002 377.9 16.5002 378.2 16.5002 378.6C15.5002 379.6 14.5002 380.6 13.6002 381.5C14.6002 382.5 15.6002 383.5 16.5002 384.5C16.5002 384.9 16.5002 385.2 16.5002 385.6C16.4002 385.5 16.2002 385.4 16.1002 385.3C15.2002 384.4 14.3002 383.5 13.4002 382.6C13.3002 382.5 13.2002 382.4 13.0002 382.3C13.0002 382.6 13.0002 382.8 13.0002 383C13.0002 388.9 13.0002 394.8 13.0002 400.7C13.0002 405.2 13.0002 409.7 13.0002 414.3C13.0002 414.5 13.0002 414.8 13.2002 415C14.3002 416.1 15.4002 417.2 16.5002 418.3C16.5002 419 16.5002 419.7 16.5002 420.4C15.5002 421.4 14.6002 422.4 13.6002 423.5C14.5002 424.4 15.5002 425.4 16.5002 426.4C16.5002 426.8 16.5002 427.1 16.5002 427.5C15.8002 426.8 15.1002 426.2 14.4002 425.5C13.9002 425 13.4002 424.5 13.0002 424.1C11.8002 425.3 10.6002 426.5 9.5002 427.6C9.5002 427.6 9.6002 427.7 9.7002 427.8C11.9002 430 14.1002 432.2 16.3002 434.4C16.4002 434.5 16.5002 434.5 16.6002 434.6C16.6002 435 16.6002 435.4 16.6002 435.8C16.5002 435.7 16.3002 435.6 16.2002 435.5C13.9002 433.2 11.6002 430.9 9.3002 428.6C9.1002 428.4 9.1002 428.3 9.0002 428.2C7.7002 429.5 6.6002 430.7 5.4002 431.8C5.4002 431.8 5.5002 431.9 5.6002 432C9.2002 435.6 12.8002 439.2 16.3002 442.7C16.4002 442.8 16.5002 442.9 16.6002 442.9C16.6002 443.3 16.6002 443.7 16.6002 444.1C16.4002 443.9 16.3002 443.8 16.2002 443.7C12.5002 440 8.9002 436.4 5.2002 432.7C5.0002 432.5 5.0002 432.4 4.9002 432.3C3.6002 433.6 2.5002 434.7 1.2002 436C1.3002 436.1 1.4002 436.2 1.5002 436.3C4.1002 438.9 6.7002 441.5 9.2002 444C9.3002 444.1 9.4002 444.3 9.5002 444.4C9.1002 444.4 8.7002 444.4 8.3002 444.4C8.2002 444.3 8.1002 444.1 8.0002 444C7.2002 443.2 6.4002 442.4 5.6002 441.6C5.5002 441.4 5.4002 441.3 5.3002 441.1C5.2002 441.1 5.1002 441.2 5.1002 441.3C5.1002 442.3 5.1002 443.4 5.1002 444.5C4.8002 444.5 4.6002 444.5 4.3002 444.5C4.3002 443.2 4.3002 442 4.3002 440.7C4.3002 440.5 4.2002 440.2 4.1002 440.1C3.1002 439.1 2.2002 438.1 1.2002 437.2C1.1002 437.1 1.1002 437.1 0.900195 437C0.900195 437.3 0.900195 437.4 0.900195 437.6C0.900195 439.9 0.900195 442.2 0.900195 444.5C0.500195 444.5 0.100195 444.5 -0.299805 444.5C-0.299805 444.1 -0.299805 443.7 -0.299805 443.2C-0.199805 443.2 -0.0998047 443.3 0.000195324 443.4C0.000195324 441.2 0.000195324 439 0.000195324 436.8C-0.199805 436.8 -0.199805 436.9 -0.299805 437C-0.299805 436.3 -0.299805 435.7 -0.299805 435C-0.0998047 435.2 0.100195 435.4 0.300195 435.5C1.5002 434.3 2.7002 433.1 3.8002 432C2.5002 430.7 1.1002 429.3 -0.199805 427.8C-0.199805 427.4 -0.199805 427.1 -0.199805 426.7C-0.0998047 426.8 0.100195 426.9 0.200195 427C1.5002 428.3 2.9002 429.7 4.2002 431C4.3002 431.1 4.4002 431.2 4.5002 431.3C5.7002 430.1 6.9002 428.9 8.1002 427.7C7.8002 427.4 7.4002 427.1 7.1002 426.8C4.7002 424.4 2.2002 421.9 -0.199805 419.5C-0.199805 419.1 -0.199805 418.8 -0.199805 418.4C0.000195324 418.5 0.100195 418.6 0.200195 418.7C2.9002 421.4 5.6002 424.1 8.4002 426.9C8.5002 427 8.6002 427.1 8.7002 427.2C9.9002 426 11.1002 424.8 12.3002 423.6C8.2002 419.5 4.0002 415.4 -0.0998047 411.2C-0.0998047 410.8 -0.0998047 410.5 -0.0998047 410.1C0.100195 410.2 0.200195 410.3 0.400195 410.5C4.5002 414.6 8.6002 418.7 12.7002 422.8C12.8002 422.9 13.0002 423 13.0002 423.1C14.2002 421.9 15.4002 420.7 16.5002 419.6C11.2002 414.3 5.8002 408.9 0.400195 403.5C0.300195 403.6 0.100195 403.7 0.000195324 403.8C0.000195324 403.4 0.000195324 403.1 0.000195324 402.7C0.000195324 402.6 0.100195 402.4 0.100195 402.3C0.100195 400.1 0.100195 397.9 0.100195 395.8C0.100195 395.7 0.100195 395.5 0.000195324 395.4C0.000195324 394.7 0.000195324 394 0.000195324 393.3C0.200195 393.5 0.300195 393.6 0.500195 393.7C4.5002 389.7 8.5002 385.7 12.4002 381.8C11.3002 380.6 10.1002 379.5 8.9002 378.3C6.2002 381 3.4002 383.8 0.600195 386.7C0.400195 386.5 0.300195 386.4 0.100195 386.3C0.100195 385.9 0.100195 385.6 0.100195 385.2C0.300195 385.3 0.400195 385.4 0.600195 385.5C3.2002 382.9 5.8002 380.3 8.3002 377.8C7.1002 376.6 6.0002 375.5 4.8002 374.3C3.5002 375.6 2.0002 377.1 0.600195 378.5C0.400195 378.4 0.300195 378.3 0.100195 378.2C0.100195 377.8 0.100195 377.4 0.100195 377C0.300195 377.1 0.400195 377.3 0.600195 377.3C1.8002 376.1 3.0002 374.9 4.2002 373.7C3.1002 372.6 1.9002 371.4 0.700195 370.2C0.500195 370.4 0.400195 370.5 0.200195 370.7C0.200195 370 0.200195 369.3 0.200195 368.6C0.300195 368.7 0.400195 368.7 0.600195 368.8C0.600195 368.5 0.600195 368.4 0.600195 368.2C0.600195 366.2 0.600195 364.1 0.600195 362.1C0.600195 361.8 0.500195 361.6 0.200195 361.4C0.200195 361 0.200195 360.7 0.200195 360.3C0.300195 360.3 0.400195 360.4 0.600195 360.5C0.600195 360.3 0.600195 360.1 0.600195 360C0.600195 358 0.600195 356 0.600195 354C0.600195 353.7 0.600195 353.4 0.200195 353.2C0.200195 352.8 0.200195 352.5 0.200195 352.1C0.300195 352.1 0.400195 352.2 0.600195 352.3C0.600195 352.1 0.600195 351.9 0.600195 351.7C0.600195 349.7 0.600195 347.7 0.600195 345.7C0.600195 345.4 0.600195 345 0.200195 344.9C0.200195 344.5 0.200195 344.2 0.200195 343.8C0.300195 343.8 0.400195 343.9 0.500195 344C0.500195 341.8 0.500195 339.6 0.500195 337.4C0.300195 337.4 0.300195 337.5 0.200195 337.6C0.200195 336.9 0.200195 336.3 0.200195 335.6C0.400195 335.8 0.600195 336 0.800195 336.1C2.0002 334.9 3.2002 333.7 4.3002 332.6C3.0002 331.3 1.6002 329.9 0.300195 328.4C0.300195 328 0.300195 327.7 0.300195 327.3C0.400195 327.4 0.600195 327.5 0.700195 327.6C2.0002 328.9 3.4002 330.3 4.7002 331.6C4.8002 331.7 4.9002 331.8 5.0002 331.9C6.2002 330.7 7.4002 329.5 8.6002 328.3C8.3002 328 7.9002 327.7 7.6002 327.4C5.2002 325 2.7002 322.5 0.300195 320.1C0.300195 319.7 0.300195 319.4 0.300195 319C0.500195 319.1 0.600195 319.2 0.700195 319.3C3.4002 322 6.1002 324.7 8.9002 327.5C9.0002 327.6 9.1002 327.7 9.2002 327.8C10.4002 326.6 11.6002 325.4 12.8002 324.3C8.0002 320.3 3.8002 316.1 -0.299805 312C-0.299805 311.6 -0.299805 311.3 -0.299805 310.9C-0.0998047 311 0.00019531 311.1 0.200195 311.3C4.3002 315.4 8.4002 319.5 12.5002 323.6C12.6002 323.7 12.8002 323.8 12.8002 323.9C14.0002 322.7 15.2002 321.5 16.3002 320.4C11.0002 315 5.6002 309.7 0.200195 304.3C0.100195 304.4 -0.0998047 304.5 -0.199805 304.6C-0.199805 304.2 -0.199805 303.9 -0.199805 303.5C-0.199805 303.4 -0.0998047 303.2 -0.0998047 303.1C-0.0998047 300.9 -0.0998047 298.7 -0.0998047 296.6C-0.0998047 296.5 -0.0998047 296.3 -0.199805 296.2C-0.199805 295.5 -0.199805 294.8 -0.199805 294.1C0.000195324 294.3 0.100195 294.4 0.300195 294.5C4.3002 290.5 8.3002 286.5 12.2002 282.6C11.0002 281.4 9.9002 280.3 8.7002 279.1C6.0002 281.8 3.2002 284.6 0.400195 287.5C0.200195 286.1 0.000195332 286 -0.0998047 285.8ZM1.1002 367.8C1.2002 367.8 1.2002 367.8 1.3002 367.7C2.3002 366.7 3.3002 365.7 4.3002 364.7C4.4002 364.6 4.5002 364.4 4.5002 364.2C4.5002 356.3 4.5002 348.4 4.5002 340.4C4.5002 340.2 4.4002 340 4.3002 339.9C3.3002 338.9 2.3002 337.9 1.3002 336.9C1.3002 336.9 1.2002 336.9 1.1002 336.8C1.1002 347.2 1.1002 357.5 1.1002 367.8ZM1.1002 37.4001C1.1002 47.8001 1.1002 58.1 1.1002 68.5C1.2002 68.5 1.3002 68.4 1.3002 68.4C2.3002 67.4 3.3002 66.4 4.3002 65.4C4.4002 65.3 4.5002 65.1 4.5002 64.9C4.5002 57 4.5002 49.1001 4.5002 41.2001C4.5002 41.0001 4.5002 40.9001 4.4002 40.7001C3.3002 39.6001 2.3002 38.5001 1.1002 37.4001ZM1.1002 268C1.2002 268 1.3002 267.9 1.3002 267.9C2.3002 266.9 3.3002 265.9 4.3002 264.9C4.4002 264.8 4.5002 264.6 4.5002 264.4C4.5002 256.5 4.5002 248.6 4.5002 240.7C4.5002 240.5 4.4002 240.2 4.2002 240C3.3002 239 2.4002 238.1 1.4002 237.2C1.3002 237.1 1.2002 237 1.1002 237C1.1002 247.4 1.1002 257.7 1.1002 268ZM1.1002 137.2C1.1002 147.6 1.1002 157.9 1.1002 168.3C1.2002 168.3 1.2002 168.3 1.3002 168.2C2.3002 167.2 3.3002 166.2 4.4002 165.1C4.5002 165 4.6002 164.8 4.6002 164.6C4.6002 156.7 4.6002 148.8 4.6002 140.9C4.6002 140.7 4.6002 140.6 4.5002 140.4C3.3002 139.4 2.3002 138.3 1.1002 137.2ZM12.4002 382.4C11.4002 383.4 10.4002 384.4 9.4002 385.4C9.2002 385.6 9.1002 385.9 9.1002 386.1C9.1002 394.1 9.1002 402 9.1002 410C9.1002 410.2 9.2002 410.5 9.4002 410.7C10.3002 411.6 11.2002 412.5 12.1002 413.4C12.2002 413.5 12.3002 413.6 12.4002 413.7C12.4002 403.2 12.4002 392.9 12.4002 382.4ZM12.4002 114.4C12.4002 103.9 12.4002 93.6 12.4002 83.1C11.4002 84.1 10.5002 85 9.5002 86C9.2002 86.3 9.1002 86.6 9.1002 87C9.1002 94.7 9.1002 102.5 9.1002 110.2C9.1002 110.9 9.3002 111.4 9.8002 111.9C10.7002 112.6 11.5002 113.4 12.4002 114.4ZM12.3002 214.2C12.3002 203.7 12.3002 193.4 12.3002 182.9C11.3002 183.9 10.4002 184.8 9.4002 185.8C9.1002 186.1 9.0002 186.4 9.0002 186.8C9.0002 194.1 9.0002 201.5 9.0002 208.8C9.0002 209.5 8.8002 210.3 9.1002 210.9C9.4002 211.5 10.0002 211.9 10.5002 212.4C11.2002 212.9 11.7002 213.5 12.3002 214.2ZM12.4002 282.6C11.4002 283.6 10.6002 284.5 9.6002 285.4C9.2002 285.7 9.1002 286.1 9.1002 286.6C9.1002 288.5 9.1002 290.5 9.1002 292.4C9.1002 298.3 9.1002 304.2 9.1002 310C9.1002 310.4 9.2002 310.7 9.5002 310.9C10.2002 311.6 11.0002 312.4 11.7002 313.1C11.9002 313.3 12.1002 313.6 12.3002 313.8L12.4002 313.7C12.4002 303.4 12.4002 293.1 12.4002 282.6ZM8.1002 210L8.2002 209.9C8.2002 202.3 8.2002 194.7 8.2002 187.1C8.1002 187.1 8.1002 187.1 8.0002 187.2C7.0002 188.2 6.0002 189.2 5.1002 190.1C5.0002 190.2 5.0002 190.4 5.0002 190.6C5.0002 195.8 5.0002 201.1 5.0002 206.3C5.0002 206.5 5.1002 206.8 5.3002 207C6.0002 207.8 6.8002 208.5 7.5002 209.2C7.7002 209.5 7.9002 209.7 8.1002 210ZM8.2002 110.2C8.2002 102.5 8.2002 94.9 8.2002 87.2C8.0002 87.4 7.9002 87.4 7.8002 87.5C7.0002 88.4 6.3002 89.2 5.4002 90C5.1002 90.3 4.9002 90.7 4.9002 91.1C4.9002 96 4.9002 100.8 4.9002 105.6C4.9002 106.6 5.1002 107.3 5.9002 107.9C6.7002 108.6 7.4002 109.4 8.2002 110.2ZM8.1002 309.8C8.1002 309.8 8.2002 309.7 8.3002 309.7C8.3002 302.1 8.3002 294.5 8.3002 286.9C8.2002 286.9 8.2002 286.9 8.1002 287C7.1002 288 6.1002 289 5.2002 289.9C5.0002 290 5.0002 290.2 5.0002 290.4C5.0002 295.7 5.0002 300.9 5.0002 306.2C5.0002 306.4 5.1002 306.6 5.3002 306.8C5.9002 307.5 6.5002 308 7.1002 308.7C7.4002 309 7.8002 309.4 8.1002 309.8ZM8.2002 386.6C8.1002 386.6 8.1002 386.6 8.0002 386.7C7.0002 387.7 6.0002 388.7 5.1002 389.6C5.0002 389.8 5.0002 390 5.0002 390.2C5.0002 395.4 5.0002 400.7 5.0002 405.9C5.0002 406.1 5.1002 406.4 5.3002 406.6C6.0002 407.4 6.8002 408.1 7.5002 408.8C7.7002 409 7.9002 409.3 8.2002 409.6L8.3002 409.5C8.2002 401.9 8.2002 394.3 8.2002 386.6ZM5.4002 241.2C5.4002 248.8 5.4002 256.3 5.4002 263.9C6.4002 262.9 7.4002 261.9 8.4002 260.9C8.5002 260.8 8.6002 260.6 8.6002 260.4C8.6002 255.2 8.6002 250 8.6002 244.8C8.6002 244.6 8.6002 244.5 8.4002 244.3C7.4002 243.3 6.5002 242.3 5.4002 241.2ZM5.4002 141.4C5.4002 149 5.4002 156.5 5.4002 164C6.4002 163 7.4002 162 8.4002 161C8.5002 160.9 8.6002 160.7 8.6002 160.5C8.6002 155.3 8.6002 150.1 8.6002 144.9C8.6002 144.7 8.6002 144.6 8.4002 144.4C7.4002 143.5 6.4002 142.5 5.4002 141.4ZM5.3002 363.6C5.4002 363.5 5.5002 363.5 5.5002 363.4C6.4002 362.5 7.4002 361.6 8.3002 360.6C8.4002 360.5 8.5002 360.2 8.5002 360C8.5002 354.8 8.5002 349.7 8.5002 344.5C8.5002 344.3 8.4002 344 8.2002 343.8C7.4002 342.9 6.5002 342.1 5.6002 341.2C5.5002 341.1 5.4002 341 5.3002 341C5.3002 348.6 5.3002 356 5.3002 363.6ZM5.4002 64.3001C6.5002 63.2001 7.5002 62.3 8.4002 61.3C8.5002 61.2 8.6002 61 8.6002 60.8C8.6002 55.6 8.6002 50.4 8.6002 45.3C8.6002 45.1 8.5002 44.8 8.3002 44.6C7.6002 43.9 6.9002 43.2001 6.1002 42.4001C5.9002 42.2001 5.7002 41.9001 5.5002 41.7001L5.4002 41.8C5.4002 49.2 5.4002 56.7001 5.4002 64.3001ZM4.1002 291C3.9002 291.2 3.8002 291.2 3.8002 291.3C2.9002 292.2 2.0002 293 1.2002 294C1.0002 294.2 0.900195 294.5 0.900195 294.7C0.900195 297.2 0.900195 299.6 0.900195 302.1C0.900195 302.3 1.0002 302.6 1.2002 302.8C2.0002 303.7 3.0002 304.6 3.8002 305.5C3.9002 305.6 4.0002 305.7 4.1002 305.8C4.1002 300.7 4.1002 295.9 4.1002 291ZM4.1002 205.8C4.1002 200.9 4.1002 196.1 4.1002 191.2C4.0002 191.3 3.9002 191.3 3.9002 191.4C2.9002 192.4 2.0002 193.3 1.0002 194.3C0.900195 194.4 0.800195 194.6 0.800195 194.8C0.800195 197.3 0.800195 199.8 0.800195 202.2C0.800195 202.4 0.900195 202.7 1.1002 202.8C1.9002 203.7 2.8002 204.5 3.7002 205.4C3.8002 205.5 3.9002 205.6 4.1002 205.8ZM4.1002 91.4C4.0002 91.4 3.9002 91.5 3.9002 91.5C2.9002 92.5 1.9002 93.5 1.0002 94.4C0.900195 94.5 0.800195 94.7 0.800195 94.9C0.800195 97.4 0.800195 99.8 0.800195 102.3C0.800195 102.5 0.900195 102.8 1.1002 103C2.0002 103.9 2.9002 104.8 3.8002 105.7C3.9002 105.8 4.0002 105.9 4.1002 105.9C4.1002 101.1 4.1002 96.3 4.1002 91.4ZM4.1002 405.4C4.1002 400.5 4.1002 395.7 4.1002 390.8C4.0002 390.9 3.9002 390.9 3.9002 391C2.9002 392 2.0002 392.9 1.0002 393.9C0.900195 394 0.800195 394.2 0.800195 394.4C0.800195 396.9 0.800195 399.4 0.800195 401.8C0.800195 402 0.900195 402.3 1.1002 402.4C1.9002 403.3 2.8002 404.1 3.7002 405C3.8002 405.1 3.9002 405.2 4.1002 405.4Z" fill="#EEAF1C"/>
<path d="M-0.0996094 685.1C-0.0996094 684.7 -0.0996094 684.4 -0.0996094 684C0.100391 684.1 0.200391 684.2 0.400391 684.3C3.00039 681.7 5.60039 679.1 8.10039 676.6C6.90039 675.4 5.80039 674.3 4.60039 673.1C3.30039 674.4 1.80039 675.9 0.400391 677.3C0.200391 677.2 0.100391 677.1 -0.0996094 677C-0.0996094 676.6 -0.0996094 676.2 -0.0996094 675.8C0.100391 675.9 0.200391 676.1 0.400391 676.1C1.60039 674.9 2.80039 673.7 4.00039 672.5C2.90039 671.4 1.70039 670.2 0.500391 669C0.300391 669.2 0.200391 669.3 0.000390626 669.5C0.000390626 668.8 0.000390626 668.1 0.000390626 667.4C0.100391 667.5 0.200391 667.5 0.400391 667.6C0.400391 667.3 0.400391 667.2 0.400391 667C0.400391 665 0.400391 662.9 0.400391 660.9C0.400391 660.6 0.300391 660.4 0.000390626 660.2C0.000390626 659.8 0.000390626 659.5 0.000390626 659.1C0.100391 659.1 0.200391 659.2 0.400391 659.3C0.400391 659.1 0.400391 658.9 0.400391 658.8C0.400391 656.8 0.400391 654.8 0.400391 652.8C0.400391 652.5 0.400391 652.2 0.000390626 652C0.000390626 651.6 0.000390626 651.3 0.000390626 650.9C0.100391 650.9 0.200391 651 0.400391 651.1C0.400391 650.9 0.400391 650.7 0.400391 650.5C0.400391 648.5 0.400391 646.5 0.400391 644.5C0.400391 644.2 0.400391 643.8 0.000390626 643.7C0.000390626 643.3 0.000390626 643 0.000390626 642.6C0.100391 642.6 0.200391 642.7 0.300391 642.8C0.300391 640.6 0.300391 638.4 0.300391 636.2C0.100391 636.2 0.100391 636.3 0.000390626 636.4C0.000390626 635.7 0.000390626 635.1 0.000390626 634.4C0.200391 634.6 0.400391 634.8 0.600391 634.9C1.80039 633.7 3.00039 632.5 4.10039 631.4C2.80039 630.1 1.40039 628.7 0.100391 627.2C0.100391 626.8 0.100391 626.5 0.100391 626.1C0.200391 626.2 0.400391 626.3 0.500391 626.4C1.80039 627.7 3.20039 629.1 4.50039 630.4C4.60039 630.5 4.70039 630.6 4.80039 630.7C6.00039 629.5 7.20039 628.3 8.40039 627.1C8.10039 626.8 7.70039 626.5 7.40039 626.2C5.00039 623.8 2.50039 621.3 0.100391 618.9C0.100391 618.5 0.100391 618.2 0.100391 617.8C0.300391 617.9 0.400391 618 0.500391 618.1C3.20039 620.8 5.90039 623.5 8.70039 626.3C8.80039 626.4 8.90039 626.5 9.00039 626.6C10.2004 625.4 11.4004 624.2 12.6004 623.1C8.50039 619 4.30039 614.9 0.200391 610.7C0.200391 610.3 0.200391 610 0.200391 609.6C0.400391 609.7 0.500391 609.8 0.700391 610C4.80039 614.1 8.90039 618.2 13.0004 622.3C13.1004 622.4 13.3004 622.5 13.3004 622.6C14.5004 621.4 15.7004 620.2 16.8004 619.1C11.5004 613.8 6.10039 608.4 0.700391 603C0.600391 603.1 0.400391 603.2 0.300391 603.3C0.300391 602.9 0.300391 602.6 0.300391 602.2C0.300391 602.1 0.400391 601.9 0.400391 601.8C0.400391 599.6 0.400391 597.4 0.400391 595.3C0.400391 595.2 0.400391 595 0.300391 594.9C0.300391 594.2 0.300391 593.5 0.300391 592.8C0.500391 593 0.600391 593.1 0.800391 593.2C4.80039 589.2 8.80039 585.2 12.7004 581.3C11.6004 580.1 10.4004 579 9.20039 577.8C6.50039 580.5 3.70039 583.3 0.900391 586.2C0.700391 586 0.600391 585.9 0.400391 585.8C0.400391 585.4 0.400391 585.1 0.400391 584.7C0.600391 584.8 0.700391 584.9 0.900391 585C3.50039 582.4 6.10039 579.8 8.60039 577.3C7.40039 576.1 6.30039 575 5.10039 573.8C3.80039 575.1 2.30039 576.6 0.900391 578C0.700391 577.9 0.600391 577.8 0.400391 577.7C0.400391 577.3 0.400391 576.9 0.400391 576.5C0.600391 576.6 0.700391 576.8 0.900391 576.8C2.10039 575.6 3.30039 574.4 4.50039 573.2C3.40039 572.1 2.20039 570.9 1.00039 569.7C0.800391 569.9 0.700391 570 0.500391 570.2C0.500391 569.5 0.500391 568.8 0.500391 568.1C0.600391 568.2 0.700391 568.2 0.900391 568.3C0.900391 568 0.900391 567.9 0.900391 567.7C0.900391 565.7 0.900391 563.6 0.900391 561.6C0.900391 561.3 0.800391 561.1 0.500391 560.9C0.500391 560.5 0.500391 560.2 0.500391 559.8C0.600391 559.8 0.700391 559.9 0.900391 560C0.900391 559.8 0.900391 559.6 0.900391 559.5C0.900391 557.5 0.900391 555.5 0.900391 553.5C0.900391 553.2 0.900391 552.9 0.500391 552.7C0.500391 552.3 0.500391 552 0.500391 551.6C0.600391 551.6 0.700391 551.7 0.900391 551.8C0.900391 551.6 0.900391 551.4 0.900391 551.2C0.900391 549.2 0.900391 547.2 0.900391 545.2C0.900391 544.9 0.900391 544.5 0.500391 544.4C0.500391 544 0.500391 543.7 0.500391 543.3C0.600391 543.3 0.700391 543.4 0.800391 543.5C0.800391 541.3 0.800391 539.1 0.800391 536.9C0.600391 536.9 0.600391 537 0.500391 537.1C0.500391 536.4 0.500391 535.8 0.500391 535.1C0.700391 535.3 0.900391 535.5 1.10039 535.6C2.30039 534.4 3.50039 533.2 4.60039 532.1C3.30039 530.8 1.90039 529.4 0.600391 527.9C0.600391 527.5 0.600391 527.2 0.600391 526.8C0.700391 526.9 0.900391 527 1.00039 527.1C2.30039 528.4 3.70039 529.8 5.00039 531.1C5.10039 531.2 5.20039 531.3 5.30039 531.4C6.50039 530.2 7.70039 529 8.90039 527.8C8.60039 527.5 8.20039 527.2 7.90039 526.9C5.50039 524.5 3.00039 522 0.600391 519.6C0.600391 519.2 0.600391 518.9 0.600391 518.5C0.800391 518.6 0.900391 518.7 1.00039 518.8C3.70039 521.5 6.40039 524.2 9.20039 527C9.30039 527.1 9.40039 527.2 9.50039 527.3C10.7004 526.1 11.9004 524.9 13.1004 523.7C9.00039 519.6 4.80039 515.5 0.700391 511.3C0.700391 510.9 0.700391 510.6 0.700391 510.2C0.900391 510.3 1.00039 510.4 1.20039 510.6C5.30039 514.7 9.40039 518.8 13.5004 522.9C13.6004 523 13.8004 523.1 13.8004 523.2C15.0004 522 16.2004 520.8 17.3004 519.7C12.0004 514.4 6.60039 509 1.20039 503.6C1.10039 503.7 0.900391 503.8 0.800391 503.9C0.800391 503.5 0.800391 503.2 0.800391 502.8C0.800391 502.7 0.900391 502.5 0.900391 502.4C0.900391 500.2 0.900391 498 0.900391 495.9C0.900391 495.8 0.900391 495.6 0.800391 495.5C0.800391 494.8 0.800391 494.1 0.800391 493.4C1.00039 493.6 1.10039 493.7 1.30039 493.8C5.30039 489.8 9.30039 485.8 13.2004 481.9C12.1004 480.7 10.9004 479.6 9.70039 478.4C7.00039 481.1 4.20039 483.9 1.40039 486.8C1.20039 486.6 1.10039 486.5 0.900391 486.4C0.900391 486 0.900391 485.7 0.900391 485.3C1.10039 485.4 1.20039 485.5 1.40039 485.6C4.00039 483 6.60039 480.4 9.10039 477.9C7.90039 476.7 6.80039 475.6 5.60039 474.4C4.30039 475.7 2.80039 477.2 1.40039 478.6C1.20039 478.5 1.10039 478.4 0.900391 478.3C0.900391 477.9 0.900391 477.5 0.900391 477.1C1.10039 477.2 1.20039 477.4 1.40039 477.4C2.60039 476.2 3.80039 475 5.00039 473.8C3.90039 472.7 2.70039 471.5 1.50039 470.3C1.30039 470.5 1.20039 470.6 1.00039 470.8C1.00039 470.1 1.00039 469.4 1.00039 468.7C1.10039 468.8 1.20039 468.8 1.40039 468.9C1.40039 468.6 1.40039 468.5 1.40039 468.3C1.40039 466.3 1.40039 464.2 1.40039 462.2C1.40039 461.9 1.30039 461.7 1.00039 461.5C1.00039 461.1 1.00039 460.8 1.00039 460.4C1.10039 460.4 1.20039 460.5 1.40039 460.6C1.40039 460.4 1.40039 460.2 1.40039 460.1C1.40039 458.1 1.40039 456.1 1.40039 454.1C1.40039 453.8 1.40039 453.5 1.00039 453.3C1.00039 452.9 1.00039 452.6 1.00039 452.2C1.10039 452.2 1.20039 452.3 1.40039 452.4C1.40039 452.2 1.40039 452 1.40039 451.8C1.40039 449.8 1.40039 447.8 1.40039 445.8C1.40039 445.5 1.40039 445.1 1.00039 445C1.00039 444.6 1.00039 444.3 1.00039 443.9C1.10039 443.9 1.20039 444 1.30039 444.1C1.30039 441.9 1.30039 439.7 1.30039 437.5C1.10039 437.5 1.10039 437.6 1.00039 437.7C1.00039 437 1.00039 436.4 1.00039 435.7C1.20039 435.9 1.40039 436.1 1.60039 436.2C2.80039 435 4.00039 433.8 5.10039 432.7C3.80039 431.4 2.40039 430 1.10039 428.5C1.10039 428.1 1.10039 427.8 1.10039 427.4C1.20039 427.5 1.40039 427.6 1.50039 427.7C2.80039 429 4.20039 430.4 5.50039 431.7C5.60039 431.8 5.70039 431.9 5.80039 432C7.00039 430.8 8.20039 429.6 9.40039 428.4C9.10039 428.1 8.70039 427.8 8.40039 427.5C6.00039 425.1 3.50039 422.6 1.10039 420.2C1.10039 419.8 1.10039 419.5 1.10039 419.1C1.30039 419.2 1.40039 419.3 1.50039 419.4C4.20039 422.1 6.90039 424.8 9.70039 427.6C9.80039 427.7 9.90039 427.8 10.0004 427.9C11.2004 426.7 12.4004 425.5 13.6004 424.4C9.50039 420.3 5.30039 416.2 1.20039 412C1.20039 411.6 1.20039 411.3 1.20039 410.9C1.40039 411 1.50039 411.1 1.70039 411.3C5.80039 415.4 9.90039 419.5 14.0004 423.6C14.1004 423.7 14.3004 423.8 14.3004 423.9C15.5004 422.7 16.7004 421.5 17.8004 420.4C12.5004 415.1 7.10039 409.7 1.70039 404.3C1.60039 404.4 1.40039 404.5 1.30039 404.6C1.30039 403.6 1.30039 402.5 1.30039 401.4C1.60039 401.4 1.90039 401.4 2.20039 401.4C2.20039 401.9 2.20039 402.5 2.20039 403C2.20039 403.2 2.30039 403.5 2.50039 403.7C3.40039 404.6 4.30039 405.5 5.20039 406.4C5.30039 406.5 5.40039 406.6 5.50039 406.7C5.50039 404.9 5.50039 403.2 5.50039 401.5C5.80039 401.5 6.00039 401.5 6.30039 401.5C6.30039 403.4 6.30039 405.4 6.30039 407.3C6.30039 407.5 6.40039 407.8 6.50039 407.9C7.40039 408.8 8.30039 409.7 9.20039 410.6C9.30039 410.7 9.40039 410.7 9.50039 410.8C9.50039 409.5 9.50039 408.3 9.50039 407.2C9.50039 405.3 9.50039 403.4 9.50039 401.5C9.80039 401.5 10.0004 401.5 10.3004 401.5C10.3004 404.9 10.3004 408.2 10.3004 411.5C10.3004 411.7 10.4004 411.9 10.5004 412C11.4004 412.9 12.3004 413.8 13.2004 414.7C13.3004 414.8 13.4004 414.8 13.5004 414.9C13.5004 414.6 13.5004 414.4 13.5004 414.2C13.5004 410.1 13.5004 406 13.5004 401.9C13.5004 401.7 13.5004 401.5 13.5004 401.3C13.7004 401.3 14.0004 401.3 14.2004 401.3C14.2004 401.5 14.2004 401.7 14.2004 402C14.2004 406.4 14.2004 410.8 14.2004 415.3C14.2004 415.5 14.2004 415.8 14.4004 416C15.5004 417.1 16.6004 418.2 17.7004 419.3C17.7004 420 17.7004 420.7 17.7004 421.4C16.7004 422.4 15.8004 423.4 14.8004 424.5C15.7004 425.4 16.7004 426.4 17.7004 427.4C17.7004 427.8 17.7004 428.1 17.7004 428.5C17.0004 427.8 16.3004 427.2 15.6004 426.5C15.1004 426 14.6004 425.5 14.2004 425.1C13.0004 426.3 11.8004 427.5 10.7004 428.6C10.7004 428.6 10.8004 428.7 10.9004 428.8C13.1004 431 15.3004 433.2 17.5004 435.4C17.6004 435.5 17.7004 435.5 17.8004 435.6C17.8004 436 17.8004 436.4 17.8004 436.8C17.7004 436.7 17.5004 436.6 17.4004 436.5C15.1004 434.2 12.8004 431.9 10.5004 429.6C10.3004 429.4 10.3004 429.3 10.2004 429.2C8.90039 430.5 7.80039 431.7 6.60039 432.8C6.60039 432.8 6.70039 432.9 6.80039 433C10.4004 436.6 14.0004 440.2 17.5004 443.7C17.6004 443.8 17.7004 443.9 17.8004 443.9C17.8004 444.3 17.8004 444.7 17.8004 445.1C17.6004 444.9 17.5004 444.8 17.4004 444.7C13.7004 441 10.1004 437.4 6.40039 433.7C6.20039 433.5 6.10039 433.4 6.10039 433.4C4.90039 434.6 3.70039 435.8 2.60039 436.9C2.70039 437 2.80039 437.1 2.90039 437.2C6.60039 440.9 10.2004 444.5 13.9004 448.2C15.2004 449.5 16.6004 450.9 17.9004 452.2C17.9004 452.6 17.9004 452.9 17.9004 453.3C17.8004 453.2 17.6004 453.1 17.5004 453C15.3004 450.8 13.2004 448.7 11.0004 446.5C10.9004 446.4 10.8004 446.2 10.8004 446C10.8004 446 10.7004 446.1 10.6004 446.2C10.6004 451 10.6004 455.7 10.6004 460.5C10.6004 460.5 10.7004 460.5 10.7004 460.6C10.8004 460.5 10.9004 460.3 11.0004 460.2C13.2004 458 15.3004 455.9 17.4004 453.8C17.5004 453.7 17.7004 453.6 17.8004 453.5C17.8004 453.9 17.8004 454.2 17.8004 454.6C17.6004 454.8 17.5004 454.9 17.4004 455C14.9004 457.5 12.4004 460 9.90039 462.5C7.50039 464.9 5.20039 467.2 2.80039 469.6C2.70039 469.7 2.60039 469.9 2.50039 469.9C3.70039 471.1 4.90039 472.3 6.10039 473.5C6.20039 473.3 6.30039 473.2 6.40039 473C10.1004 469.3 13.7004 465.6 17.4004 462C17.5004 461.9 17.7004 461.8 17.8004 461.7C17.8004 462.1 17.8004 462.5 17.8004 462.9C17.7004 463 17.6004 463.1 17.5004 463.2C14.0004 466.7 10.4004 470.3 6.90039 473.8C6.80039 473.9 6.70039 474 6.60039 474.1C7.80039 475.3 9.00039 476.5 10.1004 477.6C10.2004 477.5 10.3004 477.4 10.5004 477.3C12.8004 475 15.1004 472.7 17.4004 470.4C17.5004 470.3 17.7004 470.2 17.8004 470.1C17.8004 470.5 17.8004 470.9 17.8004 471.3C17.7004 471.4 17.6004 471.5 17.5004 471.5C15.3004 473.7 13.1004 475.9 10.9004 478.1C10.8004 478.2 10.7004 478.3 10.7004 478.3C11.9004 479.5 13.1004 480.7 14.2004 481.8C15.0004 481 16.0004 480 16.9004 479.1C17.2004 478.8 17.4004 478.6 17.7004 478.4C17.7004 478.8 17.7004 479.1 17.7004 479.5C16.7004 480.5 15.7004 481.5 14.8004 482.4C15.8004 483.4 16.8004 484.4 17.7004 485.4C17.7004 485.8 17.7004 486.1 17.7004 486.5C17.6004 486.4 17.4004 486.3 17.3004 486.2C16.4004 485.3 15.5004 484.4 14.6004 483.5C14.5004 483.4 14.4004 483.3 14.2004 483.2C14.2004 483.5 14.2004 483.7 14.2004 483.9C14.2004 489.8 14.2004 495.7 14.2004 501.6C14.2004 506.1 14.2004 510.6 14.2004 515.2C14.2004 515.4 14.2004 515.7 14.4004 515.9C15.5004 517 16.6004 518.1 17.7004 519.2C17.7004 519.9 17.7004 520.6 17.7004 521.3C16.7004 522.3 15.8004 523.3 14.8004 524.4C15.7004 525.3 16.7004 526.3 17.7004 527.3C17.7004 527.7 17.7004 528 17.7004 528.4C17.0004 527.7 16.3004 527.1 15.6004 526.4C15.1004 525.9 14.6004 525.4 14.2004 525C13.0004 526.2 11.8004 527.4 10.7004 528.5C10.7004 528.5 10.8004 528.6 10.9004 528.7C13.1004 530.9 15.3004 533.1 17.5004 535.3C17.6004 535.4 17.7004 535.4 17.8004 535.5C17.8004 535.9 17.8004 536.3 17.8004 536.7C17.7004 536.6 17.5004 536.5 17.4004 536.4C15.1004 534.1 12.8004 531.8 10.5004 529.5C10.3004 529.3 10.3004 529.2 10.2004 529.1C8.90039 530.4 7.80039 531.6 6.60039 532.7C6.60039 532.7 6.70039 532.8 6.80039 532.9C10.4004 536.5 14.0004 540.1 17.5004 543.6C17.6004 543.7 17.7004 543.8 17.8004 543.8C17.8004 544.2 17.8004 544.6 17.8004 545C17.6004 544.8 17.5004 544.7 17.4004 544.6C13.7004 540.9 10.1004 537.3 6.40039 533.6C6.20039 533.4 6.10039 533.3 6.10039 533.3C4.90039 534.5 3.70039 535.7 2.60039 536.8C2.70039 536.9 2.80039 537 2.90039 537.1C6.60039 540.8 10.2004 544.4 13.9004 548.1C15.2004 549.4 16.6004 550.8 17.9004 552.1C17.9004 552.5 17.9004 552.8 17.9004 553.2C17.8004 553.1 17.6004 553 17.5004 552.9C15.3004 550.7 13.2004 548.6 11.0004 546.4C10.9004 546.3 10.8004 546.1 10.8004 545.9C10.8004 545.9 10.7004 546 10.6004 546.1C10.6004 550.9 10.6004 555.6 10.6004 560.4H10.7004C10.8004 560.3 10.9004 560.2 11.0004 560.1C13.2004 557.9 15.3004 555.8 17.4004 553.7C17.5004 553.6 17.7004 553.5 17.8004 553.4C17.8004 553.8 17.8004 554.1 17.8004 554.5C17.6004 554.7 17.5004 554.8 17.4004 554.9C14.9004 557.4 12.4004 559.9 9.90039 562.4C7.50039 564.8 5.20039 567.1 2.80039 569.5C2.70039 569.6 2.60039 569.8 2.50039 569.8C3.70039 571 4.90039 572.2 6.10039 573.4C6.20039 573.2 6.30039 573.1 6.40039 572.9C10.1004 569.2 13.7004 565.5 17.4004 561.9C17.5004 561.8 17.7004 561.7 17.8004 561.6C17.8004 562 17.8004 562.4 17.8004 562.8C17.7004 562.9 17.6004 563 17.5004 563.1C14.0004 566.6 10.4004 570.2 6.90039 573.7C6.80039 573.8 6.70039 573.9 6.60039 574C7.80039 575.2 9.00039 576.4 10.1004 577.5C10.2004 577.4 10.3004 577.3 10.5004 577.2C12.8004 574.9 15.1004 572.6 17.4004 570.3C17.5004 570.2 17.7004 570.1 17.8004 570C17.8004 570.4 17.8004 570.8 17.8004 571.2C17.7004 571.3 17.6004 571.4 17.5004 571.4C15.3004 573.6 13.1004 575.8 10.9004 578C10.8004 578.1 10.7004 578.2 10.7004 578.2C11.9004 579.4 13.1004 580.6 14.2004 581.7C15.0004 580.9 16.0004 579.9 16.9004 579C17.2004 578.7 17.4004 578.5 17.7004 578.3C17.7004 578.7 17.7004 579 17.7004 579.4C16.7004 580.4 15.7004 581.4 14.8004 582.3C15.8004 583.3 16.8004 584.3 17.7004 585.3C17.7004 585.7 17.7004 586 17.7004 586.4C17.6004 586.3 17.4004 586.2 17.3004 586.1C16.4004 585.2 15.5004 584.3 14.6004 583.4C14.5004 583.3 14.4004 583.2 14.2004 583.1C14.2004 583.4 14.2004 583.6 14.2004 583.8C14.2004 589.7 14.2004 595.6 14.2004 601.5C14.2004 606 14.2004 610.5 14.2004 615.1C14.2004 615.3 14.2004 615.6 14.4004 615.8C15.5004 616.9 16.6004 618 17.7004 619.1C17.7004 619.8 17.7004 620.5 17.7004 621.2C16.7004 622.2 15.8004 623.2 14.8004 624.3C15.7004 625.2 16.7004 626.2 17.7004 627.2C17.7004 627.6 17.7004 627.9 17.7004 628.3C17.0004 627.6 16.3004 627 15.6004 626.3C15.1004 625.8 14.6004 625.3 14.2004 624.9C13.0004 626.1 11.8004 627.3 10.7004 628.4C10.7004 628.4 10.8004 628.5 10.9004 628.6C13.1004 630.8 15.3004 633 17.5004 635.2C17.6004 635.3 17.7004 635.3 17.8004 635.4C17.8004 635.8 17.8004 636.2 17.8004 636.6C17.7004 636.5 17.5004 636.4 17.4004 636.3C15.1004 634 12.8004 631.7 10.5004 629.4C10.3004 629.2 10.3004 629.1 10.2004 629C8.90039 630.3 7.80039 631.5 6.60039 632.6C6.60039 632.6 6.70039 632.7 6.80039 632.8C10.4004 636.4 14.0004 640 17.5004 643.5C17.6004 643.6 17.7004 643.7 17.8004 643.7C17.8004 644.1 17.8004 644.5 17.8004 644.9C17.6004 644.7 17.5004 644.6 17.4004 644.5C13.7004 640.8 10.1004 637.2 6.40039 633.5C6.20039 633.3 6.10039 633.2 6.10039 633.2C4.90039 634.4 3.70039 635.6 2.60039 636.7C2.70039 636.8 2.80039 636.9 2.90039 637C6.60039 640.7 10.2004 644.3 13.9004 648C15.2004 649.3 16.6004 650.7 17.9004 652C17.9004 652.4 17.9004 652.7 17.9004 653.1C17.8004 653 17.6004 652.9 17.5004 652.8C15.3004 650.6 13.2004 648.5 11.0004 646.3C10.9004 646.2 10.8004 646 10.8004 645.8C10.8004 645.8 10.7004 645.9 10.6004 646C10.6004 650.8 10.6004 655.5 10.6004 660.4C10.8004 660.2 10.9004 660.1 11.0004 660C13.2004 657.8 15.3004 655.7 17.4004 653.6C17.5004 653.5 17.7004 653.4 17.8004 653.3C17.8004 653.7 17.8004 654 17.8004 654.4C17.6004 654.6 17.5004 654.7 17.4004 654.8C14.9004 657.3 12.4004 659.8 9.90039 662.3C7.50039 664.7 5.20039 667 2.80039 669.4C2.70039 669.5 2.60039 669.7 2.50039 669.7C3.70039 670.9 4.90039 672.1 6.10039 673.3C6.20039 673.1 6.30039 673 6.40039 672.8C10.1004 669.1 13.7004 665.4 17.4004 661.8C17.5004 661.7 17.7004 661.6 17.8004 661.5C17.8004 661.9 17.8004 662.3 17.8004 662.7C17.7004 662.8 17.6004 662.9 17.5004 663C14.0004 666.5 10.4004 670.1 6.90039 673.6C6.80039 673.7 6.70039 673.8 6.60039 673.9C7.80039 675.1 9.00039 676.3 10.1004 677.4C10.2004 677.3 10.3004 677.2 10.5004 677.1C12.8004 674.8 15.1004 672.5 17.4004 670.2C17.5004 670.1 17.7004 670 17.8004 669.9C17.8004 670.3 17.8004 670.7 17.8004 671.1C17.7004 671.2 17.6004 671.3 17.5004 671.3C15.3004 673.5 13.1004 675.7 10.9004 677.9C10.8004 678 10.7004 678.1 10.7004 678.1C11.9004 679.3 13.1004 680.5 14.2004 681.6C15.1004 680.7 16.0004 679.8 16.9004 678.9C17.2004 678.6 17.4004 678.4 17.7004 678.2C17.7004 678.6 17.7004 678.9 17.7004 679.3C16.7004 680.3 15.7004 681.3 14.8004 682.2C15.8004 683.2 16.8004 684.2 17.7004 685.2C17.7004 685.6 17.7004 685.9 17.7004 686.3C17.6004 686.2 17.4004 686.1 17.3004 686C16.4004 685.1 15.5004 684.2 14.6004 683.3C14.5004 683.2 14.4004 683.1 14.2004 683C14.2004 683.3 14.2004 683.5 14.2004 683.7C14.2004 689.6 14.2004 695.5 14.2004 701.4C14.2004 705.9 14.2004 710.4 14.2004 715C14.2004 715.2 14.2004 715.5 14.4004 715.7C15.5004 716.8 16.6004 717.9 17.7004 719C17.7004 719.7 17.7004 720.4 17.7004 721.1C16.7004 722.1 15.8004 723.1 14.8004 724.2C15.7004 725.1 16.7004 726.1 17.7004 727.1C17.7004 727.5 17.7004 727.8 17.7004 728.2C17.0004 727.5 16.3004 726.9 15.6004 726.2C15.1004 725.7 14.6004 725.2 14.2004 724.8C13.0004 726 11.8004 727.2 10.7004 728.3C10.7004 728.3 10.8004 728.4 10.9004 728.5C13.1004 730.7 15.3004 732.9 17.5004 735.1C17.6004 735.2 17.7004 735.2 17.8004 735.3C17.8004 735.7 17.8004 736.1 17.8004 736.5C17.7004 736.4 17.5004 736.3 17.4004 736.2C15.1004 733.9 12.8004 731.6 10.5004 729.3C10.3004 729.1 10.3004 729 10.2004 728.9C8.90039 730.2 7.80039 731.4 6.60039 732.5C6.60039 732.5 6.70039 732.6 6.80039 732.7C10.4004 736.3 14.0004 739.9 17.5004 743.4C17.6004 743.5 17.7004 743.6 17.8004 743.6C17.8004 744 17.8004 744.4 17.8004 744.8C17.6004 744.6 17.5004 744.5 17.4004 744.4C13.7004 740.7 10.1004 737.1 6.40039 733.4C6.20039 733.2 6.10039 733.1 6.10039 733.1C4.90039 734.3 3.70039 735.5 2.60039 736.6C2.70039 736.7 2.80039 736.8 2.90039 736.9C6.60039 740.6 10.2004 744.2 13.9004 747.9C15.2004 749.2 16.6004 750.6 17.9004 751.9C17.9004 752.3 17.9004 752.6 17.9004 753C17.8004 752.9 17.6004 752.8 17.5004 752.7C15.3004 750.5 13.2004 748.4 11.0004 746.2C10.9004 746.1 10.8004 745.9 10.8004 745.7C10.8004 745.7 10.7004 745.8 10.6004 745.9C10.6004 750.7 10.6004 755.4 10.6004 760.2C10.6004 760.2 10.7004 760.2 10.7004 760.3C10.8004 760.2 10.9004 760 11.0004 759.9C13.2004 757.7 15.3004 755.6 17.4004 753.5C17.5004 753.4 17.7004 753.3 17.8004 753.2C17.8004 753.6 17.8004 753.9 17.8004 754.3C17.6004 754.5 17.5004 754.6 17.4004 754.7C14.9004 757.2 12.4004 759.7 9.90039 762.2C7.50039 764.6 5.20039 766.9 2.80039 769.3C2.70039 769.4 2.60039 769.6 2.50039 769.6C3.70039 770.8 4.90039 772 6.10039 773.2C6.20039 773 6.30039 772.9 6.40039 772.7C10.1004 769 13.7004 765.3 17.4004 761.7C17.5004 761.6 17.7004 761.5 17.8004 761.4C17.8004 761.8 17.8004 762.2 17.8004 762.6C17.7004 762.7 17.6004 762.8 17.5004 762.9C14.0004 766.4 10.4004 770 6.90039 773.5C6.80039 773.6 6.70039 773.7 6.60039 773.8C7.80039 775 9.00039 776.2 10.1004 777.3C10.2004 777.2 10.3004 777.1 10.5004 777C12.8004 774.7 15.1004 772.4 17.4004 770.1C17.5004 770 17.7004 769.9 17.8004 769.8C17.8004 770.2 17.8004 770.6 17.8004 771C17.7004 771.1 17.6004 771.2 17.5004 771.2C15.3004 773.4 13.1004 775.6 10.9004 777.8C10.8004 777.9 10.7004 778 10.7004 778C11.9004 779.2 13.1004 780.4 14.2004 781.5C15.1004 780.6 16.0004 779.7 16.9004 778.8C17.2004 778.5 17.4004 778.3 17.7004 778.1C17.7004 778.5 17.7004 778.8 17.7004 779.2C16.7004 780.2 15.7004 781.2 14.8004 782.1C15.8004 783.1 16.8004 784.1 17.7004 785.1C17.7004 785.5 17.7004 785.8 17.7004 786.2C17.6004 786.1 17.4004 786 17.3004 785.9C16.4004 785 15.5004 784.1 14.6004 783.2C14.5004 783.1 14.4004 783 14.2004 782.9C14.2004 783.2 14.2004 783.4 14.2004 783.6C14.2004 789.5 14.2004 795.4 14.2004 801.3C14.2004 805.8 14.2004 810.3 14.2004 814.9C14.2004 815.1 14.2004 815.4 14.4004 815.6C15.5004 816.7 16.6004 817.8 17.7004 818.9C17.7004 819.6 17.7004 820.3 17.7004 821C16.7004 822 15.8004 823 14.8004 824.1C15.7004 825 16.7004 826 17.7004 827C17.7004 827.4 17.7004 827.7 17.7004 828.1C17.0004 827.4 16.3004 826.8 15.6004 826.1C15.1004 825.6 14.6004 825.1 14.2004 824.7C13.0004 825.9 11.8004 827.1 10.7004 828.2C10.7004 828.2 10.8004 828.3 10.9004 828.4C13.1004 830.6 15.3004 832.8 17.5004 835C17.6004 835.1 17.7004 835.1 17.8004 835.2C17.8004 835.6 17.8004 836 17.8004 836.4C17.7004 836.3 17.5004 836.2 17.4004 836.1C15.1004 833.8 12.8004 831.5 10.5004 829.2C10.3004 829 10.3004 828.9 10.2004 828.8C8.90039 830.1 7.80039 831.3 6.60039 832.4C6.60039 832.4 6.70039 832.5 6.80039 832.6C10.4004 836.2 14.0004 839.8 17.5004 843.3C17.6004 843.4 17.7004 843.5 17.8004 843.5C17.8004 843.9 17.8004 844.3 17.8004 844.7C17.6004 844.5 17.5004 844.4 17.4004 844.3C13.7004 840.6 10.1004 837 6.40039 833.3C6.20039 833.1 6.20039 833 6.10039 832.9C4.80039 834.2 3.70039 835.3 2.40039 836.6C2.50039 836.7 2.60039 836.8 2.70039 836.9C5.30039 839.5 7.90039 842.1 10.4004 844.6C10.5004 844.7 10.6004 844.9 10.7004 845C10.3004 845 9.90039 845 9.50039 845C9.40039 844.9 9.30039 844.7 9.20039 844.6C8.40039 843.8 7.60039 843 6.80039 842.2C6.70039 842 6.60039 841.9 6.50039 841.7C6.40039 841.7 6.30039 841.8 6.30039 841.9C6.30039 842.9 6.30039 844 6.30039 845.1C6.00039 845.1 5.80039 845.1 5.50039 845.1C5.50039 843.8 5.50039 842.6 5.50039 841.3C5.50039 841.1 5.40039 840.8 5.30039 840.7C4.30039 839.7 3.40039 838.7 2.40039 837.8C2.20039 836 2.20039 836 2.00039 835.9C2.00039 836.2 2.00039 836.3 2.00039 836.5C2.00039 838.8 2.00039 841.1 2.00039 843.4C1.60039 843.4 1.20039 843.4 0.800391 843.4C0.800391 843 0.800391 842.6 0.800391 842.1C0.900391 842.1 1.00039 842.2 1.10039 842.3C1.10039 840.1 1.10039 837.9 1.10039 835.7C0.900391 835.7 0.900391 835.8 0.800391 835.9C0.800391 835.2 0.800391 834.6 0.800391 833.9C1.00039 834.1 1.20039 834.3 1.40039 834.4C2.60039 833.2 3.80039 832 4.90039 830.9C3.60039 829.6 2.20039 828.2 0.900391 826.7C0.900391 826.3 0.900391 826 0.900391 825.6C1.00039 825.7 1.20039 825.8 1.30039 825.9C2.60039 827.2 4.00039 828.6 5.30039 829.9C5.40039 830 5.50039 830.1 5.60039 830.2C6.80039 829 8.00039 827.8 9.20039 826.6C8.90039 826.3 8.50039 826 8.20039 825.7C5.80039 823.3 3.30039 820.8 0.900391 818.4C0.900391 818 0.900391 817.7 0.900391 817.3C1.10039 817.4 1.20039 817.5 1.30039 817.6C4.00039 820.3 6.70039 823 9.50039 825.8C9.60039 825.9 9.70039 826 9.80039 826.1C11.0004 824.9 12.2004 823.7 13.4004 822.5C9.30039 818.4 5.10039 814.3 1.00039 810.1C1.00039 809.7 1.00039 809.4 1.00039 809C1.20039 809.1 1.30039 809.2 1.50039 809.4C5.60039 813.5 9.70039 817.6 13.8004 821.7C13.9004 821.8 14.1004 821.9 14.1004 822C15.3004 820.8 16.5004 819.6 17.6004 818.5C12.3004 813.2 6.90039 807.8 1.50039 802.4C1.40039 802.5 1.20039 802.6 1.10039 802.7C1.10039 802.3 1.10039 802 1.10039 801.6C1.10039 801.5 1.20039 801.3 1.20039 801.2C1.20039 799 1.20039 796.8 1.20039 794.7C1.20039 794.6 1.20039 794.4 1.10039 794.3C1.10039 793.6 1.10039 792.9 1.10039 792.2C1.30039 792.4 1.40039 792.5 1.60039 792.6C5.60039 788.6 9.60039 784.6 13.5004 780.7C12.4004 779.5 11.2004 778.4 10.0004 777.2C7.30039 779.9 4.50039 782.7 1.70039 785.6C1.50039 785.4 1.40039 785.3 1.20039 785.2C1.20039 784.8 1.20039 784.5 1.20039 784.1C1.40039 784.2 1.50039 784.3 1.70039 784.4C4.30039 781.8 6.90039 779.2 9.40039 776.7C8.20039 775.5 7.10039 774.4 5.90039 773.2C4.60039 774.5 3.10039 776 1.70039 777.4C1.50039 777.3 1.40039 777.2 1.20039 777.1C1.20039 776.7 1.20039 776.3 1.20039 775.9C1.40039 776 1.50039 776.2 1.70039 776.2C2.90039 775 4.10039 773.8 5.30039 772.6C4.20039 771.5 3.00039 770.3 1.80039 769.1C1.60039 769.3 1.50039 769.4 1.30039 769.6C1.30039 768.9 1.30039 768.2 1.30039 767.5C1.40039 767.6 1.50039 767.6 1.70039 767.7C1.70039 767.4 1.70039 767.3 1.70039 767.1C1.70039 765.1 1.70039 763 1.70039 761C1.70039 760.7 1.60039 760.5 1.30039 760.3C1.30039 759.9 1.30039 759.6 1.30039 759.2C1.40039 759.2 1.50039 759.3 1.70039 759.4C1.70039 759.2 1.70039 759 1.70039 758.9C1.70039 756.9 1.70039 754.9 1.70039 752.9C1.70039 752.6 1.70039 752.3 1.30039 752.1C1.30039 751.7 1.30039 751.4 1.30039 751C1.40039 751 1.50039 751.1 1.70039 751.2C1.70039 751 1.70039 750.8 1.70039 750.6C1.70039 748.6 1.70039 746.6 1.70039 744.6C1.70039 744.3 1.70039 743.9 1.30039 743.8C1.30039 743.4 1.30039 743.1 1.30039 742.7C1.40039 742.7 1.50039 742.8 1.60039 742.9C1.60039 740.7 1.60039 738.5 1.60039 736.3C1.40039 736.3 1.40039 736.4 1.30039 736.5C1.30039 735.8 1.30039 735.2 1.30039 734.5C1.50039 734.7 1.70039 734.9 1.90039 735C3.10039 733.8 4.30039 732.6 5.40039 731.5C4.10039 730.2 2.70039 728.8 1.40039 727.3C1.40039 726.9 1.40039 726.6 1.40039 726.2C1.50039 726.3 1.70039 726.4 1.80039 726.5C3.10039 727.8 4.50039 729.2 5.80039 730.5C5.90039 730.6 6.00039 730.7 6.10039 730.8C7.30039 729.6 8.50039 728.4 9.70039 727.2C9.40039 726.9 9.00039 726.6 8.70039 726.3C6.30039 723.9 3.80039 721.4 1.40039 719C1.40039 718.6 1.40039 718.3 1.40039 717.9C1.60039 718 1.70039 718.1 1.80039 718.2C4.50039 720.9 7.20039 723.6 10.0004 726.4C10.1004 726.5 10.2004 726.6 10.3004 726.7C11.5004 725.5 12.7004 724.3 13.9004 723.2C9.80039 719.1 5.60039 715 1.50039 710.8C1.50039 710.4 1.50039 710.1 1.50039 709.7C1.70039 709.8 1.80039 709.9 2.00039 710.1C6.10039 714.2 10.2004 718.3 14.3004 722.4C14.4004 722.5 14.6004 722.6 14.6004 722.7C15.8004 721.5 17.0004 720.3 18.1004 719.2C12.0004 713.4 6.60039 708 1.20039 702.7C1.10039 702.8 0.900391 702.9 0.800391 703C0.800391 702.6 0.800391 702.3 0.800391 701.9C0.800391 701.8 0.900391 701.6 0.900391 701.5C0.900391 699.3 0.900391 697.1 0.900391 695C0.900391 694.9 0.900391 694.7 0.800391 694.6C0.800391 693.9 0.800391 693.2 0.800391 692.5C1.00039 692.7 1.10039 692.8 1.30039 692.9C5.30039 688.9 9.30039 684.9 13.2004 681C12.0004 679.8 10.9004 678.7 9.70039 677.5C7.00039 680.2 4.20039 683 1.40039 685.9C0.200391 685.4 0.000390626 685.2 -0.0996094 685.1ZM1.10039 767.1C1.20039 767.1 1.20039 767.1 1.30039 767C2.30039 766 3.30039 765 4.30039 764C4.40039 763.9 4.50039 763.7 4.50039 763.5C4.50039 755.6 4.50039 747.7 4.50039 739.7C4.50039 739.5 4.40039 739.3 4.30039 739.2C3.30039 738.2 2.30039 737.2 1.30039 736.2C1.30039 736.2 1.20039 736.2 1.10039 736.1C1.10039 746.4 1.10039 756.7 1.10039 767.1ZM1.10039 436.6C1.10039 447 1.10039 457.3 1.10039 467.7C1.20039 467.7 1.30039 467.6 1.30039 467.6C2.30039 466.6 3.30039 465.6 4.30039 464.6C4.40039 464.5 4.50039 464.3 4.50039 464.1C4.50039 456.2 4.50039 448.3 4.50039 440.4C4.50039 440.2 4.50039 440.1 4.40039 439.9C3.30039 438.8 2.30039 437.8 1.10039 436.6ZM1.10039 667.3C1.20039 667.3 1.30039 667.2 1.30039 667.2C2.30039 666.2 3.30039 665.2 4.30039 664.2C4.40039 664.1 4.50039 663.9 4.50039 663.7C4.50039 655.8 4.50039 647.9 4.50039 640C4.50039 639.8 4.40039 639.5 4.20039 639.3C3.30039 638.3 2.40039 637.4 1.40039 636.5C1.30039 636.4 1.20039 636.3 1.10039 636.3C1.10039 646.6 1.10039 656.9 1.10039 667.3ZM1.10039 536.4C1.10039 546.8 1.10039 557.1 1.10039 567.5C1.20039 567.5 1.20039 567.5 1.30039 567.4C2.30039 566.4 3.30039 565.4 4.40039 564.3C4.50039 564.2 4.60039 564 4.60039 563.8C4.60039 555.9 4.60039 548 4.60039 540.1C4.60039 539.9 4.60039 539.8 4.50039 539.6C3.30039 538.6 2.30039 537.6 1.10039 536.4ZM12.4004 781.7C11.4004 782.7 10.4004 783.7 9.40039 784.7C9.20039 784.9 9.10039 785.2 9.10039 785.4C9.10039 793.4 9.10039 801.3 9.10039 809.3C9.10039 809.5 9.20039 809.8 9.40039 810C10.3004 810.9 11.2004 811.8 12.1004 812.7C12.2004 812.8 12.3004 812.9 12.4004 813C12.4004 802.5 12.4004 792.1 12.4004 781.7ZM12.4004 513.6C12.4004 503.1 12.4004 492.8 12.4004 482.3C11.4004 483.3 10.5004 484.2 9.50039 485.2C9.20039 485.5 9.10039 485.8 9.10039 486.2C9.10039 493.9 9.10039 501.7 9.10039 509.4C9.10039 510.1 9.30039 510.6 9.80039 511.1C10.7004 511.8 11.5004 512.7 12.4004 513.6ZM12.3004 613.4C12.3004 602.9 12.3004 592.6 12.3004 582.1C11.3004 583.1 10.4004 584 9.40039 585C9.10039 585.3 9.00039 585.6 9.00039 586C9.00039 593.3 9.00039 600.7 9.00039 608C9.00039 608.7 8.80039 609.5 9.10039 610.1C9.40039 610.7 10.0004 611.1 10.5004 611.6C11.2004 612.2 11.7004 612.8 12.3004 613.4ZM12.4004 681.9C11.4004 682.9 10.6004 683.8 9.60039 684.7C9.20039 685 9.10039 685.4 9.10039 685.9C9.10039 687.8 9.10039 689.8 9.10039 691.7C9.10039 697.6 9.10039 703.5 9.10039 709.3C9.10039 709.7 9.20039 710 9.50039 710.2C10.2004 710.9 11.0004 711.7 11.7004 712.4C11.9004 712.6 12.1004 712.9 12.3004 713.1L12.4004 713C12.4004 702.7 12.4004 692.3 12.4004 681.9ZM8.10039 609.2L8.20039 609.1C8.20039 601.5 8.20039 593.9 8.20039 586.3C8.10039 586.3 8.10039 586.3 8.00039 586.4C7.00039 587.4 6.00039 588.4 5.10039 589.3C5.00039 589.4 5.00039 589.7 5.00039 589.8C5.00039 595 5.00039 600.3 5.00039 605.5C5.00039 605.7 5.10039 606 5.30039 606.2C6.00039 607 6.80039 607.7 7.50039 608.4C7.70039 608.7 7.90039 609 8.10039 609.2ZM8.20039 509.5C8.20039 501.8 8.20039 494.2 8.20039 486.5C8.00039 486.7 7.90039 486.7 7.80039 486.8C7.00039 487.6 6.20039 488.4 5.40039 489.2C5.10039 489.5 4.90039 489.9 4.90039 490.3C4.90039 495.2 4.90039 500 4.90039 504.8C4.90039 505.8 5.10039 506.5 5.90039 507.1C6.70039 507.9 7.40039 508.6 8.20039 509.5ZM8.10039 709C8.10039 709 8.20039 708.9 8.30039 708.9C8.30039 701.3 8.30039 693.7 8.30039 686.1C8.20039 686.1 8.20039 686.1 8.10039 686.2C7.10039 687.2 6.10039 688.2 5.20039 689.1C5.00039 689.3 5.00039 689.5 5.00039 689.6C5.00039 694.9 5.00039 700.1 5.00039 705.4C5.00039 705.6 5.10039 705.8 5.30039 706C5.90039 706.7 6.50039 707.2 7.10039 707.9C7.40039 708.3 7.80039 708.6 8.10039 709ZM8.20039 785.9C8.10039 785.9 8.10039 785.9 8.00039 786C7.00039 787 6.00039 788 5.10039 788.9C5.00039 789 5.00039 789.3 5.00039 789.4C5.00039 794.6 5.00039 799.9 5.00039 805.1C5.00039 805.3 5.10039 805.6 5.30039 805.8C6.00039 806.6 6.80039 807.3 7.50039 808C7.70039 808.2 7.90039 808.5 8.20039 808.8L8.30039 808.7C8.20039 801.1 8.20039 793.5 8.20039 785.9ZM5.40039 640.4C5.40039 648 5.40039 655.5 5.40039 663.1C6.40039 662.1 7.40039 661.1 8.40039 660.1C8.50039 660 8.60039 659.8 8.60039 659.6C8.60039 654.4 8.60039 649.2 8.60039 644C8.60039 643.8 8.60039 643.7 8.40039 643.5C7.40039 642.5 6.50039 641.5 5.40039 640.4ZM5.40039 540.7C5.40039 548.3 5.40039 555.8 5.40039 563.3C6.40039 562.3 7.40039 561.3 8.40039 560.3C8.50039 560.2 8.60039 560 8.60039 559.8C8.60039 554.6 8.60039 549.4 8.60039 544.2C8.60039 544 8.60039 543.9 8.40039 543.7C7.40039 542.7 6.40039 541.7 5.40039 540.7ZM5.30039 762.9C5.40039 762.8 5.50039 762.8 5.50039 762.7C6.40039 761.8 7.40039 760.9 8.30039 759.9C8.40039 759.8 8.50039 759.5 8.50039 759.3C8.50039 754.1 8.50039 749 8.50039 743.8C8.50039 743.6 8.40039 743.3 8.20039 743.1C7.40039 742.2 6.50039 741.4 5.60039 740.5C5.50039 740.4 5.40039 740.3 5.30039 740.3C5.30039 747.8 5.30039 755.3 5.30039 762.9ZM5.40039 463.5C6.50039 462.4 7.50039 461.5 8.40039 460.5C8.50039 460.4 8.60039 460.2 8.60039 460C8.60039 454.8 8.60039 449.6 8.60039 444.5C8.60039 444.3 8.50039 444 8.30039 443.8C7.60039 443.1 6.90039 442.4 6.10039 441.6C5.90039 441.4 5.70039 441.1 5.50039 440.9L5.40039 441C5.40039 448.5 5.40039 455.9 5.40039 463.5ZM4.10039 690.2C3.90039 690.4 3.80039 690.4 3.80039 690.5C2.90039 691.4 2.00039 692.2 1.20039 693.2C1.00039 693.4 0.900391 693.7 0.900391 693.9C0.900391 696.4 0.900391 698.8 0.900391 701.3C0.900391 701.5 1.00039 701.8 1.20039 702C2.00039 702.9 3.00039 703.8 3.80039 704.7C3.90039 704.8 4.00039 704.9 4.10039 705C4.10039 699.9 4.10039 695.1 4.10039 690.2ZM4.10039 605.1C4.10039 600.2 4.10039 595.4 4.10039 590.5C4.00039 590.6 3.90039 590.6 3.90039 590.7C2.90039 591.7 2.00039 592.6 1.00039 593.6C0.900391 593.7 0.800391 593.9 0.800391 594.1C0.800391 596.6 0.800391 599.1 0.800391 601.5C0.800391 601.7 0.900391 602 1.10039 602.1C1.90039 603 2.80039 603.8 3.70039 604.7C3.80039 604.8 3.90039 604.9 4.10039 605.1ZM4.10039 490.7C4.00039 490.7 3.90039 490.8 3.90039 490.8C2.90039 491.8 1.90039 492.8 1.00039 493.7C0.900391 493.8 0.800391 494 0.800391 494.2C0.800391 496.7 0.800391 499.1 0.800391 501.6C0.800391 501.8 0.900391 502.1 1.10039 502.3C2.00039 503.2 2.90039 504.1 3.80039 505C3.90039 505.1 4.00039 505.2 4.10039 505.2C4.10039 500.4 4.10039 495.6 4.10039 490.7ZM4.10039 804.6C4.10039 799.7 4.10039 794.9 4.10039 790C4.00039 790.1 3.90039 790.1 3.90039 790.2C2.90039 791.2 2.00039 792.1 1.00039 793.1C0.900391 793.2 0.800391 793.4 0.800391 793.6C0.800391 796.1 0.800391 798.6 0.800391 801C0.800391 801.2 0.900391 801.5 1.10039 801.6C1.90039 802.5 2.80039 803.3 3.70039 804.2C3.80039 804.3 3.90039 804.4 4.10039 804.6Z" fill="#EEAF1C"/>
</g>
<defs>
<clipPath id="clip0_1632_2">
<rect width="17.4" height="841.9" fill="white"/>
</clipPath>
</defs>
</svg>
