<svg width="100" height="100" viewBox="0 0 100 100" fill="none" xmlns="http://www.w3.org/2000/svg">
<path d="M5 12.4959V22.5255C5 62.553 37.4594 95.0016 77.5 95.0016H87.5C91.6421 95.0016 95 91.6449 95 87.5041V74.683C95 71.4559 92.9343 68.5908 89.8717 67.5702L73.9554 62.2666C70.7469 61.1974 67.2194 62.4073 65.3433 65.2205L61.6985 70.6859C59.8224 73.4991 56.295 74.709 53.0864 73.6398L45.4594 71.0983C37.6381 68.4921 31.6372 62.1506 29.4679 54.1993L26.3326 42.707C25.2853 38.868 27.4204 34.8798 31.1966 33.6215L34.2094 32.6176C37.3614 31.5673 39.2805 28.3808 38.7343 25.1046L36.4267 11.2633C35.8239 7.64808 32.695 4.99836 29.0287 4.99836H12.5C8.35786 4.99836 5 8.35512 5 12.4959ZM0 12.4959C0 5.5946 5.59644 0 12.5 0H29.0287C35.1392 0 40.3541 4.41621 41.3586 10.4416L43.6663 24.2829C44.617 29.9851 41.2766 35.5313 35.7906 37.3594L32.7778 38.3634C31.519 38.7828 30.8073 40.1122 31.1564 41.3919L34.2917 52.8841C36.0211 59.2231 40.8052 64.2787 47.0406 66.3565L54.6676 68.898C55.7371 69.2544 56.9129 68.8511 57.5383 67.9133L61.1831 62.4479C64.3099 57.7592 70.189 55.7427 75.5366 57.5247L91.4528 62.8284C96.5571 64.5292 100 69.3044 100 74.683V87.5041C100 94.4054 94.4036 100 87.5 100H77.5C34.6979 100 0 65.3135 0 22.5255V12.4959Z" fill="#EEAF1C"/>
</svg>
