<svg width="100" height="100" viewBox="0 0 100 100" fill="none" xmlns="http://www.w3.org/2000/svg">
<g clip-path="url(#clip0_267_2)">
<path d="M51.6182 7.12853C51.3559 7.2889 51.1492 7.55001 51.0633 7.89844L50.1144 11.8393L45.6704 10.7671C45.0002 10.6054 44.3264 10.7302 43.7803 11.064C43.2343 11.3978 42.816 11.9406 42.6543 12.6108L41.5821 17.0547L37.1382 15.9826C36.468 15.8209 35.7941 15.9456 35.2481 16.2794C34.702 16.6132 34.2837 17.156 34.122 17.8262L33.0499 22.2702L28.6059 21.198C27.9357 21.0363 27.2619 21.1611 26.7158 21.4949C26.1698 21.8287 25.7515 22.3715 25.5898 23.0417L24.5176 27.4856L20.0737 26.4135C19.4035 26.2518 18.7297 26.3765 18.1836 26.7103C17.6375 27.0441 17.2193 27.5869 17.0576 28.2571L15.9854 32.7011L12.0467 31.7508C11.6961 31.6663 11.3708 31.7332 11.1085 31.8936C10.559 32.2266 10.2929 32.9752 10.6853 33.6173L46.6537 92.4599C47.0461 93.1019 47.8338 93.2065 48.382 92.8714C48.6443 92.711 48.851 92.4499 48.9369 92.1015L49.8858 88.1606L54.3298 89.2328C55 89.3945 55.6738 89.2697 56.2199 88.9359C56.7659 88.6022 57.1842 88.0593 57.3459 87.3891L58.4181 82.9452L62.862 84.0173C63.5322 84.179 64.2061 84.0543 64.7521 83.7205C65.2982 83.3867 65.7165 82.8439 65.8782 82.1737L66.9503 77.7297L71.3943 78.8019C72.0645 78.9636 72.7383 78.8388 73.2844 78.505C73.8304 78.1713 74.2487 77.6284 74.4104 76.9582L75.4826 72.5143L79.9265 73.5864C80.5967 73.7481 81.2705 73.6234 81.8166 73.2896C82.3627 72.9558 82.7809 72.413 82.9426 71.7428L84.0148 67.2988L87.9535 68.2491C88.3041 68.3337 88.6294 68.2667 88.8917 68.1063C89.4399 67.7712 89.706 67.0225 89.3136 66.3805L53.3465 7.54004C52.9541 6.89799 52.1664 6.79344 51.6182 7.12853ZM85.6081 65.1119L84.601 64.8689C83.9308 64.7072 83.257 64.832 82.7109 65.1658C82.1649 65.4996 81.7466 66.0424 81.5849 66.7126L80.5127 71.1565L76.0688 70.0844C75.3986 69.9227 74.7248 70.0474 74.1787 70.3812C73.6326 70.715 73.2143 71.2578 73.0526 71.928L71.9805 76.372L67.5366 75.2998C66.8664 75.1381 66.1925 75.2629 65.6465 75.5967C65.1004 75.9305 64.6821 76.4733 64.5204 77.1435L63.4483 81.5874L59.0043 80.5153C58.3341 80.3536 57.6603 80.4783 57.1142 80.8121C56.5682 81.1459 56.1499 81.6887 55.9882 82.3589L54.916 86.8029L50.4721 85.7307C49.8019 85.569 49.128 85.6938 48.582 86.0276C48.0359 86.3614 47.6176 86.9042 47.4559 87.5744L47.213 88.5814L14.3922 34.888L15.3992 35.131C16.0694 35.2927 16.7432 35.1679 17.2893 34.8341C17.8353 34.5004 18.2536 33.9575 18.4153 33.2873L19.4875 28.8434L23.9314 29.9155C24.6016 30.0772 25.2754 29.9525 25.8215 29.6187C26.3676 29.2849 26.7859 28.7421 26.9476 28.0719L28.0176 23.6292L28.0197 23.6279L32.4636 24.7001C33.1098 24.856 33.7885 24.7488 34.3537 24.4032C34.919 24.0577 35.326 23.5013 35.4798 22.8564L36.5519 18.4125L40.9959 19.4846C41.6682 19.645 42.3421 19.5203 42.886 19.1878C43.4321 18.854 43.8503 18.3112 44.012 17.641L45.0842 13.197L49.5281 14.2692C50.1721 14.4264 50.853 14.3179 51.4182 13.9723C51.9835 13.6268 52.3905 13.0704 52.5443 12.4255L52.7872 11.4185L85.6081 65.1119ZM38.9173 31.869C39.2771 32.4577 39.0914 33.2275 38.5027 33.5874L27.8374 40.1067C27.2486 40.4666 26.4788 40.2809 26.1189 39.6921C25.759 39.1034 25.9448 38.3335 26.5335 37.9737L37.1988 31.4544C37.7875 31.0945 38.5574 31.2802 38.9173 31.869ZM50.652 51.0665C51.0119 51.6552 50.8262 52.4251 50.2374 52.785L39.5721 59.3043C38.9834 59.6641 38.2135 59.4784 37.8537 58.8897C37.4938 58.3009 37.6796 57.5311 38.2683 57.1712L48.9336 50.6519C49.5223 50.292 50.2922 50.4778 50.652 51.0665ZM30.0305 46.0913C29.6706 45.5026 29.8564 44.7327 30.4451 44.3728L36.8443 40.4613C37.433 40.1014 38.2029 40.2871 38.5627 40.8759C38.9226 41.4646 38.7369 42.2345 38.1481 42.5943L31.749 46.5059C31.1602 46.8658 30.3904 46.68 30.0305 46.0913ZM55.6272 30.445C55.9871 31.0337 55.8013 31.8036 55.2126 32.1634L53.0796 33.4673C52.4908 33.8271 51.721 33.6414 51.3611 33.0527C51.0012 32.464 51.187 31.6941 51.7757 31.3342L53.9088 30.0304C54.4975 29.6705 55.2673 29.8562 55.6272 30.445ZM51.7156 24.0458C52.0755 24.6345 51.8898 25.4044 51.301 25.7642L49.168 27.0681C48.5792 27.428 47.8094 27.2422 47.4495 26.6535C47.0896 26.0648 47.2754 25.2949 47.8641 24.935L49.9972 23.6312C50.5859 23.2713 51.3558 23.4571 51.7156 24.0458ZM59.5388 36.8441C59.8987 37.4329 59.7129 38.2027 59.1242 38.5626L56.9911 39.8665C56.4024 40.2263 55.6325 40.0406 55.2727 39.4519C54.9128 38.8631 55.0986 38.0933 55.6873 37.7334L57.8203 36.4295C58.4091 36.0697 59.1789 36.2554 59.5388 36.8441ZM63.4504 43.2433C63.8103 43.832 63.6245 44.6019 63.0358 44.9618L60.9027 46.2656C60.314 46.6255 59.5441 46.4398 59.1843 45.851C58.8244 45.2623 59.0101 44.4924 59.5989 44.1326L61.7319 42.8287C62.3207 42.4688 63.0905 42.6546 63.4504 43.2433ZM71.2736 56.0417C71.6334 56.6304 71.4477 57.4003 70.859 57.7601L68.7259 59.064C68.1372 59.4239 67.3673 59.2381 67.0074 58.6494C66.6476 58.0607 66.8333 57.2908 67.422 56.9309L69.5551 55.6271C70.1438 55.2672 70.9137 55.4529 71.2736 56.0417ZM54.2091 66.4726C54.569 67.0613 54.3832 67.8312 53.7945 68.191L47.3953 72.1026C46.8066 72.4625 46.0367 72.2767 45.6769 71.688C45.317 71.0993 45.5027 70.3294 46.0915 69.9696L52.4906 66.058C53.0794 65.6981 53.8492 65.8838 54.2091 66.4726ZM33.9421 52.4905C33.5822 51.9018 33.768 51.1319 34.3567 50.772L42.8889 45.5566C43.4776 45.1967 44.2475 45.3824 44.6074 45.9712C44.9673 46.5599 44.7815 47.3298 44.1928 47.6896L35.6605 52.9051C35.0718 53.265 34.302 53.0792 33.9421 52.4905Z" fill="#757575"/>
</g>
<defs>
<clipPath id="clip0_267_2">
<rect width="72" height="72" fill="white" transform="translate(0.508301 38.0596) rotate(-31.4359)"/>
</clipPath>
</defs>
</svg>
