<svg width="150" height="125" viewBox="0 0 150 125" fill="none" xmlns="http://www.w3.org/2000/svg">
<path fill-rule="evenodd" clip-rule="evenodd" d="M54.1498 1.11836C21.9879 21.7734 4.12056 45.8135 0.547711 73.2395C-5.01441 115.935 33.1677 136.834 52.5141 118.057C71.8606 99.2801 60.2635 75.4463 46.2548 68.9315C32.246 62.4164 23.6791 64.6855 25.1735 55.9798C26.6679 47.2737 46.5981 23.1358 64.1077 11.8946C65.2694 10.9067 65.7114 8.98998 64.5929 7.53619C63.857 6.57952 62.4139 4.70407 60.2635 1.90911C58.3831 -0.534918 56.5816 -0.44348 54.1498 1.11836Z" fill="#EEAF1C"/>
<path fill-rule="evenodd" clip-rule="evenodd" d="M138.821 1.11836C106.66 21.7734 88.7925 45.8135 85.2195 73.2395C79.6576 115.935 117.84 136.834 137.186 118.057C156.533 99.2801 144.936 75.4463 130.927 68.9315C116.918 62.4164 108.351 64.6855 109.846 55.9798C111.34 47.2737 131.27 23.1358 148.78 11.8946C149.941 10.9067 150.383 8.98998 149.265 7.53619C148.529 6.57952 147.086 4.70407 144.936 1.90911C143.055 -0.534918 141.254 -0.44348 138.821 1.11836Z" fill="#EEAF1C"/>
</svg>
