<svg width="462" height="462" viewBox="0 0 462 462" fill="none" xmlns="http://www.w3.org/2000/svg">
<path d="M281.734 367.831H246.375V195.639H383.206C391.697 195.639 398.582 188.756 398.582 180.266V104.162C398.582 95.6714 391.697 88.7865 383.206 88.7865H78.7936C70.3033 88.7865 63.4185 95.6714 63.4185 104.162V180.266C63.4185 188.756 70.3033 195.639 78.7936 195.639H215.625V367.831H180.266C171.774 367.831 164.89 374.716 164.89 383.207C164.89 391.697 171.774 398.582 180.266 398.582H281.734C290.225 398.582 297.11 391.697 297.11 383.207C297.11 374.716 290.225 367.831 281.734 367.831ZM94.1671 119.537H367.833V164.89H94.1671V119.537Z" fill="#4E3909"/>
<path d="M0 383.206C0 391.697 6.88489 398.582 15.3751 398.582C23.8653 398.582 30.7487 391.697 30.7487 383.206V297.11H126.838V383.206C126.838 391.697 133.723 398.582 142.214 398.582C150.704 398.582 157.587 391.697 157.587 383.206V231C157.587 222.51 150.704 215.625 142.214 215.625H30.7487V78.7936C30.7487 70.3033 23.8653 63.4185 15.3751 63.4185C6.88489 63.4185 0 70.3033 0 78.7936V383.206ZM30.7487 246.375H126.838V266.362H30.7487V246.375Z" fill="#4E3909"/>
<path d="M304.411 383.206C304.411 391.697 311.296 398.582 319.786 398.582C328.276 398.582 335.161 391.697 335.161 383.206V297.11H431.251V383.206C431.251 391.697 438.134 398.582 446.625 398.582C455.115 398.582 462 391.697 462 383.206V78.7936C462 70.3033 455.115 63.4185 446.625 63.4185C438.134 63.4185 431.251 70.3033 431.251 78.7936V215.625H319.786C311.296 215.625 304.411 222.51 304.411 231V383.206V383.206ZM335.161 266.361V246.374H431.251V266.361H335.161Z" fill="#4E3909"/>
</svg>
