<svg width="512" height="512" viewBox="0 0 512 512" fill="none" xmlns="http://www.w3.org/2000/svg">
<g clip-path="url(#clip0_1662_2)">
<path d="M341.333 255.998H170.667C156.553 255.998 145.067 267.484 145.067 281.598C145.067 295.712 156.553 307.198 170.667 307.198H221.867C226.586 307.198 230.4 303.375 230.4 298.665C230.4 293.955 226.586 290.132 221.867 290.132H170.667C165.957 290.132 162.134 286.301 162.134 281.599C162.134 276.897 165.957 273.066 170.667 273.066H341.334C346.044 273.066 349.867 276.897 349.867 281.599C349.867 286.301 346.044 290.132 341.334 290.132H256C251.281 290.132 247.467 293.955 247.467 298.665V448.732L198.767 497.432C195.43 500.769 195.43 506.162 198.767 509.498C200.431 511.162 202.616 511.998 204.8 511.998C206.985 511.998 209.169 511.162 210.833 509.498L262.033 458.298C263.629 456.702 264.533 454.526 264.533 452.265V307.198H341.333C355.447 307.198 366.933 295.712 366.933 281.598C366.933 267.484 355.448 255.998 341.333 255.998Z" fill="#EEAF1C"/>
<path d="M230.4 136.532C227.712 136.532 225.186 137.795 223.573 139.945C195.131 177.859 221.627 231.934 222.771 234.213C224.87 238.428 230.033 240.127 234.197 238.027C238.412 235.928 240.136 230.808 238.037 226.592C237.815 226.14 216.823 183.081 234.905 153.598H277.094C295.176 183.081 274.184 226.14 273.954 226.592C271.863 230.807 273.579 235.927 277.803 238.027C279.023 238.641 280.32 238.923 281.6 238.923C284.723 238.923 287.744 237.199 289.229 234.213C290.372 231.935 316.868 177.859 288.427 139.945C286.814 137.795 284.28 136.532 281.6 136.532H264.533V76.798H273.066C287.18 76.798 298.666 65.312 298.666 51.198V25.598C298.666 22.97 297.454 20.487 295.381 18.874C293.307 17.253 290.594 16.672 288.068 17.321L264.533 23.2V17.065C264.533 13.148 261.862 9.73499 258.065 8.78799L223.932 0.254988C221.389 -0.376012 218.692 0.186988 216.619 1.80799C214.545 3.42099 213.334 5.90399 213.334 8.53199V51.199C213.334 65.313 224.82 76.799 238.934 76.799H247.467V98.866L244.967 96.366C241.63 93.03 236.237 93.03 232.901 96.366C229.564 99.703 229.564 105.096 232.901 108.432L247.467 122.998V136.532H230.4ZM264.533 40.796L281.6 36.53V51.199C281.6 55.901 277.777 59.732 273.067 59.732H264.534V40.796H264.533ZM238.933 59.732C234.223 59.732 230.4 55.901 230.4 51.199V19.463L247.467 23.73V59.732H238.933Z" fill="#EEAF1C"/>
<path d="M503.467 204.739C432.879 204.739 375.467 262.16 375.467 332.739C375.467 335.009 376.372 337.185 377.976 338.789C380.118 340.922 380.527 341.323 400.658 341.323C405.334 341.323 411.086 341.297 418.168 341.272C422.878 341.255 426.684 337.415 426.667 332.705C426.65 328.003 422.836 324.206 418.134 324.206H418.1C410.616 324.24 400.146 324.266 392.85 324.266C396.98 269.857 440.534 226.295 494.934 222.13V298.495C494.934 312.677 483.448 324.206 469.334 324.206H452.267C447.548 324.206 443.734 328.029 443.734 332.739V494.932H418.134C413.415 494.932 409.601 498.755 409.601 503.465C409.601 508.175 413.415 511.998 418.134 511.998H486.4C491.119 511.998 494.933 508.175 494.933 503.465C494.933 498.755 491.119 494.932 486.4 494.932H460.8V341.272H469.333C492.859 341.272 512 322.089 512 298.494V213.272C512 208.562 508.186 204.739 503.467 204.739Z" fill="#EEAF1C"/>
<path d="M8.533 204.739C3.814 204.739 0 208.562 0 213.272V298.494C0 322.089 19.14 341.272 42.667 341.272H51.2V494.932H25.6C20.881 494.932 17.067 498.755 17.067 503.465C17.067 508.175 20.881 511.998 25.6 511.998H93.867C98.586 511.998 102.4 508.175 102.4 503.465C102.4 498.755 98.586 494.932 93.867 494.932H68.267V332.739C68.267 328.029 64.453 324.206 59.734 324.206H42.667C28.553 324.206 17.067 312.677 17.067 298.495V222.13C71.467 226.294 115.013 269.857 119.151 324.266C111.855 324.266 101.376 324.24 93.901 324.206H93.867C89.165 324.206 85.351 328.003 85.334 332.705C85.317 337.415 89.123 341.255 93.833 341.272C100.916 341.298 106.667 341.323 111.343 341.323C131.473 341.323 131.883 340.922 134.025 338.789C135.629 337.185 136.534 335.009 136.534 332.739C136.533 262.16 79.113 204.739 8.533 204.739Z" fill="#EEAF1C"/>
<path d="M287.633 471.832C284.296 468.496 278.903 468.496 275.567 471.832C272.23 475.169 272.23 480.562 275.567 483.898L301.167 509.498C302.831 511.162 305.016 511.998 307.2 511.998C309.385 511.998 311.569 511.162 313.233 509.498C316.57 506.161 316.57 500.768 313.233 497.432L287.633 471.832Z" fill="#EEAF1C"/>
</g>
<defs>
<clipPath id="clip0_1662_2">
<rect width="512" height="512" fill="white"/>
</clipPath>
</defs>
</svg>
