<svg width="51" height="51" viewBox="0 0 51 51" fill="none" xmlns="http://www.w3.org/2000/svg">
<g clip-path="url(#clip0_1_2)">
<path d="M25.4998 0C11.4394 0 0.000747681 11.4392 0.000747681 25.4997C0.000747681 39.5608 11.4394 51 25.4998 51C39.5603 51 50.9995 39.5608 50.9995 25.4997C50.9995 11.4392 39.5597 0 25.4998 0ZM25.4998 47.3133C13.4726 47.3133 3.68684 37.5276 3.68684 25.4997C3.68684 13.4718 13.472 3.6867 25.4998 3.6867C37.5277 3.6867 47.3128 13.4718 47.3128 25.4997C47.3128 37.5276 37.5277 47.3133 25.4998 47.3133Z" fill="#010167"/>
<path d="M32.878 27.8469C32.8682 27.8469 32.8596 27.8469 32.8497 27.8469L27.343 27.9292V13.5179C27.343 12.4998 26.5178 11.6746 25.4997 11.6746C24.4815 11.6746 23.6563 12.4998 23.6563 13.5179V29.8008C23.6563 29.8045 23.6576 29.8082 23.6576 29.8119C23.6576 29.8181 23.6563 29.8236 23.6563 29.8285C23.6576 29.9035 23.6717 29.9741 23.6815 30.046C23.6877 30.0909 23.6883 30.137 23.6969 30.1812C23.7135 30.2605 23.7411 30.3342 23.7676 30.4085C23.7811 30.4472 23.7897 30.4878 23.8057 30.5247C23.8376 30.6002 23.8806 30.6691 23.9218 30.7397C23.9408 30.7711 23.955 30.8055 23.9752 30.8362C24.0219 30.9044 24.0779 30.9652 24.1332 31.0273C24.1565 31.0531 24.1756 31.0826 24.2001 31.1078C24.2597 31.1668 24.3267 31.2165 24.3937 31.2675C24.4207 31.2878 24.4447 31.3124 24.4723 31.3314C24.5448 31.3806 24.6241 31.4193 24.7034 31.4574C24.731 31.4703 24.7556 31.4887 24.7839 31.5004C24.876 31.5391 24.9743 31.5662 25.0739 31.5901C25.0923 31.5944 25.1095 31.603 25.1286 31.6067C25.2478 31.6307 25.3713 31.6442 25.4979 31.6442C25.5071 31.6442 25.5169 31.6442 25.5261 31.6442L32.9044 31.5336C33.922 31.5182 34.7349 30.6801 34.7201 29.6626C34.706 28.6543 33.8833 27.8469 32.878 27.8469Z" fill="#010167"/>
</g>
<defs>
<clipPath id="clip0_1_2">
<rect width="51" height="51" fill="white"/>
</clipPath>
</defs>
</svg>
