<svg width="35" height="35" viewBox="0 0 35 35" fill="none" xmlns="http://www.w3.org/2000/svg">
<g clip-path="url(#clip0_113_11290)">
<path d="M34.6014 32.6771L26.0597 24.1355C28.1828 21.5823 29.462 18.3038 29.462 14.7314C29.462 6.60849 22.8537 0 14.7311 0C6.60831 0 0 6.60849 0 14.7314C0 22.8539 6.60831 29.4618 14.7311 29.4618C18.3032 29.4618 21.582 28.1828 24.1352 26.0597L32.6771 34.6014C32.9427 34.8672 33.291 35 33.6392 35C33.9874 35 34.3358 34.8672 34.6016 34.6014C35.133 34.07 35.133 33.2085 34.6014 32.6771ZM2.72156 14.7314C2.72156 8.10916 8.10898 2.72156 14.7311 2.72156C21.353 2.72156 26.7402 8.10916 26.7402 14.7314C26.7402 21.3532 21.353 26.7402 14.7311 26.7402C8.10898 26.7402 2.72156 21.3532 2.72156 14.7314Z" fill="white"/>
<path d="M21.416 13.3699H16.0917V8.04584C16.0917 7.29433 15.4827 6.68506 14.731 6.68506C13.9793 6.68506 13.3702 7.29433 13.3702 8.04584V13.3701H8.04608C7.29439 13.3701 6.6853 13.9794 6.6853 14.7309C6.6853 15.4824 7.29439 16.0917 8.04608 16.0917H13.3702V21.4161C13.3702 22.1677 13.9793 22.7769 14.731 22.7769C15.4827 22.7769 16.0917 22.1677 16.0917 21.4161V16.0915H21.416C22.1677 16.0915 22.7768 15.4822 22.7768 14.7307C22.7768 13.9792 22.1677 13.3699 21.416 13.3699Z" fill="white"/>
</g>
<defs>
<clipPath id="clip0_113_11290">
<rect width="35" height="35" fill="white"/>
</clipPath>
</defs>
</svg>
